archivonarrow-bold-otf.ufo
<glyph name="exclam" format="1">
  <advance width="273"/>
  <unicode hex="0021"/>
  <outline>
    <contour>
      <point x="213" y="686" type="line"/>
      <point x="60" y="686" type="line"/>
      <point x="95" y="197" type="line"/>
      <point x="177" y="197" type="line"/>
    </contour>
    <contour>
      <point x="206" y="137" type="line"/>
      <point x="68" y="137" type="line"/>
      <point x="68" y="0" type="line"/>
      <point x="206" y="0" type="line"/>
    </contour>
  </outline>
</glyph>
<glyph name="quotedbl" format="1">
  <advance width="389"/>
  <unicode hex="0022"/>
  <outline>
    <contour>
      <point x="348" y="686" type="line"/>
      <point x="226" y="686" type="line"/>
      <point x="226" y="539" type="line"/>
      <point x="248" y="407" type="line"/>
      <point x="327" y="407" type="line"/>
      <point x="348" y="539" type="line"/>
    </contour>
    <contour>
      <point x="167" y="686" type="line"/>
      <point x="45" y="686" type="line"/>
      <point x="45" y="539" type="line"/>
      <point x="67" y="407" type="line"/>
      <point x="146" y="407" type="line"/>
      <point x="167" y="539" type="line"/>
    </contour>
  </outline>
</glyph>
<glyph name="numbersign" format="1">
  <advance width="456"/>
  <unicode hex="0023"/>
  <outline>
    <contour>
      <point x="432" y="698" type="line"/>
      <point x="344" y="698" type="line"/>
      <point x="300" y="504" type="line"/>
      <point x="225" y="504" type="line"/>
      <point x="269" y="698" type="line"/>
      <point x="181" y="698" type="line"/>
      <point x="137" y="504" type="line"/>
      <point x="44" y="504" type="line"/>
      <point x="44" y="420" type="line"/>
      <point x="118" y="420" type="line"/>
      <point x="87" y="279" type="line"/>
      <point x="5" y="279" type="line"/>
      <point x="5" y="195" type="line"/>
      <point x="68" y="195" type="line"/>
      <point x="24" y="0" type="line"/>
      <point x="112" y="0" type="line"/>
      <point x="156" y="195" type="line"/>
      <point x="231" y="195" type="line"/>
      <point x="187" y="0" type="line"/>
      <point x="275" y="0" type="line"/>
      <point x="319" y="195" type="line"/>
      <point x="411" y="195" type="line"/>
      <point x="411" y="279" type="line"/>
      <point x="338" y="279" type="line"/>
      <point x="369" y="420" type="line"/>
      <point x="450" y="420" type="line"/>
      <point x="450" y="504" type="line"/>
      <point x="388" y="504" type="line"/>
    </contour>
    <contour>
      <point x="281" y="420" type="line"/>
      <point x="250" y="279" type="line"/>
      <point x="175" y="279" type="line"/>
      <point x="206" y="420" type="line"/>
    </contour>
  </outline>
</glyph>
<glyph name="dollar" format="1">
  <advance width="456"/>
  <unicode hex="0024"/>
  <outline>
    <contour>
      <point x="253" y="723" type="line"/>
      <point x="198" y="723" type="line"/>
      <point x="198" y="616" type="line"/>
      <point x="108" y="607"/>
      <point x="41" y="554"/>
      <point x="41" y="458" type="curve" smooth="yes"/>
      <point x="41" y="350"/>
      <point x="124" y="325"/>
      <point x="198" y="304" type="curve"/>
      <point x="198" y="161" type="line"/>
      <point x="169" y="170"/>
      <point x="144" y="194"/>
      <point x="144" y="240" type="curve" smooth="yes"/>
      <point x="144" y="247" type="line"/>
      <point x="34" y="247" type="line"/>
      <point x="34" y="247"/>
      <point x="33" y="240"/>
      <point x="33" y="235" type="curve" smooth="yes"/>
      <point x="33" y="142"/>
      <point x="93" y="78"/>
      <point x="198" y="69" type="curve"/>
      <point x="198" y="-49" type="line"/>
      <point x="253" y="-49" type="line"/>
      <point x="253" y="69" type="line"/>
      <point x="350" y="76"/>
      <point x="420" y="121"/>
      <point x="420" y="238" type="curve" smooth="yes"/>
      <point x="420" y="353"/>
      <point x="329" y="377"/>
      <point x="253" y="397" type="curve"/>
      <point x="253" y="526" type="line"/>
      <point x="279" y="516"/>
      <point x="296" y="492"/>
      <point x="296" y="452" type="curve"/>
      <point x="406" y="452" type="line"/>
      <point x="406" y="453"/>
      <point x="407" y="464"/>
      <point x="407" y="475" type="curve" smooth="yes"/>
      <point x="407" y="557"/>
      <point x="341" y="609"/>
      <point x="253" y="617" type="curve"/>
    </contour>
    <contour>
      <point x="253" y="286" type="line"/>
      <point x="286" y="273"/>
      <point x="310" y="256"/>
      <point x="310" y="223" type="curve" smooth="yes"/>
      <point x="310" y="185"/>
      <point x="282" y="166"/>
      <point x="253" y="159" type="curve"/>
    </contour>
    <contour>
      <point x="198" y="414" type="line"/>
      <point x="170" y="425"/>
      <point x="151" y="440"/>
      <point x="151" y="468" type="curve" smooth="yes"/>
      <point x="151" y="496"/>
      <point x="170" y="517"/>
      <point x="198" y="526" type="curve"/>
    </contour>
  </outline>
</glyph>
<glyph name="percent" format="1">
  <advance width="729"/>
  <unicode hex="0025"/>
  <outline>
    <contour>
      <point x="618" y="686" type="line"/>
      <point x="532" y="686" type="line"/>
      <point x="114" y="0" type="line"/>
      <point x="199" y="0" type="line"/>
    </contour>
    <contour>
      <point x="173" y="698" type="curve" smooth="yes"/>
      <point x="87" y="698"/>
      <point x="35" y="656"/>
      <point x="35" y="517" type="curve" smooth="yes"/>
      <point x="35" y="379"/>
      <point x="87" y="337"/>
      <point x="173" y="337" type="curve" smooth="yes"/>
      <point x="259" y="337"/>
      <point x="311" y="378"/>
      <point x="311" y="517" type="curve" smooth="yes"/>
      <point x="311" y="656"/>
      <point x="259" y="698"/>
    </contour>
    <contour>
      <point x="173" y="625" type="curve" smooth="yes"/>
      <point x="213" y="625"/>
      <point x="222" y="584"/>
      <point x="222" y="525" type="curve" smooth="yes"/>
      <point x="222" y="510" type="line"/>
      <point x="222" y="451"/>
      <point x="213" y="410"/>
      <point x="173" y="410" type="curve" smooth="yes"/>
      <point x="133" y="410"/>
      <point x="124" y="451"/>
      <point x="124" y="510" type="curve" smooth="yes"/>
      <point x="124" y="525" type="line" smooth="yes"/>
      <point x="124" y="584"/>
      <point x="133" y="625"/>
    </contour>
    <contour>
      <point x="557" y="349" type="curve" smooth="yes"/>
      <point x="471" y="349"/>
      <point x="419" y="307"/>
      <point x="419" y="168" type="curve" smooth="yes"/>
      <point x="419" y="30"/>
      <point x="471" y="-12"/>
      <point x="557" y="-12" type="curve" smooth="yes"/>
      <point x="643" y="-12"/>
      <point x="695" y="29"/>
      <point x="695" y="168" type="curve" smooth="yes"/>
      <point x="695" y="307"/>
      <point x="643" y="349"/>
    </contour>
    <contour>
      <point x="557" y="276" type="curve" smooth="yes"/>
      <point x="597" y="276"/>
      <point x="606" y="235"/>
      <point x="606" y="176" type="curve" smooth="yes"/>
      <point x="606" y="161" type="line"/>
      <point x="606" y="102"/>
      <point x="597" y="61"/>
      <point x="557" y="61" type="curve" smooth="yes"/>
      <point x="517" y="61"/>
      <point x="508" y="102"/>
      <point x="508" y="161" type="curve" smooth="yes"/>
      <point x="508" y="176" type="line" smooth="yes"/>
      <point x="508" y="235"/>
      <point x="517" y="276"/>
    </contour>
  </outline>
</glyph>
<glyph name="ampersand" format="1">
  <advance width="592"/>
  <unicode hex="0026"/>
  <outline>
    <contour>
      <point x="279" y="698" type="curve" smooth="yes"/>
      <point x="142" y="698"/>
      <point x="50" y="632"/>
      <point x="50" y="510" type="curve" smooth="yes"/>
      <point x="50" y="429"/>
      <point x="94" y="385"/>
      <point x="153" y="356" type="curve"/>
      <point x="153" y="352" type="line"/>
      <point x="86" y="330"/>
      <point x="36" y="275"/>
      <point x="36" y="184" type="curve" smooth="yes"/>
      <point x="36" y="62"/>
      <point x="133" y="-12"/>
      <point x="269" y="-12" type="curve" smooth="yes"/>
      <point x="418" y="-12"/>
      <point x="498" y="69"/>
      <point x="498" y="194" type="curve" smooth="yes"/>
      <point x="498" y="298" type="line"/>
      <point x="577" y="298" type="line"/>
      <point x="577" y="399" type="line"/>
      <point x="378" y="399" type="line"/>
      <point x="378" y="191" type="line" smooth="yes"/>
      <point x="378" y="126"/>
      <point x="343" y="89"/>
      <point x="271" y="89" type="curve" smooth="yes"/>
      <point x="204" y="89"/>
      <point x="161" y="121"/>
      <point x="161" y="190" type="curve" smooth="yes"/>
      <point x="161" y="276"/>
      <point x="215" y="298"/>
      <point x="276" y="298" type="curve" smooth="yes"/>
      <point x="314" y="298" type="line"/>
      <point x="314" y="399" type="line"/>
      <point x="273" y="399" type="line" smooth="yes"/>
      <point x="216" y="399"/>
      <point x="175" y="439"/>
      <point x="175" y="505" type="curve" smooth="yes"/>
      <point x="175" y="562"/>
      <point x="213" y="597"/>
      <point x="277" y="597" type="curve" smooth="yes"/>
      <point x="343" y="597"/>
      <point x="378" y="565"/>
      <point x="378" y="501" type="curve" smooth="yes"/>
      <point x="378" y="482" type="line"/>
      <point x="498" y="482" type="line"/>
      <point x="498" y="510" type="line" smooth="yes"/>
      <point x="498" y="624"/>
      <point x="408" y="698"/>
    </contour>
  </outline>
</glyph>
<glyph name="quotesingle" format="1">
  <advance width="195"/>
  <unicode hex="0027"/>
  <outline>
    <contour>
      <point x="159" y="686" type="line"/>
      <point x="37" y="686" type="line"/>
      <point x="37" y="539" type="line"/>
      <point x="59" y="407" type="line"/>
      <point x="138" y="407" type="line"/>
      <point x="159" y="539" type="line"/>
    </contour>
  </outline>
</glyph>
<glyph name="parenleft" format="1">
  <advance width="273"/>
  <unicode hex="0028"/>
  <outline>
    <contour>
      <point x="179" y="735" type="line"/>
      <point x="83" y="612"/>
      <point x="30" y="452"/>
      <point x="30" y="288" type="curve" smooth="yes"/>
      <point x="30" y="124"/>
      <point x="83" y="-34"/>
      <point x="179" y="-157" type="curve"/>
      <point x="258" y="-157" type="line"/>
      <point x="192" y="-35"/>
      <point x="140" y="134"/>
      <point x="140" y="290" type="curve" smooth="yes"/>
      <point x="140" y="446"/>
      <point x="192" y="613"/>
      <point x="258" y="735" type="curve"/>
    </contour>
  </outline>
</glyph>
<glyph name="parenright" format="1">
  <advance width="273"/>
  <unicode hex="0029"/>
  <outline>
    <contour>
      <point x="15" y="735" type="line"/>
      <point x="81" y="613"/>
      <point x="133" y="446"/>
      <point x="133" y="290" type="curve" smooth="yes"/>
      <point x="133" y="134"/>
      <point x="81" y="-35"/>
      <point x="15" y="-157" type="curve"/>
      <point x="94" y="-157" type="line"/>
      <point x="190" y="-34"/>
      <point x="243" y="124"/>
      <point x="243" y="288" type="curve" smooth="yes"/>
      <point x="243" y="452"/>
      <point x="190" y="612"/>
      <point x="94" y="735" type="curve"/>
    </contour>
  </outline>
</glyph>
<glyph name="asterisk" format="1">
  <advance width="319"/>
  <unicode hex="002A"/>
  <outline>
    <contour>
      <point x="199" y="686" type="line"/>
      <point x="121" y="686" type="line"/>
      <point x="131" y="584" type="line"/>
      <point x="47" y="643" type="line"/>
      <point x="8" y="577" type="line"/>
      <point x="101" y="533" type="line"/>
      <point x="8" y="491" type="line"/>
      <point x="47" y="423" type="line"/>
      <point x="131" y="483" type="line"/>
      <point x="121" y="381" type="line"/>
      <point x="199" y="381" type="line"/>
      <point x="189" y="483" type="line"/>
      <point x="273" y="423" type="line"/>
      <point x="312" y="491" type="line"/>
      <point x="219" y="533" type="line"/>
      <point x="312" y="577" type="line"/>
      <point x="273" y="643" type="line"/>
      <point x="189" y="585" type="line"/>
    </contour>
  </outline>
</glyph>
<glyph name="plus" format="1">
  <advance width="479"/>
  <unicode hex="002B"/>
  <outline>
    <contour>
      <point x="290" y="511" type="line"/>
      <point x="187" y="511" type="line"/>
      <point x="187" y="307" type="line"/>
      <point x="33" y="307" type="line"/>
      <point x="33" y="203" type="line"/>
      <point x="187" y="203" type="line"/>
      <point x="187" y="0" type="line"/>
      <point x="290" y="0" type="line"/>
      <point x="290" y="203" type="line"/>
      <point x="445" y="203" type="line"/>
      <point x="445" y="307" type="line"/>
      <point x="290" y="307" type="line"/>
    </contour>
  </outline>
</glyph>
<glyph name="hyphen" format="1">
  <advance width="273"/>
  <unicode hex="002D"/>
  <outline>
    <contour>
      <point x="257" y="329" type="line"/>
      <point x="16" y="329" type="line"/>
      <point x="16" y="211" type="line"/>
      <point x="257" y="211" type="line"/>
    </contour>
  </outline>
</glyph>
<glyph name="zero" format="1">
  <advance width="456"/>
  <unicode hex="0030"/>
  <outline>
    <contour>
      <point x="228" y="698" type="curve" smooth="yes"/>
      <point x="104" y="698"/>
      <point x="30" y="622"/>
      <point x="30" y="343" type="curve" smooth="yes"/>
      <point x="30" y="64"/>
      <point x="104" y="-12"/>
      <point x="228" y="-12" type="curve" smooth="yes"/>
      <point x="351" y="-12"/>
      <point x="426" y="64"/>
      <point x="426" y="343" type="curve" smooth="yes"/>
      <point x="426" y="622"/>
      <point x="351" y="698"/>
    </contour>
    <contour>
      <point x="228" y="597" type="curve" smooth="yes"/>
      <point x="289" y="597"/>
      <point x="301" y="528"/>
      <point x="301" y="378" type="curve" smooth="yes"/>
      <point x="301" y="308" type="line"/>
      <point x="301" y="158"/>
      <point x="289" y="89"/>
      <point x="228" y="89" type="curve" smooth="yes"/>
      <point x="167" y="89"/>
      <point x="155" y="158"/>
      <point x="155" y="308" type="curve" smooth="yes"/>
      <point x="155" y="378" type="line" smooth="yes"/>
      <point x="155" y="528"/>
      <point x="167" y="597"/>
    </contour>
  </outline>
</glyph>
<glyph name="one" format="1">
  <advance width="456"/>
  <unicode hex="0031"/>
  <outline>
    <contour>
      <point x="314" y="686" type="line"/>
      <point x="255" y="686" type="line"/>
      <point x="191" y="646"/>
      <point x="95" y="615"/>
      <point x="39" y="609" type="curve"/>
      <point x="39" y="529" type="line"/>
      <point x="194" y="529" type="line"/>
      <point x="194" y="101" type="line"/>
      <point x="40" y="101" type="line"/>
      <point x="40" y="0" type="line"/>
      <point x="455" y="0" type="line"/>
      <point x="455" y="101" type="line"/>
      <point x="314" y="101" type="line"/>
    </contour>
  </outline>
</glyph>
<glyph name="two" format="1">
  <advance width="456"/>
  <unicode hex="0032"/>
  <outline>
    <contour>
      <point x="239" y="698" type="curve" smooth="yes"/>
      <point x="132" y="698"/>
      <point x="39" y="637"/>
      <point x="39" y="490" type="curve" smooth="yes"/>
      <point x="39" y="466"/>
      <point x="42" y="450"/>
      <point x="42" y="450" type="curve"/>
      <point x="165" y="450" type="line"/>
      <point x="165" y="491" type="line" smooth="yes"/>
      <point x="165" y="547"/>
      <point x="184" y="595"/>
      <point x="234" y="595" type="curve" smooth="yes"/>
      <point x="283" y="595"/>
      <point x="297" y="553"/>
      <point x="297" y="521" type="curve" smooth="yes"/>
      <point x="297" y="333"/>
      <point x="33" y="239"/>
      <point x="33" y="24" type="curve" smooth="yes"/>
      <point x="33" y="0" type="line"/>
      <point x="426" y="0" type="line"/>
      <point x="426" y="112" type="line"/>
      <point x="183" y="112" type="line"/>
      <point x="225" y="195"/>
      <point x="423" y="339"/>
      <point x="423" y="520" type="curve" smooth="yes"/>
      <point x="423" y="646"/>
      <point x="341" y="698"/>
    </contour>
  </outline>
</glyph>
<glyph name="three" format="1">
  <advance width="456"/>
  <unicode hex="0033"/>
  <outline>
    <contour>
      <point x="225" y="698" type="curve" smooth="yes"/>
      <point x="115" y="698"/>
      <point x="37" y="624"/>
      <point x="37" y="510" type="curve" smooth="yes"/>
      <point x="37" y="482" type="line"/>
      <point x="162" y="482" type="line"/>
      <point x="162" y="501" type="line" smooth="yes"/>
      <point x="162" y="565"/>
      <point x="185" y="597"/>
      <point x="226" y="597" type="curve" smooth="yes"/>
      <point x="265" y="597"/>
      <point x="289" y="569"/>
      <point x="289" y="505" type="curve" smooth="yes"/>
      <point x="289" y="434"/>
      <point x="259" y="399"/>
      <point x="221" y="399" type="curve" smooth="yes"/>
      <point x="186" y="399" type="line"/>
      <point x="186" y="298" type="line"/>
      <point x="219" y="298" type="line" smooth="yes"/>
      <point x="262" y="298"/>
      <point x="301" y="276"/>
      <point x="301" y="190" type="curve" smooth="yes"/>
      <point x="301" y="121"/>
      <point x="271" y="89"/>
      <point x="226" y="89" type="curve" smooth="yes"/>
      <point x="176" y="89"/>
      <point x="150" y="126"/>
      <point x="150" y="191" type="curve" smooth="yes"/>
      <point x="150" y="212" type="line"/>
      <point x="25" y="212" type="line"/>
      <point x="25" y="194" type="line" smooth="yes"/>
      <point x="25" y="69"/>
      <point x="97" y="-12"/>
      <point x="228" y="-12" type="curve" smooth="yes"/>
      <point x="344" y="-12"/>
      <point x="426" y="62"/>
      <point x="426" y="184" type="curve" smooth="yes"/>
      <point x="426" y="275"/>
      <point x="383" y="330"/>
      <point x="325" y="352" type="curve"/>
      <point x="325" y="356" type="line"/>
      <point x="376" y="385"/>
      <point x="414" y="429"/>
      <point x="414" y="510" type="curve" smooth="yes"/>
      <point x="414" y="632"/>
      <point x="338" y="698"/>
    </contour>
  </outline>
</glyph>
<glyph name="four" format="1">
  <advance width="456"/>
  <unicode hex="0034"/>
  <outline>
    <contour>
      <point x="181" y="698" type="line"/>
      <point x="141" y="546"/>
      <point x="80" y="378"/>
      <point x="8" y="251" type="curve"/>
      <point x="8" y="155" type="line"/>
      <point x="255" y="155" type="line"/>
      <point x="255" y="0" type="line"/>
      <point x="375" y="0" type="line"/>
      <point x="375" y="155" type="line"/>
      <point x="445" y="155" type="line"/>
      <point x="445" y="256" type="line"/>
      <point x="375" y="256" type="line"/>
      <point x="375" y="596" type="line"/>
      <point x="322" y="596" type="line"/>
      <point x="309" y="543"/>
      <point x="281" y="462"/>
      <point x="255" y="410" type="curve"/>
      <point x="255" y="256" type="line"/>
      <point x="112" y="256" type="line"/>
      <point x="150" y="310"/>
      <point x="263" y="520"/>
      <point x="301" y="698" type="curve"/>
    </contour>
  </outline>
</glyph>
<glyph name="five" format="1">
  <advance width="456"/>
  <unicode hex="0035"/>
  <outline>
    <contour>
      <point x="404" y="686" type="line"/>
      <point x="72" y="686" type="line"/>
      <point x="49" y="306" type="line"/>
      <point x="165" y="290" type="line"/>
      <point x="180" y="323"/>
      <point x="202" y="348"/>
      <point x="239" y="348" type="curve" smooth="yes"/>
      <point x="279" y="348"/>
      <point x="309" y="304"/>
      <point x="309" y="224" type="curve" smooth="yes"/>
      <point x="309" y="134"/>
      <point x="278" y="88"/>
      <point x="232" y="88" type="curve" smooth="yes"/>
      <point x="183" y="88"/>
      <point x="155" y="137"/>
      <point x="155" y="213" type="curve"/>
      <point x="30" y="213" type="line"/>
      <point x="30" y="73"/>
      <point x="110" y="-12"/>
      <point x="232" y="-12" type="curve" smooth="yes"/>
      <point x="356" y="-12"/>
      <point x="433" y="73"/>
      <point x="433" y="224" type="curve" smooth="yes"/>
      <point x="433" y="375"/>
      <point x="359" y="446"/>
      <point x="266" y="446" type="curve" smooth="yes"/>
      <point x="218" y="446"/>
      <point x="188" y="428"/>
      <point x="168" y="412" type="curve"/>
      <point x="178" y="574" type="line"/>
      <point x="404" y="574" type="line"/>
    </contour>
  </outline>
</glyph>
<glyph name="six" format="1">
  <advance width="456"/>
  <unicode hex="0036"/>
  <outline>
    <contour>
      <point x="228" y="698" type="curve" smooth="yes"/>
      <point x="104" y="698"/>
      <point x="30" y="609"/>
      <point x="30" y="323" type="curve" smooth="yes"/>
      <point x="30" y="69"/>
      <point x="108" y="-12"/>
      <point x="237" y="-12" type="curve" smooth="yes"/>
      <point x="346" y="-12"/>
      <point x="426" y="73"/>
      <point x="426" y="210" type="curve" smooth="yes"/>
      <point x="426" y="337"/>
      <point x="371" y="431"/>
      <point x="260" y="431" type="curve" smooth="yes"/>
      <point x="216" y="431"/>
      <point x="177" y="411"/>
      <point x="154" y="377" type="curve"/>
      <point x="156" y="511"/>
      <point x="162" y="597"/>
      <point x="224" y="597" type="curve" smooth="yes"/>
      <point x="270" y="597"/>
      <point x="285" y="552"/>
      <point x="285" y="475" type="curve"/>
      <point x="408" y="475" type="line"/>
      <point x="408" y="602"/>
      <point x="355" y="698"/>
    </contour>
    <contour>
      <point x="232" y="333" type="curve" smooth="yes"/>
      <point x="280" y="333"/>
      <point x="302" y="283"/>
      <point x="302" y="210" type="curve" smooth="yes"/>
      <point x="302" y="141"/>
      <point x="280" y="89"/>
      <point x="232" y="89" type="curve" smooth="yes"/>
      <point x="184" y="89"/>
      <point x="161" y="141"/>
      <point x="161" y="210" type="curve" smooth="yes"/>
      <point x="161" y="283"/>
      <point x="184" y="333"/>
    </contour>
  </outline>
</glyph>
<glyph name="seven" format="1">
  <advance width="456"/>
  <unicode hex="0037"/>
  <outline>
    <contour>
      <point x="433" y="686" type="line"/>
      <point x="23" y="686" type="line"/>
      <point x="23" y="574" type="line"/>
      <point x="303" y="574" type="line"/>
      <point x="198" y="435"/>
      <point x="99" y="220"/>
      <point x="99" y="0" type="curve"/>
      <point x="232" y="0" type="line"/>
      <point x="231" y="24"/>
      <point x="231" y="32"/>
      <point x="231" y="51" type="curve" smooth="yes"/>
      <point x="231" y="261"/>
      <point x="343" y="469"/>
      <point x="433" y="605" type="curve"/>
    </contour>
  </outline>
</glyph>
<glyph name="eight" format="1">
  <advance width="456"/>
  <unicode hex="0038"/>
  <outline>
    <contour>
      <point x="228" y="698" type="curve" smooth="yes"/>
      <point x="106" y="698"/>
      <point x="44" y="612"/>
      <point x="44" y="507" type="curve" smooth="yes"/>
      <point x="44" y="442"/>
      <point x="68" y="385"/>
      <point x="118" y="352" type="curve"/>
      <point x="56" y="321"/>
      <point x="30" y="262"/>
      <point x="30" y="188" type="curve" smooth="yes"/>
      <point x="30" y="78"/>
      <point x="88" y="-12"/>
      <point x="228" y="-12" type="curve" smooth="yes"/>
      <point x="368" y="-12"/>
      <point x="426" y="78"/>
      <point x="426" y="188" type="curve" smooth="yes"/>
      <point x="426" y="262"/>
      <point x="400" y="321"/>
      <point x="337" y="352" type="curve"/>
      <point x="387" y="385"/>
      <point x="412" y="442"/>
      <point x="412" y="507" type="curve" smooth="yes"/>
      <point x="412" y="612"/>
      <point x="350" y="698"/>
    </contour>
    <contour>
      <point x="228" y="301" type="curve" smooth="yes"/>
      <point x="276" y="301"/>
      <point x="302" y="263"/>
      <point x="302" y="194" type="curve" smooth="yes"/>
      <point x="302" y="125"/>
      <point x="276" y="88"/>
      <point x="228" y="88" type="curve" smooth="yes"/>
      <point x="180" y="88"/>
      <point x="154" y="125"/>
      <point x="154" y="194" type="curve" smooth="yes"/>
      <point x="154" y="263"/>
      <point x="180" y="301"/>
    </contour>
    <contour>
      <point x="228" y="598" type="curve" smooth="yes"/>
      <point x="268" y="598"/>
      <point x="291" y="564"/>
      <point x="291" y="499" type="curve" smooth="yes"/>
      <point x="291" y="434"/>
      <point x="268" y="400"/>
      <point x="228" y="400" type="curve" smooth="yes"/>
      <point x="188" y="400"/>
      <point x="166" y="434"/>
      <point x="166" y="499" type="curve" smooth="yes"/>
      <point x="166" y="564"/>
      <point x="188" y="598"/>
    </contour>
  </outline>
</glyph>
<glyph name="nine" format="1">
  <advance width="456"/>
  <unicode hex="0039"/>
  <outline>
    <contour>
      <point x="219" y="698" type="curve" smooth="yes"/>
      <point x="110" y="698"/>
      <point x="30" y="613"/>
      <point x="30" y="476" type="curve" smooth="yes"/>
      <point x="30" y="349"/>
      <point x="85" y="255"/>
      <point x="196" y="255" type="curve" smooth="yes"/>
      <point x="240" y="255"/>
      <point x="279" y="275"/>
      <point x="302" y="309" type="curve"/>
      <point x="300" y="175"/>
      <point x="294" y="89"/>
      <point x="232" y="89" type="curve" smooth="yes"/>
      <point x="186" y="89"/>
      <point x="171" y="134"/>
      <point x="171" y="211" type="curve"/>
      <point x="48" y="211" type="line"/>
      <point x="48" y="84"/>
      <point x="101" y="-12"/>
      <point x="228" y="-12" type="curve" smooth="yes"/>
      <point x="352" y="-12"/>
      <point x="426" y="77"/>
      <point x="426" y="363" type="curve" smooth="yes"/>
      <point x="426" y="617"/>
      <point x="348" y="698"/>
    </contour>
    <contour>
      <point x="224" y="597" type="curve" smooth="yes"/>
      <point x="272" y="597"/>
      <point x="295" y="545"/>
      <point x="295" y="476" type="curve" smooth="yes"/>
      <point x="295" y="403"/>
      <point x="272" y="353"/>
      <point x="224" y="353" type="curve" smooth="yes"/>
      <point x="176" y="353"/>
      <point x="154" y="403"/>
      <point x="154" y="476" type="curve" smooth="yes"/>
      <point x="154" y="545"/>
      <point x="176" y="597"/>
    </contour>
  </outline>
</glyph>
<glyph name="colon" format="1">
  <advance width="273"/>
  <unicode hex="003A"/>
  <outline>
    <contour>
      <point x="193" y="137" type="line"/>
      <point x="55" y="137" type="line"/>
      <point x="55" y="0" type="line"/>
      <point x="193" y="0" type="line"/>
    </contour>
    <contour>
      <point x="193" y="526" type="line"/>
      <point x="55" y="526" type="line"/>
      <point x="55" y="389" type="line"/>
      <point x="193" y="389" type="line"/>
    </contour>
  </outline>
</glyph>
<glyph name="semicolon" format="1">
  <advance width="273"/>
  <unicode hex="003B"/>
  <outline>
    <contour>
      <point x="192" y="137" type="line"/>
      <point x="54" y="137" type="line"/>
      <point x="54" y="0" type="line"/>
      <point x="109" y="0" type="line"/>
      <point x="54" y="-156" type="line"/>
      <point x="126" y="-156" type="line"/>
      <point x="192" y="12" type="line"/>
    </contour>
    <contour>
      <point x="193" y="526" type="line"/>
      <point x="55" y="526" type="line"/>
      <point x="55" y="389" type="line"/>
      <point x="193" y="389" type="line"/>
    </contour>
  </outline>
</glyph>
<glyph name="less" format="1">
  <advance width="479"/>
  <unicode hex="003C"/>
  <outline>
    <contour>
      <point x="446" y="531" type="line"/>
      <point x="34" y="324" type="line"/>
      <point x="34" y="197" type="line"/>
      <point x="446" y="-9" type="line"/>
      <point x="446" y="109" type="line"/>
      <point x="135" y="261" type="line"/>
      <point x="446" y="413" type="line"/>
    </contour>
  </outline>
</glyph>
<glyph name="equal" format="1">
  <advance width="479"/>
  <unicode hex="003D"/>
  <outline>
    <contour>
      <point x="445" y="412" type="line"/>
      <point x="33" y="412" type="line"/>
      <point x="33" y="308" type="line"/>
      <point x="445" y="308" type="line"/>
    </contour>
    <contour>
      <point x="445" y="199" type="line"/>
      <point x="33" y="199" type="line"/>
      <point x="33" y="96" type="line"/>
      <point x="445" y="96" type="line"/>
    </contour>
  </outline>
</glyph>
<glyph name="greater" format="1">
  <advance width="479"/>
  <unicode hex="003E"/>
  <outline>
    <contour>
      <point x="34" y="531" type="line"/>
      <point x="34" y="413" type="line"/>
      <point x="345" y="261" type="line"/>
      <point x="34" y="109" type="line"/>
      <point x="34" y="-9" type="line"/>
      <point x="446" y="197" type="line"/>
      <point x="446" y="324" type="line"/>
    </contour>
  </outline>
</glyph>
<glyph name="question" format="1">
  <advance width="501"/>
  <unicode hex="003F"/>
  <outline>
    <contour>
      <point x="260" y="698" type="curve" smooth="yes"/>
      <point x="117" y="698"/>
      <point x="47" y="606"/>
      <point x="47" y="494" type="curve" smooth="yes"/>
      <point x="47" y="482"/>
      <point x="50" y="459"/>
      <point x="50" y="459" type="curve"/>
      <point x="176" y="459" type="line"/>
      <point x="176" y="459"/>
      <point x="175" y="470"/>
      <point x="175" y="486" type="curve" smooth="yes"/>
      <point x="175" y="523"/>
      <point x="185" y="591"/>
      <point x="252" y="591" type="curve" smooth="yes"/>
      <point x="314" y="591"/>
      <point x="322" y="529"/>
      <point x="322" y="509" type="curve" smooth="yes"/>
      <point x="322" y="380"/>
      <point x="202" y="360"/>
      <point x="202" y="240" type="curve" smooth="yes"/>
      <point x="202" y="197" type="line"/>
      <point x="328" y="197" type="line"/>
      <point x="328" y="225" type="line" smooth="yes"/>
      <point x="328" y="342"/>
      <point x="453" y="343"/>
      <point x="453" y="520" type="curve" smooth="yes"/>
      <point x="453" y="625"/>
      <point x="379" y="698"/>
    </contour>
    <contour>
      <point x="335" y="137" type="line"/>
      <point x="197" y="137" type="line"/>
      <point x="197" y="0" type="line"/>
      <point x="335" y="0" type="line"/>
    </contour>
  </outline>
</glyph>
<glyph name="at" format="1">
  <advance width="800"/>
  <unicode hex="0040"/>
  <outline>
    <contour>
      <point x="412" y="698" type="curve" smooth="yes"/>
      <point x="203" y="698"/>
      <point x="25" y="581"/>
      <point x="25" y="262" type="curve" smooth="yes"/>
      <point x="25" y="-27"/>
      <point x="161" y="-153"/>
      <point x="380" y="-153" type="curve" smooth="yes"/>
      <point x="422" y="-153"/>
      <point x="499" y="-142"/>
      <point x="540" y="-126" type="curve"/>
      <point x="540" y="-52" type="line"/>
      <point x="505" y="-70"/>
      <point x="425" y="-84"/>
      <point x="380" y="-84" type="curve" smooth="yes"/>
      <point x="187" y="-84"/>
      <point x="98" y="32"/>
      <point x="98" y="261" type="curve" smooth="yes"/>
      <point x="98" y="509"/>
      <point x="218" y="629"/>
      <point x="411" y="629" type="curve" smooth="yes"/>
      <point x="583" y="629"/>
      <point x="703" y="539"/>
      <point x="703" y="322" type="curve" smooth="yes"/>
      <point x="703" y="165"/>
      <point x="651" y="114"/>
      <point x="605" y="114" type="curve" smooth="yes"/>
      <point x="586" y="114"/>
      <point x="575" y="125"/>
      <point x="575" y="152" type="curve" smooth="yes"/>
      <point x="575" y="380" type="line"/>
      <point x="575" y="469"/>
      <point x="523" y="521"/>
      <point x="412" y="521" type="curve" smooth="yes"/>
      <point x="314" y="521"/>
      <point x="251" y="468"/>
      <point x="251" y="389" type="curve" smooth="yes"/>
      <point x="251" y="380"/>
      <point x="251" y="374"/>
      <point x="252" y="369" type="curve"/>
      <point x="358" y="369" type="line"/>
      <point x="358" y="382" type="line" smooth="yes"/>
      <point x="358" y="405"/>
      <point x="370" y="432"/>
      <point x="415" y="432" type="curve" smooth="yes"/>
      <point x="457" y="432"/>
      <point x="465" y="406"/>
      <point x="465" y="373" type="curve" smooth="yes"/>
      <point x="465" y="323" type="line"/>
      <point x="326" y="323"/>
      <point x="228" y="285"/>
      <point x="228" y="156" type="curve" smooth="yes"/>
      <point x="228" y="46"/>
      <point x="303" y="22"/>
      <point x="348" y="22" type="curve" smooth="yes"/>
      <point x="411" y="22"/>
      <point x="441" y="46"/>
      <point x="468" y="85" type="curve"/>
      <point x="473" y="85" type="line"/>
      <point x="488" y="48"/>
      <point x="511" y="22"/>
      <point x="577" y="22" type="curve" smooth="yes"/>
      <point x="660" y="22"/>
      <point x="776" y="94"/>
      <point x="776" y="321" type="curve" smooth="yes"/>
      <point x="776" y="589"/>
      <point x="621" y="698"/>
    </contour>
    <contour>
      <point x="465" y="217" type="line"/>
      <point x="465" y="161"/>
      <point x="445" y="113"/>
      <point x="393" y="113" type="curve" smooth="yes"/>
      <point x="356" y="113"/>
      <point x="340" y="134"/>
      <point x="340" y="166" type="curve" smooth="yes"/>
      <point x="340" y="228"/>
      <point x="401" y="244"/>
      <point x="465" y="244" type="curve"/>
    </contour>
  </outline>
</glyph>
<glyph name="B" format="1">
  <advance width="592"/>
  <unicode hex="0042"/>
  <outline>
    <contour>
      <point x="60" y="0" type="line"/>
      <point x="355" y="0" type="line" smooth="yes"/>
      <point x="465" y="0"/>
      <point x="558" y="69"/>
      <point x="558" y="184" type="curve" smooth="yes"/>
      <point x="558" y="272"/>
      <point x="505" y="335"/>
      <point x="437" y="356" type="curve"/>
      <point x="437" y="360" type="line"/>
      <point x="496" y="381"/>
      <point x="542" y="437"/>
      <point x="542" y="516" type="curve" smooth="yes"/>
      <point x="542" y="617"/>
      <point x="463" y="686"/>
      <point x="355" y="686" type="curve" smooth="yes"/>
      <point x="60" y="686" type="line"/>
    </contour>
    <contour>
      <point x="328" y="295" type="line"/>
      <point x="395" y="295"/>
      <point x="427" y="253"/>
      <point x="427" y="200" type="curve" smooth="yes"/>
      <point x="427" y="144"/>
      <point x="387" y="114"/>
      <point x="334" y="114" type="curve" smooth="yes"/>
      <point x="188" y="114" type="line"/>
      <point x="188" y="295" type="line"/>
    </contour>
    <contour>
      <point x="326" y="572" type="line"/>
      <point x="377" y="572"/>
      <point x="411" y="545"/>
      <point x="411" y="493" type="curve" smooth="yes"/>
      <point x="411" y="447"/>
      <point x="381" y="408"/>
      <point x="320" y="408" type="curve" smooth="yes"/>
      <point x="188" y="408" type="line"/>
      <point x="188" y="572" type="line"/>
    </contour>
  </outline>
</glyph>
<glyph name="F" format="1">
  <advance width="501"/>
  <unicode hex="0046"/>
  <outline>
    <contour>
      <point x="188" y="0" type="line"/>
      <point x="188" y="285" type="line"/>
      <point x="423" y="285" type="line"/>
      <point x="423" y="399" type="line"/>
      <point x="188" y="399" type="line"/>
      <point x="188" y="572" type="line"/>
      <point x="463" y="572" type="line"/>
      <point x="463" y="686" type="line"/>
      <point x="60" y="686" type="line"/>
      <point x="60" y="0" type="line"/>
    </contour>
  </outline>
</glyph>
<glyph name="G" format="1">
  <advance width="638"/>
  <unicode hex="0047"/>
  <outline>
    <contour>
      <point x="325" y="698" type="curve" smooth="yes"/>
      <point x="140" y="698"/>
      <point x="34" y="585"/>
      <point x="34" y="343" type="curve" smooth="yes"/>
      <point x="34" y="99"/>
      <point x="131" y="-12"/>
      <point x="299" y="-12" type="curve" smooth="yes"/>
      <point x="371" y="-12"/>
      <point x="438" y="18"/>
      <point x="482" y="76" type="curve"/>
      <point x="504" y="0" type="line"/>
      <point x="587" y="0" type="line"/>
      <point x="587" y="373" type="line"/>
      <point x="302" y="373" type="line"/>
      <point x="302" y="263" type="line"/>
      <point x="456" y="263" type="line"/>
      <point x="456" y="163"/>
      <point x="400" y="98"/>
      <point x="322" y="98" type="curve" smooth="yes"/>
      <point x="215" y="98"/>
      <point x="166" y="178"/>
      <point x="166" y="318" type="curve" smooth="yes"/>
      <point x="166" y="368" type="line" smooth="yes"/>
      <point x="166" y="505"/>
      <point x="214" y="588"/>
      <point x="321" y="588" type="curve" smooth="yes"/>
      <point x="395" y="588"/>
      <point x="456" y="539"/>
      <point x="456" y="446" type="curve"/>
      <point x="587" y="446" type="line"/>
      <point x="587" y="610"/>
      <point x="463" y="698"/>
    </contour>
    <contour>
      <point x="319" y="686" type="move" name="top"/>
    </contour>
    <contour>
      <point x="303" y="0" type="move" name="bottom"/>
    </contour>
  </outline>
</glyph>
<glyph name="H" format="1">
  <advance width="592"/>
  <unicode hex="0048"/>
  <outline>
    <contour>
      <point x="404" y="0" type="line"/>
      <point x="532" y="0" type="line"/>
      <point x="532" y="686" type="line"/>
      <point x="404" y="686" type="line"/>
      <point x="404" y="408" type="line"/>
      <point x="188" y="408" type="line"/>
      <point x="188" y="686" type="line"/>
      <point x="60" y="686" type="line"/>
      <point x="60" y="0" type="line"/>
      <point x="188" y="0" type="line"/>
      <point x="188" y="294" type="line"/>
      <point x="404" y="294" type="line"/>
    </contour>
    <contour>
      <point x="296" y="686" type="move" name="top"/>
    </contour>
    <contour>
      <point x="296" y="343" type="move" name="center"/>
    </contour>
  </outline>
</glyph>
<glyph name="I" format="1">
  <advance width="228"/>
  <unicode hex="0049"/>
  <outline>
    <contour>
      <point x="178" y="686" type="line"/>
      <point x="50" y="686" type="line"/>
      <point x="50" y="0" type="line"/>
      <point x="178" y="0" type="line"/>
    </contour>
    <contour>
      <point x="114" y="686" type="move" name="top"/>
    </contour>
    <contour>
      <point x="178" y="0" type="move" name="ogonek"/>
    </contour>
  </outline>
</glyph>
<glyph name="J" format="1">
  <advance width="456"/>
  <unicode hex="004A"/>
  <outline>
    <contour>
      <point x="9" y="216" type="line"/>
      <point x="9" y="163" type="line" smooth="yes"/>
      <point x="9" y="49"/>
      <point x="79" y="-12"/>
      <point x="203" y="-12" type="curve" smooth="yes"/>
      <point x="327" y="-12"/>
      <point x="396" y="49"/>
      <point x="396" y="163" type="curve" smooth="yes"/>
      <point x="396" y="686" type="line"/>
      <point x="268" y="686" type="line"/>
      <point x="268" y="173" type="line" smooth="yes"/>
      <point x="268" y="125"/>
      <point x="246" y="98"/>
      <point x="203" y="98" type="curve" smooth="yes"/>
      <point x="159" y="98"/>
      <point x="136" y="125"/>
      <point x="136" y="173" type="curve" smooth="yes"/>
      <point x="136" y="216" type="line"/>
    </contour>
    <contour>
      <point x="345" y="686" type="move" name="top"/>
    </contour>
  </outline>
</glyph>
<glyph name="K" format="1">
  <advance width="592"/>
  <unicode hex="004B"/>
  <outline>
    <contour>
      <point x="189" y="686" type="line"/>
      <point x="60" y="686" type="line"/>
      <point x="60" y="0" type="line"/>
      <point x="189" y="0" type="line"/>
      <point x="189" y="175" type="line"/>
      <point x="296" y="306" type="line"/>
      <point x="445" y="0" type="line"/>
      <point x="589" y="0" type="line"/>
      <point x="380" y="407" type="line"/>
      <point x="583" y="686" type="line"/>
      <point x="440" y="686" type="line"/>
      <point x="189" y="335" type="line"/>
    </contour>
    <contour>
      <point x="296" y="686" type="move" name="top"/>
    </contour>
    <contour>
      <point x="296" y="0" type="move" name="bottom"/>
    </contour>
  </outline>
</glyph>
<glyph name="L" format="1">
  <advance width="501"/>
  <unicode hex="004C"/>
  <outline>
    <contour>
      <point x="60" y="0" type="line"/>
      <point x="478" y="0" type="line"/>
      <point x="478" y="120" type="line"/>
      <point x="188" y="120" type="line"/>
      <point x="188" y="686" type="line"/>
      <point x="60" y="686" type="line"/>
    </contour>
    <contour>
      <point x="117" y="686" type="move" name="top"/>
    </contour>
    <contour>
      <point x="250" y="0" type="move" name="bottom"/>
    </contour>
  </outline>
</glyph>
<glyph name="M" format="1">
  <advance width="683"/>
  <unicode hex="004D"/>
  <outline>
    <contour>
      <point x="630" y="0" type="line"/>
      <point x="630" y="686" type="line"/>
      <point x="456" y="686" type="line"/>
      <point x="372" y="308" type="line" smooth="yes"/>
      <point x="363" y="268"/>
      <point x="349" y="153"/>
      <point x="349" y="153" type="curve"/>
      <point x="345" y="153" type="line"/>
      <point x="345" y="153"/>
      <point x="328" y="263"/>
      <point x="318" y="308" type="curve" smooth="yes"/>
      <point x="233" y="686" type="line"/>
      <point x="53" y="686" type="line"/>
      <point x="53" y="0" type="line"/>
      <point x="162" y="0" type="line"/>
      <point x="162" y="437" type="line" smooth="yes"/>
      <point x="162" y="464"/>
      <point x="157" y="547"/>
      <point x="157" y="547" type="curve"/>
      <point x="161" y="547" type="line"/>
      <point x="282" y="0" type="line"/>
      <point x="393" y="0" type="line"/>
      <point x="513" y="547" type="line"/>
      <point x="517" y="547" type="line"/>
      <point x="517" y="547"/>
      <point x="512" y="468"/>
      <point x="512" y="437" type="curve" smooth="yes"/>
      <point x="512" y="0" type="line"/>
    </contour>
  </outline>
</glyph>
<glyph name="O" format="1">
  <advance width="638"/>
  <unicode hex="004F"/>
  <outline>
    <contour>
      <point x="319" y="698" type="curve" smooth="yes"/>
      <point x="142" y="698"/>
      <point x="34" y="585"/>
      <point x="34" y="343" type="curve" smooth="yes"/>
      <point x="34" y="101"/>
      <point x="142" y="-12"/>
      <point x="319" y="-12" type="curve" smooth="yes"/>
      <point x="496" y="-12"/>
      <point x="604" y="101"/>
      <point x="604" y="343" type="curve" smooth="yes"/>
      <point x="604" y="585"/>
      <point x="496" y="698"/>
    </contour>
    <contour>
      <point x="319" y="588" type="curve" smooth="yes"/>
      <point x="421" y="588"/>
      <point x="472" y="505"/>
      <point x="472" y="368" type="curve" smooth="yes"/>
      <point x="472" y="318" type="line" smooth="yes"/>
      <point x="472" y="181"/>
      <point x="421" y="98"/>
      <point x="319" y="98" type="curve" smooth="yes"/>
      <point x="217" y="98"/>
      <point x="166" y="181"/>
      <point x="166" y="318" type="curve" smooth="yes"/>
      <point x="166" y="368" type="line"/>
      <point x="166" y="505"/>
      <point x="217" y="588"/>
    </contour>
    <contour>
      <point x="319" y="686" type="move" name="top"/>
    </contour>
  </outline>
</glyph>
<glyph name="P" format="1">
  <advance width="547"/>
  <unicode hex="0050"/>
  <outline>
    <contour>
      <point x="305" y="266" type="line"/>
      <point x="434" y="266"/>
      <point x="520" y="351"/>
      <point x="520" y="480" type="curve" smooth="yes"/>
      <point x="520" y="599"/>
      <point x="447" y="686"/>
      <point x="305" y="686" type="curve" smooth="yes"/>
      <point x="60" y="686" type="line"/>
      <point x="60" y="0" type="line"/>
      <point x="188" y="0" type="line"/>
      <point x="188" y="266" type="line"/>
    </contour>
    <contour>
      <point x="292" y="572" type="line"/>
      <point x="353" y="572"/>
      <point x="388" y="536"/>
      <point x="388" y="480" type="curve" smooth="yes"/>
      <point x="388" y="417"/>
      <point x="354" y="379"/>
      <point x="292" y="379" type="curve" smooth="yes"/>
      <point x="188" y="379" type="line"/>
      <point x="188" y="572" type="line"/>
    </contour>
  </outline>
</glyph>
<glyph name="Q" format="1">
  <advance width="638"/>
  <unicode hex="0051"/>
  <outline>
    <contour>
      <point x="34" y="343" type="curve" smooth="yes"/>
      <point x="34" y="101"/>
      <point x="142" y="-12"/>
      <point x="319" y="-12" type="curve" smooth="yes"/>
      <point x="331" y="-12" type="line"/>
      <point x="430" y="-124" type="line"/>
      <point x="587" y="-124" type="line"/>
      <point x="455" y="17" type="line"/>
      <point x="549" y="65"/>
      <point x="604" y="171"/>
      <point x="604" y="343" type="curve" smooth="yes"/>
      <point x="604" y="585"/>
      <point x="496" y="698"/>
      <point x="319" y="698" type="curve" smooth="yes"/>
      <point x="142" y="698"/>
      <point x="34" y="585"/>
    </contour>
    <contour>
      <point x="166" y="368" type="line" smooth="yes"/>
      <point x="166" y="505"/>
      <point x="217" y="588"/>
      <point x="319" y="588" type="curve" smooth="yes"/>
      <point x="421" y="588"/>
      <point x="472" y="505"/>
      <point x="472" y="368" type="curve" smooth="yes"/>
      <point x="472" y="318" type="line" smooth="yes"/>
      <point x="472" y="181"/>
      <point x="421" y="98"/>
      <point x="319" y="98" type="curve" smooth="yes"/>
      <point x="217" y="98"/>
      <point x="166" y="181"/>
      <point x="166" y="318" type="curve" smooth="yes"/>
    </contour>
  </outline>
</glyph>
<glyph name="T" format="1">
  <advance width="501"/>
  <unicode hex="0054"/>
  <outline>
    <contour>
      <point x="485" y="686" type="line"/>
      <point x="17" y="686" type="line"/>
      <point x="17" y="572" type="line"/>
      <point x="187" y="572" type="line"/>
      <point x="187" y="0" type="line"/>
      <point x="315" y="0" type="line"/>
      <point x="315" y="572" type="line"/>
      <point x="485" y="572" type="line"/>
    </contour>
    <contour>
      <point x="250" y="686" type="move" name="top"/>
    </contour>
    <contour>
      <point x="250" y="0" type="move" name="bottom"/>
    </contour>
    <contour>
      <point x="250" y="343" type="move" name="center"/>
    </contour>
  </outline>
</glyph>
<glyph name="V" format="1">
  <advance width="547"/>
  <unicode hex="0056"/>
  <outline>
    <contour>
      <point x="547" y="686" type="line"/>
      <point x="422" y="686" type="line"/>
      <point x="280" y="195" type="line"/>
      <point x="276" y="195" type="line"/>
      <point x="132" y="686" type="line"/>
      <point x="0" y="686" type="line"/>
      <point x="209" y="0" type="line"/>
      <point x="338" y="0" type="line"/>
    </contour>
  </outline>
</glyph>
<glyph name="X" format="1">
  <advance width="547"/>
  <unicode hex="0058"/>
  <outline>
    <contour>
      <point x="528" y="686" type="line"/>
      <point x="395" y="686" type="line"/>
      <point x="280" y="462" type="line"/>
      <point x="276" y="462" type="line"/>
      <point x="161" y="686" type="line"/>
      <point x="18" y="686" type="line"/>
      <point x="194" y="360" type="line"/>
      <point x="0" y="0" type="line"/>
      <point x="133" y="0" type="line"/>
      <point x="266" y="259" type="line"/>
      <point x="270" y="259" type="line"/>
      <point x="404" y="0" type="line"/>
      <point x="546" y="0" type="line"/>
      <point x="351" y="362" type="line"/>
    </contour>
  </outline>
</glyph>
<glyph name="Y" format="1">
  <advance width="547"/>
  <unicode hex="0059"/>
  <outline>
    <contour>
      <point x="547" y="686" type="line"/>
      <point x="418" y="686" type="line"/>
      <point x="279" y="385" type="line"/>
      <point x="275" y="385" type="line"/>
      <point x="135" y="686" type="line"/>
      <point x="0" y="686" type="line"/>
      <point x="210" y="259" type="line"/>
      <point x="210" y="0" type="line"/>
      <point x="338" y="0" type="line"/>
      <point x="338" y="259" type="line"/>
    </contour>
    <contour>
      <point x="273" y="686" type="move" name="top"/>
    </contour>
  </outline>
</glyph>
<glyph name="Z" format="1">
  <advance width="501"/>
  <unicode hex="005A"/>
  <outline>
    <contour>
      <point x="473" y="686" type="line"/>
      <point x="37" y="686" type="line"/>
      <point x="37" y="572" type="line"/>
      <point x="298" y="572" type="line"/>
      <point x="16" y="49" type="line"/>
      <point x="16" y="0" type="line"/>
      <point x="480" y="0" type="line"/>
      <point x="480" y="114" type="line"/>
      <point x="191" y="114" type="line"/>
      <point x="473" y="636" type="line"/>
    </contour>
    <contour>
      <point x="250" y="686" type="move" name="top"/>
    </contour>
  </outline>
</glyph>
<glyph name="bracketleft" format="1">
  <advance width="273"/>
  <unicode hex="005B"/>
  <outline>
    <contour>
      <point x="248" y="735" type="line"/>
      <point x="49" y="735" type="line"/>
      <point x="49" y="-161" type="line"/>
      <point x="248" y="-161" type="line"/>
      <point x="248" y="-66" type="line"/>
      <point x="165" y="-66" type="line"/>
      <point x="165" y="640" type="line"/>
      <point x="248" y="640" type="line"/>
    </contour>
  </outline>
</glyph>
<glyph name="backslash" format="1">
  <advance width="228"/>
  <unicode hex="005C"/>
  <outline>
    <contour>
      <point x="86" y="735" type="line"/>
      <point x="1" y="735" type="line"/>
      <point x="142" y="-49" type="line"/>
      <point x="228" y="-49" type="line"/>
    </contour>
  </outline>
</glyph>
<glyph name="bracketright" format="1">
  <advance width="273"/>
  <unicode hex="005D"/>
  <outline>
    <contour>
      <point x="224" y="735" type="line"/>
      <point x="25" y="735" type="line"/>
      <point x="25" y="640" type="line"/>
      <point x="108" y="640" type="line"/>
      <point x="108" y="-66" type="line"/>
      <point x="25" y="-66" type="line"/>
      <point x="25" y="-161" type="line"/>
      <point x="224" y="-161" type="line"/>
    </contour>
  </outline>
</glyph>
<glyph name="asciicircum" format="1">
  <advance width="479"/>
  <unicode hex="005E"/>
  <outline>
    <contour>
      <point x="295" y="686" type="line"/>
      <point x="188" y="686" type="line"/>
      <point x="32" y="294" type="line"/>
      <point x="142" y="294" type="line"/>
      <point x="241" y="564" type="line"/>
      <point x="342" y="294" type="line"/>
      <point x="452" y="294" type="line"/>
    </contour>
  </outline>
</glyph>
<glyph name="underscore" format="1">
  <advance width="456"/>
  <unicode hex="005F"/>
  <outline>
    <contour>
      <point x="455" y="-63" type="line"/>
      <point x="0" y="-63" type="line"/>
      <point x="0" y="-132" type="line"/>
      <point x="455" y="-132" type="line"/>
    </contour>
  </outline>
</glyph>
<glyph name="grave" format="1">
  <advance width="273"/>
  <unicode hex="0060"/>
  <outline>
    <contour>
      <point x="142" y="723" type="line"/>
      <point x="22" y="723" type="line"/>
      <point x="21" y="720" type="line"/>
      <point x="129" y="591" type="line"/>
      <point x="228" y="591" type="line"/>
    </contour>
    <contour>
      <point x="159" y="526" type="move" name="_top"/>
    </contour>
  </outline>
</glyph>
<glyph name="b" format="1">
  <advance width="501"/>
  <unicode hex="0062"/>
  <outline>
    <contour>
      <point x="167" y="65" type="line"/>
      <point x="155" y="0" type="line"/>
      <point x="55" y="0" type="line"/>
      <point x="55" y="723" type="line"/>
      <point x="175" y="723" type="line"/>
      <point x="175" y="472" type="line"/>
      <point x="180" y="472" type="line"/>
      <point x="199" y="514"/>
      <point x="244" y="538"/>
      <point x="297" y="538" type="curve" smooth="yes"/>
      <point x="390" y="538"/>
      <point x="460" y="455"/>
      <point x="460" y="264" type="curve" smooth="yes"/>
      <point x="460" y="73"/>
      <point x="395" y="-12"/>
      <point x="291" y="-12" type="curve" smooth="yes"/>
      <point x="241" y="-12"/>
      <point x="198" y="14"/>
      <point x="172" y="65" type="curve"/>
    </contour>
    <contour>
      <point x="175" y="244" type="line"/>
      <point x="175" y="149"/>
      <point x="197" y="97"/>
      <point x="255" y="97" type="curve" smooth="yes"/>
      <point x="313" y="97"/>
      <point x="335" y="149"/>
      <point x="335" y="244" type="curve" smooth="yes"/>
      <point x="335" y="282" type="line" smooth="yes"/>
      <point x="335" y="377"/>
      <point x="313" y="429"/>
      <point x="255" y="429" type="curve" smooth="yes"/>
      <point x="197" y="429"/>
      <point x="175" y="375"/>
      <point x="175" y="280" type="curve" smooth="yes"/>
    </contour>
  </outline>
</glyph>
<glyph name="c" format="1">
  <advance width="456"/>
  <unicode hex="0063"/>
  <outline>
    <contour>
      <point x="236" y="538" type="curve" smooth="yes"/>
      <point x="106" y="538"/>
      <point x="41" y="452"/>
      <point x="41" y="263" type="curve" smooth="yes"/>
      <point x="41" y="74"/>
      <point x="103" y="-12"/>
      <point x="240" y="-12" type="curve" smooth="yes"/>
      <point x="350" y="-12"/>
      <point x="420" y="51"/>
      <point x="420" y="198" type="curve"/>
      <point x="301" y="198" type="line"/>
      <point x="301" y="126"/>
      <point x="283" y="89"/>
      <point x="240" y="89" type="curve" smooth="yes"/>
      <point x="186" y="89"/>
      <point x="166" y="143"/>
      <point x="166" y="244" type="curve" smooth="yes"/>
      <point x="166" y="282" type="line" smooth="yes"/>
      <point x="166" y="383"/>
      <point x="185" y="437"/>
      <point x="236" y="437" type="curve" smooth="yes"/>
      <point x="277" y="437"/>
      <point x="297" y="402"/>
      <point x="297" y="328" type="curve"/>
      <point x="420" y="328" type="line"/>
      <point x="420" y="475"/>
      <point x="348" y="538"/>
    </contour>
    <contour>
      <point x="237" y="526" type="move" name="top"/>
    </contour>
    <contour>
      <point x="243" y="0" type="move" name="bottom"/>
    </contour>
  </outline>
</glyph>
<glyph name="d" format="1">
  <advance width="501"/>
  <unicode hex="0064"/>
  <outline>
    <contour>
      <point x="446" y="723" type="line"/>
      <point x="326" y="723" type="line"/>
      <point x="326" y="472" type="line"/>
      <point x="321" y="472" type="line"/>
      <point x="302" y="514"/>
      <point x="257" y="538"/>
      <point x="204" y="538" type="curve" smooth="yes"/>
      <point x="111" y="538"/>
      <point x="41" y="455"/>
      <point x="41" y="264" type="curve" smooth="yes"/>
      <point x="41" y="73"/>
      <point x="106" y="-12"/>
      <point x="210" y="-12" type="curve" smooth="yes"/>
      <point x="260" y="-12"/>
      <point x="303" y="14"/>
      <point x="329" y="65" type="curve"/>
      <point x="334" y="65" type="line"/>
      <point x="346" y="0" type="line"/>
      <point x="446" y="0" type="line"/>
    </contour>
    <contour>
      <point x="246" y="429" type="curve" smooth="yes"/>
      <point x="304" y="429"/>
      <point x="326" y="375"/>
      <point x="326" y="280" type="curve" smooth="yes"/>
      <point x="326" y="244" type="line"/>
      <point x="326" y="149"/>
      <point x="304" y="97"/>
      <point x="246" y="97" type="curve" smooth="yes"/>
      <point x="188" y="97"/>
      <point x="166" y="149"/>
      <point x="166" y="244" type="curve" smooth="yes"/>
      <point x="166" y="282" type="line" smooth="yes"/>
      <point x="166" y="377"/>
      <point x="188" y="429"/>
    </contour>
    <contour>
      <point x="250" y="263" type="move" name="center"/>
    </contour>
  </outline>
</glyph>
<glyph name="h" format="1">
  <advance width="501"/>
  <unicode hex="0068"/>
  <outline>
    <contour>
      <point x="175" y="723" type="line"/>
      <point x="55" y="723" type="line"/>
      <point x="55" y="0" type="line"/>
      <point x="175" y="0" type="line"/>
      <point x="175" y="324" type="line" smooth="yes"/>
      <point x="175" y="383"/>
      <point x="210" y="429"/>
      <point x="257" y="429" type="curve" smooth="yes"/>
      <point x="300" y="429"/>
      <point x="326" y="404"/>
      <point x="326" y="336" type="curve" smooth="yes"/>
      <point x="326" y="0" type="line"/>
      <point x="446" y="0" type="line"/>
      <point x="446" y="369" type="line" smooth="yes"/>
      <point x="446" y="493"/>
      <point x="387" y="538"/>
      <point x="306" y="538" type="curve" smooth="yes"/>
      <point x="244" y="538"/>
      <point x="202" y="503"/>
      <point x="179" y="470" type="curve"/>
      <point x="175" y="470" type="line"/>
    </contour>
    <contour>
      <point x="112" y="686" type="move" name="top"/>
    </contour>
    <contour>
      <point x="250" y="263" type="move" name="center"/>
    </contour>
  </outline>
</glyph>
<glyph name="i" format="1">
  <advance width="228"/>
  <unicode hex="0069"/>
  <outline>
    <contour>
      <point x="174" y="526" type="line"/>
      <point x="54" y="526" type="line"/>
      <point x="54" y="0" type="line"/>
      <point x="174" y="0" type="line"/>
    </contour>
    <contour>
      <point x="174" y="723" type="line"/>
      <point x="54" y="723" type="line"/>
      <point x="54" y="614" type="line"/>
      <point x="174" y="614" type="line"/>
    </contour>
  </outline>
</glyph>
<glyph name="j" format="1">
  <advance width="228"/>
  <unicode hex="006A"/>
  <outline>
    <contour>
      <point x="174" y="526" type="line"/>
      <point x="54" y="526" type="line"/>
      <point x="54" y="-33" type="line"/>
      <point x="54" y="-64"/>
      <point x="38" y="-81"/>
      <point x="7" y="-81" type="curve" smooth="yes"/>
      <point x="-37" y="-81" type="line"/>
      <point x="-37" y="-170" type="line"/>
      <point x="-16" y="-176"/>
      <point x="22" y="-182"/>
      <point x="52" y="-182" type="curve" smooth="yes"/>
      <point x="148" y="-182"/>
      <point x="174" y="-111"/>
      <point x="174" y="-41" type="curve" smooth="yes"/>
    </contour>
    <contour>
      <point x="174" y="723" type="line"/>
      <point x="54" y="723" type="line"/>
      <point x="54" y="614" type="line"/>
      <point x="174" y="614" type="line"/>
    </contour>
  </outline>
</glyph>
<glyph name="k" format="1">
  <advance width="456"/>
  <unicode hex="006B"/>
  <outline>
    <contour>
      <point x="174" y="723" type="line"/>
      <point x="54" y="723" type="line"/>
      <point x="54" y="0" type="line"/>
      <point x="174" y="0" type="line"/>
      <point x="174" y="164" type="line"/>
      <point x="218" y="218" type="line"/>
      <point x="324" y="0" type="line"/>
      <point x="457" y="0" type="line"/>
      <point x="293" y="312" type="line"/>
      <point x="449" y="526" type="line"/>
      <point x="321" y="526" type="line"/>
      <point x="174" y="317" type="line"/>
    </contour>
    <contour>
      <point x="228" y="0" type="move" name="bottom"/>
    </contour>
  </outline>
</glyph>
<glyph name="l" format="1">
  <advance width="228"/>
  <unicode hex="006C"/>
  <outline>
    <contour>
      <point x="174" y="723" type="line"/>
      <point x="54" y="723" type="line"/>
      <point x="54" y="0" type="line"/>
      <point x="174" y="0" type="line"/>
    </contour>
    <contour>
      <point x="114" y="686" type="move" name="top"/>
    </contour>
    <contour>
      <point x="114" y="0" type="move" name="bottom"/>
    </contour>
    <contour>
      <point x="218" y="526" type="move" name="topright"/>
    </contour>
  </outline>
</glyph>
<glyph name="m" format="1">
  <advance width="729"/>
  <unicode hex="006D"/>
  <outline>
    <contour>
      <point x="547" y="538" type="curve" smooth="yes"/>
      <point x="484" y="538"/>
      <point x="438" y="502"/>
      <point x="411" y="461" type="curve"/>
      <point x="390" y="516"/>
      <point x="350" y="538"/>
      <point x="298" y="538" type="curve" smooth="yes"/>
      <point x="240" y="538"/>
      <point x="198" y="502"/>
      <point x="173" y="461" type="curve"/>
      <point x="167" y="461" type="line"/>
      <point x="155" y="526" type="line"/>
      <point x="55" y="526" type="line"/>
      <point x="55" y="0" type="line"/>
      <point x="175" y="0" type="line"/>
      <point x="175" y="324" type="line" smooth="yes"/>
      <point x="175" y="386"/>
      <point x="206" y="429"/>
      <point x="247" y="429" type="curve" smooth="yes"/>
      <point x="287" y="429"/>
      <point x="307" y="404"/>
      <point x="307" y="336" type="curve" smooth="yes"/>
      <point x="307" y="0" type="line"/>
      <point x="425" y="0" type="line"/>
      <point x="425" y="332" type="line" smooth="yes"/>
      <point x="425" y="390"/>
      <point x="459" y="429"/>
      <point x="498" y="429" type="curve" smooth="yes"/>
      <point x="538" y="429"/>
      <point x="557" y="404"/>
      <point x="557" y="336" type="curve" smooth="yes"/>
      <point x="557" y="0" type="line"/>
      <point x="677" y="0" type="line"/>
      <point x="677" y="369" type="line" smooth="yes"/>
      <point x="677" y="496"/>
      <point x="622" y="538"/>
    </contour>
  </outline>
</glyph>
<glyph name="p" format="1">
  <advance width="501"/>
  <unicode hex="0070"/>
  <outline>
    <contour>
      <point x="291" y="538" type="curve" smooth="yes"/>
      <point x="241" y="538"/>
      <point x="198" y="512"/>
      <point x="172" y="461" type="curve"/>
      <point x="167" y="461" type="line"/>
      <point x="155" y="526" type="line"/>
      <point x="55" y="526" type="line"/>
      <point x="55" y="-173" type="line"/>
      <point x="175" y="-173" type="line"/>
      <point x="175" y="54" type="line"/>
      <point x="180" y="54" type="line"/>
      <point x="199" y="12"/>
      <point x="244" y="-12"/>
      <point x="297" y="-12" type="curve" smooth="yes"/>
      <point x="390" y="-12"/>
      <point x="460" y="71"/>
      <point x="460" y="262" type="curve" smooth="yes"/>
      <point x="460" y="453"/>
      <point x="395" y="538"/>
    </contour>
    <contour>
      <point x="255" y="429" type="curve" smooth="yes"/>
      <point x="313" y="429"/>
      <point x="335" y="377"/>
      <point x="335" y="282" type="curve" smooth="yes"/>
      <point x="335" y="244" type="line" smooth="yes"/>
      <point x="335" y="149"/>
      <point x="313" y="97"/>
      <point x="255" y="97" type="curve" smooth="yes"/>
      <point x="197" y="97"/>
      <point x="175" y="151"/>
      <point x="175" y="246" type="curve" smooth="yes"/>
      <point x="175" y="282" type="line"/>
      <point x="175" y="377"/>
      <point x="197" y="429"/>
    </contour>
  </outline>
</glyph>
<glyph name="q" format="1">
  <advance width="501"/>
  <unicode hex="0071"/>
  <outline>
    <contour>
      <point x="329" y="461" type="line"/>
      <point x="303" y="512"/>
      <point x="260" y="538"/>
      <point x="210" y="538" type="curve" smooth="yes"/>
      <point x="106" y="538"/>
      <point x="41" y="453"/>
      <point x="41" y="262" type="curve" smooth="yes"/>
      <point x="41" y="71"/>
      <point x="111" y="-12"/>
      <point x="204" y="-12" type="curve" smooth="yes"/>
      <point x="257" y="-12"/>
      <point x="302" y="12"/>
      <point x="321" y="54" type="curve"/>
      <point x="326" y="54" type="line"/>
      <point x="326" y="-173" type="line"/>
      <point x="446" y="-173" type="line"/>
      <point x="446" y="526" type="line"/>
      <point x="346" y="526" type="line"/>
      <point x="334" y="461" type="line"/>
    </contour>
    <contour>
      <point x="326" y="246" type="line"/>
      <point x="326" y="151"/>
      <point x="304" y="97"/>
      <point x="246" y="97" type="curve" smooth="yes"/>
      <point x="188" y="97"/>
      <point x="166" y="149"/>
      <point x="166" y="244" type="curve" smooth="yes"/>
      <point x="166" y="282" type="line" smooth="yes"/>
      <point x="166" y="377"/>
      <point x="188" y="429"/>
      <point x="246" y="429" type="curve" smooth="yes"/>
      <point x="304" y="429"/>
      <point x="326" y="377"/>
      <point x="326" y="282" type="curve"/>
    </contour>
  </outline>
</glyph>
<glyph name="s" format="1">
  <advance width="456"/>
  <unicode hex="0073"/>
  <outline>
    <contour>
      <point x="229" y="538" type="curve" smooth="yes"/>
      <point x="124" y="538"/>
      <point x="41" y="485"/>
      <point x="41" y="378" type="curve" smooth="yes"/>
      <point x="41" y="175"/>
      <point x="298" y="254"/>
      <point x="298" y="143" type="curve" smooth="yes"/>
      <point x="298" y="100"/>
      <point x="260" y="86"/>
      <point x="228" y="86" type="curve" smooth="yes"/>
      <point x="194" y="86"/>
      <point x="157" y="104"/>
      <point x="156" y="160" type="curve" smooth="yes"/>
      <point x="156" y="167" type="line"/>
      <point x="34" y="167" type="line"/>
      <point x="34" y="167"/>
      <point x="33" y="160"/>
      <point x="33" y="155" type="curve" smooth="yes"/>
      <point x="33" y="55"/>
      <point x="103" y="-12"/>
      <point x="224" y="-12" type="curve" smooth="yes"/>
      <point x="336" y="-12"/>
      <point x="420" y="30"/>
      <point x="420" y="158" type="curve" smooth="yes"/>
      <point x="420" y="366"/>
      <point x="163" y="286"/>
      <point x="163" y="388" type="curve" smooth="yes"/>
      <point x="163" y="420"/>
      <point x="188" y="440"/>
      <point x="225" y="440" type="curve" smooth="yes"/>
      <point x="261" y="440"/>
      <point x="284" y="419"/>
      <point x="284" y="372" type="curve"/>
      <point x="406" y="372" type="line"/>
      <point x="406" y="373"/>
      <point x="407" y="384"/>
      <point x="407" y="395" type="curve" smooth="yes"/>
      <point x="407" y="485"/>
      <point x="329" y="538"/>
    </contour>
    <contour>
      <point x="228" y="526" type="move" name="top"/>
    </contour>
    <contour>
      <point x="228" y="0" type="move" name="bottom"/>
    </contour>
  </outline>
</glyph>
<glyph name="v" format="1">
  <advance width="456"/>
  <unicode hex="0076"/>
  <outline>
    <contour>
      <point x="452" y="526" type="line"/>
      <point x="332" y="526" type="line"/>
      <point x="265" y="300" type="line" smooth="yes"/>
      <point x="251" y="254"/>
      <point x="235" y="142"/>
      <point x="235" y="142" type="curve"/>
      <point x="231" y="142" type="line"/>
      <point x="231" y="142"/>
      <point x="210" y="260"/>
      <point x="198" y="300" type="curve" smooth="yes"/>
      <point x="130" y="526" type="line"/>
      <point x="4" y="526" type="line"/>
      <point x="167" y="0" type="line"/>
      <point x="289" y="0" type="line"/>
    </contour>
  </outline>
</glyph>
<glyph name="x" format="1">
  <advance width="456"/>
  <unicode hex="0078"/>
  <outline>
    <contour>
      <point x="443" y="526" type="line"/>
      <point x="314" y="526" type="line"/>
      <point x="289" y="476"/>
      <point x="262" y="422"/>
      <point x="236" y="373" type="curve"/>
      <point x="231" y="373" type="line"/>
      <point x="204" y="422"/>
      <point x="178" y="476"/>
      <point x="153" y="526" type="curve"/>
      <point x="17" y="526" type="line"/>
      <point x="157" y="272" type="line"/>
      <point x="5" y="0" type="line"/>
      <point x="133" y="0" type="line"/>
      <point x="163" y="57"/>
      <point x="193" y="117"/>
      <point x="222" y="174" type="curve"/>
      <point x="227" y="174" type="line"/>
      <point x="316" y="0" type="line"/>
      <point x="451" y="0" type="line"/>
      <point x="301" y="275" type="line"/>
    </contour>
  </outline>
</glyph>
<glyph name="z" format="1">
  <advance width="410"/>
  <unicode hex="007A"/>
  <outline>
    <contour>
      <point x="385" y="526" type="line"/>
      <point x="30" y="526" type="line"/>
      <point x="30" y="425" type="line"/>
      <point x="222" y="425" type="line"/>
      <point x="18" y="51" type="line"/>
      <point x="18" y="0" type="line"/>
      <point x="392" y="0" type="line"/>
      <point x="392" y="101" type="line"/>
      <point x="180" y="101" type="line"/>
      <point x="385" y="476" type="line"/>
    </contour>
    <contour>
      <point x="205" y="526" type="move" name="top"/>
    </contour>
  </outline>
</glyph>
<glyph name="braceleft" format="1">
  <advance width="319"/>
  <unicode hex="007B"/>
  <outline>
    <contour>
      <point x="298" y="735" type="line"/>
      <point x="195" y="735"/>
      <point x="101" y="713"/>
      <point x="101" y="587" type="curve" smooth="yes"/>
      <point x="101" y="394" type="line" smooth="yes"/>
      <point x="101" y="349"/>
      <point x="60" y="334"/>
      <point x="24" y="334" type="curve"/>
      <point x="24" y="242" type="line"/>
      <point x="60" y="242"/>
      <point x="101" y="227"/>
      <point x="101" y="182" type="curve" smooth="yes"/>
      <point x="101" y="-11" type="line" smooth="yes"/>
      <point x="101" y="-137"/>
      <point x="195" y="-159"/>
      <point x="298" y="-159" type="curve"/>
      <point x="298" y="-82" type="line"/>
      <point x="262" y="-82"/>
      <point x="219" y="-72"/>
      <point x="219" y="-21" type="curve" smooth="yes"/>
      <point x="219" y="45"/>
      <point x="214" y="108"/>
      <point x="212" y="175" type="curve" smooth="yes"/>
      <point x="209" y="243"/>
      <point x="182" y="283"/>
      <point x="104" y="283" type="curve"/>
      <point x="104" y="293" type="line"/>
      <point x="182" y="293"/>
      <point x="210" y="333"/>
      <point x="212" y="401" type="curve" smooth="yes"/>
      <point x="214" y="468"/>
      <point x="219" y="531"/>
      <point x="219" y="597" type="curve" smooth="yes"/>
      <point x="219" y="648"/>
      <point x="263" y="658"/>
      <point x="298" y="658" type="curve"/>
    </contour>
  </outline>
</glyph>
<glyph name="bar" format="1">
  <advance width="230"/>
  <unicode hex="007C"/>
  <outline>
    <contour>
      <point x="160" y="723" type="line"/>
      <point x="70" y="723" type="line"/>
      <point x="70" y="-173" type="line"/>
      <point x="160" y="-173" type="line"/>
    </contour>
  </outline>
</glyph>
<glyph name="braceright" format="1">
  <advance width="319"/>
  <unicode hex="007D"/>
  <outline>
    <contour>
      <point x="21" y="658" type="line"/>
      <point x="56" y="658"/>
      <point x="100" y="648"/>
      <point x="100" y="597" type="curve" smooth="yes"/>
      <point x="100" y="531"/>
      <point x="105" y="468"/>
      <point x="107" y="401" type="curve" smooth="yes"/>
      <point x="109" y="333"/>
      <point x="137" y="293"/>
      <point x="215" y="293" type="curve"/>
      <point x="215" y="283" type="line"/>
      <point x="137" y="283"/>
      <point x="110" y="243"/>
      <point x="107" y="175" type="curve" smooth="yes"/>
      <point x="105" y="108"/>
      <point x="100" y="45"/>
      <point x="100" y="-21" type="curve" smooth="yes"/>
      <point x="100" y="-72"/>
      <point x="57" y="-82"/>
      <point x="21" y="-82" type="curve"/>
      <point x="21" y="-159" type="line"/>
      <point x="124" y="-159"/>
      <point x="218" y="-137"/>
      <point x="218" y="-11" type="curve" smooth="yes"/>
      <point x="218" y="182" type="line" smooth="yes"/>
      <point x="218" y="227"/>
      <point x="259" y="242"/>
      <point x="295" y="242" type="curve"/>
      <point x="295" y="334" type="line"/>
      <point x="259" y="334"/>
      <point x="218" y="349"/>
      <point x="218" y="394" type="curve" smooth="yes"/>
      <point x="218" y="587" type="line" smooth="yes"/>
      <point x="218" y="713"/>
      <point x="124" y="735"/>
      <point x="21" y="735" type="curve"/>
    </contour>
  </outline>
</glyph>
<glyph name="asciitilde" format="1">
  <advance width="479"/>
  <unicode hex="007E"/>
  <outline>
    <contour>
      <point x="452" y="402" type="line"/>
      <point x="452" y="402"/>
      <point x="401" y="329"/>
      <point x="329" y="329" type="curve" smooth="yes"/>
      <point x="263" y="329"/>
      <point x="214" y="390"/>
      <point x="150" y="390" type="curve" smooth="yes"/>
      <point x="68" y="390"/>
      <point x="27" y="317"/>
      <point x="27" y="317" type="curve"/>
      <point x="27" y="197" type="line"/>
      <point x="27" y="197"/>
      <point x="78" y="270"/>
      <point x="150" y="270" type="curve" smooth="yes"/>
      <point x="216" y="270"/>
      <point x="265" y="209"/>
      <point x="329" y="209" type="curve" smooth="yes"/>
      <point x="411" y="209"/>
      <point x="452" y="282"/>
      <point x="452" y="282" type="curve"/>
    </contour>
  </outline>
</glyph>
<glyph name="exclamdown" format="1">
  <advance width="273"/>
  <unicode hex="00A1"/>
  <outline>
    <contour>
      <point x="177" y="329" type="line"/>
      <point x="95" y="329" type="line"/>
      <point x="60" y="-160" type="line"/>
      <point x="213" y="-160" type="line"/>
    </contour>
    <contour>
      <point x="206" y="526" type="line"/>
      <point x="68" y="526" type="line"/>
      <point x="68" y="389" type="line"/>
      <point x="206" y="389" type="line"/>
    </contour>
  </outline>
</glyph>
<glyph name="cent" format="1">
  <advance width="456"/>
  <unicode hex="00A2"/>
  <outline>
    <contour>
      <point x="262" y="723" type="line"/>
      <point x="207" y="723" type="line"/>
      <point x="207" y="616" type="line"/>
      <point x="96" y="604"/>
      <point x="41" y="517"/>
      <point x="41" y="343" type="curve" smooth="yes"/>
      <point x="41" y="170"/>
      <point x="93" y="83"/>
      <point x="207" y="70" type="curve"/>
      <point x="207" y="-49" type="line"/>
      <point x="262" y="-49" type="line"/>
      <point x="262" y="69" type="line"/>
      <point x="359" y="77"/>
      <point x="420" y="141"/>
      <point x="420" y="278" type="curve"/>
      <point x="313" y="278" type="line"/>
      <point x="313" y="215"/>
      <point x="297" y="178"/>
      <point x="262" y="168" type="curve"/>
      <point x="262" y="516" type="line"/>
      <point x="293" y="505"/>
      <point x="309" y="469"/>
      <point x="309" y="408" type="curve"/>
      <point x="420" y="408" type="line"/>
      <point x="420" y="543"/>
      <point x="359" y="607"/>
      <point x="262" y="617" type="curve"/>
    </contour>
    <contour>
      <point x="207" y="172" type="line"/>
      <point x="170" y="189"/>
      <point x="154" y="241"/>
      <point x="154" y="324" type="curve"/>
      <point x="154" y="362" type="line" smooth="yes"/>
      <point x="154" y="446"/>
      <point x="169" y="499"/>
      <point x="207" y="515" type="curve"/>
    </contour>
  </outline>
</glyph>
<glyph name="sterling" format="1">
  <advance width="456"/>
  <unicode hex="00A3"/>
  <outline>
    <contour>
      <point x="252" y="698" type="curve" smooth="yes"/>
      <point x="139" y="698"/>
      <point x="71" y="632"/>
      <point x="71" y="499" type="curve" smooth="yes"/>
      <point x="71" y="389" type="line"/>
      <point x="9" y="389" type="line"/>
      <point x="9" y="288" type="line"/>
      <point x="71" y="288" type="line"/>
      <point x="71" y="108" type="line"/>
      <point x="20" y="108" type="line"/>
      <point x="20" y="0" type="line"/>
      <point x="426" y="0" type="line"/>
      <point x="426" y="108" type="line"/>
      <point x="180" y="108" type="line"/>
      <point x="191" y="288" type="line"/>
      <point x="312" y="288" type="line"/>
      <point x="312" y="389" type="line"/>
      <point x="192" y="389" type="line"/>
      <point x="192" y="525" type="line" smooth="yes"/>
      <point x="192" y="573"/>
      <point x="215" y="597"/>
      <point x="252" y="597" type="curve" smooth="yes"/>
      <point x="290" y="597"/>
      <point x="314" y="570"/>
      <point x="314" y="517" type="curve" smooth="yes"/>
      <point x="314" y="491" type="line"/>
      <point x="433" y="491" type="line"/>
      <point x="433" y="504" type="line" smooth="yes"/>
      <point x="433" y="633"/>
      <point x="362" y="698"/>
    </contour>
  </outline>
</glyph>
<glyph name="currency" format="1">
  <advance width="456"/>
  <unicode hex="00A4"/>
  <outline>
    <contour>
      <point x="228" y="577" type="curve" smooth="yes"/>
      <point x="180" y="577"/>
      <point x="137" y="558"/>
      <point x="102" y="528" type="curve"/>
      <point x="60" y="570" type="line"/>
      <point x="0" y="508" type="line"/>
      <point x="49" y="458" type="line"/>
      <point x="31" y="423"/>
      <point x="22" y="384"/>
      <point x="22" y="342" type="curve" smooth="yes"/>
      <point x="22" y="299"/>
      <point x="32" y="258"/>
      <point x="50" y="224" type="curve"/>
      <point x="0" y="174" type="line"/>
      <point x="61" y="113" type="line"/>
      <point x="103" y="155" type="line"/>
      <point x="138" y="126"/>
      <point x="181" y="108"/>
      <point x="228" y="108" type="curve" smooth="yes"/>
      <point x="274" y="108"/>
      <point x="317" y="126"/>
      <point x="352" y="155" type="curve"/>
      <point x="394" y="113" type="line"/>
      <point x="455" y="174" type="line"/>
      <point x="405" y="223" type="line"/>
      <point x="423" y="258"/>
      <point x="434" y="298"/>
      <point x="434" y="342" type="curve" smooth="yes"/>
      <point x="434" y="385"/>
      <point x="424" y="424"/>
      <point x="406" y="459" type="curve"/>
      <point x="455" y="508" type="line"/>
      <point x="395" y="570" type="line"/>
      <point x="353" y="528" type="line"/>
      <point x="318" y="558"/>
      <point x="274" y="577"/>
    </contour>
    <contour>
      <point x="228" y="487" type="curve" smooth="yes"/>
      <point x="294" y="487"/>
      <point x="349" y="423"/>
      <point x="349" y="342" type="curve" smooth="yes"/>
      <point x="349" y="262"/>
      <point x="294" y="198"/>
      <point x="228" y="198" type="curve" smooth="yes"/>
      <point x="161" y="198"/>
      <point x="106" y="262"/>
      <point x="106" y="342" type="curve" smooth="yes"/>
      <point x="106" y="423"/>
      <point x="161" y="487"/>
    </contour>
  </outline>
</glyph>
<glyph name="yen" format="1">
  <advance width="456"/>
  <unicode hex="00A5"/>
  <outline>
    <contour>
      <point x="451" y="686" type="line"/>
      <point x="326" y="686" type="line"/>
      <point x="233" y="423" type="line"/>
      <point x="229" y="423" type="line"/>
      <point x="135" y="686" type="line"/>
      <point x="4" y="686" type="line"/>
      <point x="133" y="385" type="line"/>
      <point x="28" y="385" type="line"/>
      <point x="28" y="304" type="line"/>
      <point x="167" y="304" type="line"/>
      <point x="167" y="234" type="line"/>
      <point x="28" y="234" type="line"/>
      <point x="28" y="153" type="line"/>
      <point x="168" y="153" type="line"/>
      <point x="168" y="0" type="line"/>
      <point x="288" y="0" type="line"/>
      <point x="288" y="153" type="line"/>
      <point x="428" y="153" type="line"/>
      <point x="428" y="234" type="line"/>
      <point x="288" y="234" type="line"/>
      <point x="288" y="303" type="line"/>
      <point x="428" y="303" type="line"/>
      <point x="428" y="385" type="line"/>
      <point x="323" y="385" type="line"/>
    </contour>
  </outline>
</glyph>
<glyph name="brokenbar" format="1">
  <advance width="230"/>
  <unicode hex="00A6"/>
  <outline>
    <contour>
      <point x="160" y="723" type="line"/>
      <point x="70" y="723" type="line"/>
      <point x="70" y="351" type="line"/>
      <point x="160" y="351" type="line"/>
    </contour>
    <contour>
      <point x="160" y="199" type="line"/>
      <point x="70" y="199" type="line"/>
      <point x="70" y="-173" type="line"/>
      <point x="160" y="-173" type="line"/>
    </contour>
  </outline>
</glyph>
<glyph name="section" format="1">
  <advance width="456"/>
  <unicode hex="00A7"/>
  <outline>
    <contour>
      <point x="239" y="698" type="curve" smooth="yes"/>
      <point x="132" y="698"/>
      <point x="51" y="645"/>
      <point x="51" y="538" type="curve" smooth="yes"/>
      <point x="51" y="479"/>
      <point x="72" y="440"/>
      <point x="102" y="411" type="curve"/>
      <point x="60" y="374"/>
      <point x="37" y="321"/>
      <point x="37" y="268" type="curve" smooth="yes"/>
      <point x="37" y="67"/>
      <point x="295" y="102"/>
      <point x="295" y="-32" type="curve" smooth="yes"/>
      <point x="295" y="-64"/>
      <point x="270" y="-84"/>
      <point x="233" y="-84" type="curve" smooth="yes"/>
      <point x="197" y="-84"/>
      <point x="174" y="-63"/>
      <point x="174" y="-16" type="curve"/>
      <point x="52" y="-16" type="line"/>
      <point x="52" y="-17"/>
      <point x="51" y="-28"/>
      <point x="51" y="-39" type="curve" smooth="yes"/>
      <point x="51" y="-129"/>
      <point x="129" y="-182"/>
      <point x="229" y="-182" type="curve" smooth="yes"/>
      <point x="336" y="-182"/>
      <point x="417" y="-129"/>
      <point x="417" y="-22" type="curve" smooth="yes"/>
      <point x="417" y="36"/>
      <point x="396" y="75"/>
      <point x="366" y="105" type="curve"/>
      <point x="408" y="141"/>
      <point x="431" y="194"/>
      <point x="431" y="248" type="curve" smooth="yes"/>
      <point x="431" y="449"/>
      <point x="173" y="414"/>
      <point x="173" y="548" type="curve" smooth="yes"/>
      <point x="173" y="580"/>
      <point x="198" y="600"/>
      <point x="235" y="600" type="curve" smooth="yes"/>
      <point x="271" y="600"/>
      <point x="294" y="579"/>
      <point x="294" y="532" type="curve"/>
      <point x="416" y="532" type="line"/>
      <point x="416" y="533"/>
      <point x="417" y="544"/>
      <point x="417" y="555" type="curve" smooth="yes"/>
      <point x="417" y="645"/>
      <point x="339" y="698"/>
    </contour>
    <contour>
      <point x="176" y="359" type="curve"/>
      <point x="243" y="321"/>
      <point x="313" y="293"/>
      <point x="313" y="213" type="curve" smooth="yes"/>
      <point x="313" y="192"/>
      <point x="304" y="172"/>
      <point x="291" y="156" type="curve"/>
      <point x="224" y="194"/>
      <point x="155" y="223"/>
      <point x="155" y="303" type="curve" smooth="yes"/>
      <point x="155" y="323"/>
      <point x="164" y="343"/>
    </contour>
  </outline>
</glyph>
<glyph name="dieresis" format="1">
  <advance width="273"/>
  <unicode hex="00A8"/>
  <outline>
    <contour>
      <point x="274" y="723" type="line"/>
      <point x="174" y="723" type="line"/>
      <point x="174" y="614" type="line"/>
      <point x="274" y="614" type="line"/>
    </contour>
    <contour>
      <point x="99" y="723" type="line"/>
      <point x="-1" y="723" type="line"/>
      <point x="-1" y="614" type="line"/>
      <point x="99" y="614" type="line"/>
    </contour>
    <contour>
      <point x="137" y="526" type="move" name="_top"/>
    </contour>
  </outline>
</glyph>
<glyph name="ordfeminine" format="1">
  <advance width="303"/>
  <unicode hex="00AA"/>
  <outline>
    <contour>
      <point x="151" y="734" type="curve" smooth="yes"/>
      <point x="78" y="734"/>
      <point x="31" y="695"/>
      <point x="31" y="635" type="curve" smooth="yes"/>
      <point x="31" y="629"/>
      <point x="31" y="625"/>
      <point x="32" y="621" type="curve"/>
      <point x="115" y="621" type="line"/>
      <point x="115" y="631" type="line" smooth="yes"/>
      <point x="115" y="646"/>
      <point x="123" y="664"/>
      <point x="153" y="664" type="curve" smooth="yes"/>
      <point x="181" y="664"/>
      <point x="186" y="646"/>
      <point x="186" y="624" type="curve" smooth="yes"/>
      <point x="186" y="587" type="line"/>
      <point x="85" y="587"/>
      <point x="14" y="558"/>
      <point x="14" y="463" type="curve" smooth="yes"/>
      <point x="14" y="380"/>
      <point x="70" y="363"/>
      <point x="103" y="363" type="curve" smooth="yes"/>
      <point x="150" y="363"/>
      <point x="173" y="381"/>
      <point x="193" y="409" type="curve"/>
      <point x="197" y="409" type="line"/>
      <point x="205" y="382"/>
      <point x="227" y="363"/>
      <point x="259" y="363" type="curve" smooth="yes"/>
      <point x="283" y="363"/>
      <point x="298" y="369"/>
      <point x="307" y="373" type="curve"/>
      <point x="307" y="435" type="line"/>
      <point x="291" y="435" type="line" smooth="yes"/>
      <point x="281" y="435"/>
      <point x="272" y="442"/>
      <point x="272" y="459" type="curve" smooth="yes"/>
      <point x="272" y="629" type="line" smooth="yes"/>
      <point x="272" y="696"/>
      <point x="233" y="734"/>
    </contour>
    <contour>
      <point x="186" y="508" type="line"/>
      <point x="186" y="468"/>
      <point x="172" y="434"/>
      <point x="137" y="434" type="curve" smooth="yes"/>
      <point x="112" y="434"/>
      <point x="101" y="448"/>
      <point x="101" y="470" type="curve" smooth="yes"/>
      <point x="101" y="516"/>
      <point x="143" y="528"/>
      <point x="186" y="528" type="curve"/>
    </contour>
  </outline>
</glyph>
<glyph name="guillemotleft" format="1">
  <advance width="456"/>
  <unicode hex="00AB"/>
  <outline>
    <contour>
      <point x="429" y="526" type="line"/>
      <point x="338" y="526" type="line"/>
      <point x="202" y="326" type="line"/>
      <point x="338" y="126" type="line"/>
      <point x="429" y="126" type="line"/>
      <point x="321" y="326" type="line"/>
    </contour>
    <contour>
      <point x="246" y="526" type="line"/>
      <point x="155" y="526" type="line"/>
      <point x="19" y="326" type="line"/>
      <point x="155" y="126" type="line"/>
      <point x="246" y="126" type="line"/>
      <point x="138" y="326" type="line"/>
    </contour>
  </outline>
</glyph>
<glyph name="logicalnot" format="1">
  <advance width="479"/>
  <unicode hex="00AC"/>
  <outline>
    <contour>
      <point x="445" y="463" type="line"/>
      <point x="29" y="463" type="line"/>
      <point x="29" y="350" type="line"/>
      <point x="341" y="350" type="line"/>
      <point x="341" y="187" type="line"/>
      <point x="445" y="187" type="line"/>
    </contour>
  </outline>
</glyph>
<glyph name="registered" format="1">
  <advance width="604"/>
  <unicode hex="00AE"/>
  <outline>
    <contour>
      <point x="302" y="698" type="curve" smooth="yes"/>
      <point x="124" y="698"/>
      <point x="16" y="559"/>
      <point x="16" y="343" type="curve" smooth="yes"/>
      <point x="16" y="127"/>
      <point x="124" y="-12"/>
      <point x="302" y="-12" type="curve" smooth="yes"/>
      <point x="480" y="-12"/>
      <point x="588" y="127"/>
      <point x="588" y="343" type="curve" smooth="yes"/>
      <point x="588" y="559"/>
      <point x="480" y="698"/>
    </contour>
    <contour>
      <point x="302" y="643" type="curve" smooth="yes"/>
      <point x="445" y="643"/>
      <point x="532" y="526"/>
      <point x="532" y="343" type="curve" smooth="yes"/>
      <point x="532" y="160"/>
      <point x="445" y="43"/>
      <point x="302" y="43" type="curve" smooth="yes"/>
      <point x="159" y="43"/>
      <point x="72" y="160"/>
      <point x="72" y="343" type="curve" smooth="yes"/>
      <point x="72" y="526"/>
      <point x="159" y="643"/>
    </contour>
    <contour>
      <point x="174" y="546" type="line"/>
      <point x="174" y="140" type="line"/>
      <point x="260" y="140" type="line"/>
      <point x="260" y="305" type="line"/>
      <point x="296" y="305" type="line" smooth="yes"/>
      <point x="325" y="305"/>
      <point x="355" y="287"/>
      <point x="355" y="214" type="curve" smooth="yes"/>
      <point x="355" y="152"/>
      <point x="393" y="137"/>
      <point x="431" y="137" type="curve" smooth="yes"/>
      <point x="443" y="137"/>
      <point x="464" y="141"/>
      <point x="470" y="145" type="curve"/>
      <point x="470" y="165" type="line"/>
      <point x="452" y="171"/>
      <point x="441" y="187"/>
      <point x="441" y="237" type="curve" smooth="yes"/>
      <point x="441" y="315"/>
      <point x="402" y="338"/>
      <point x="382" y="345" type="curve"/>
      <point x="382" y="349" type="line"/>
      <point x="417" y="362"/>
      <point x="445" y="391"/>
      <point x="445" y="444" type="curve" smooth="yes"/>
      <point x="445" y="504"/>
      <point x="397" y="546"/>
      <point x="332" y="546" type="curve" smooth="yes"/>
    </contour>
    <contour>
      <point x="304" y="468" type="line"/>
      <point x="336" y="468"/>
      <point x="357" y="453"/>
      <point x="357" y="428" type="curve" smooth="yes"/>
      <point x="357" y="401"/>
      <point x="334" y="382"/>
      <point x="301" y="382" type="curve" smooth="yes"/>
      <point x="260" y="382" type="line"/>
      <point x="260" y="468" type="line"/>
    </contour>
  </outline>
</glyph>
<glyph name="macron" format="1">
  <advance width="273"/>
  <unicode hex="00AF"/>
  <outline>
    <contour>
      <point x="264" y="686" type="line"/>
      <point x="9" y="686" type="line"/>
      <point x="9" y="599" type="line"/>
      <point x="264" y="599" type="line"/>
    </contour>
    <contour>
      <point x="137" y="526" type="move" name="_top"/>
    </contour>
  </outline>
</glyph>
<glyph name="degree" format="1">
  <advance width="400"/>
  <unicode hex="00B0"/>
  <outline>
    <contour>
      <point x="198" y="698" type="curve" smooth="yes"/>
      <point x="119" y="698"/>
      <point x="56" y="635"/>
      <point x="56" y="556" type="curve" smooth="yes"/>
      <point x="56" y="477"/>
      <point x="119" y="414"/>
      <point x="198" y="414" type="curve" smooth="yes"/>
      <point x="277" y="414"/>
      <point x="340" y="477"/>
      <point x="340" y="556" type="curve" smooth="yes"/>
      <point x="340" y="635"/>
      <point x="277" y="698"/>
    </contour>
    <contour>
      <point x="198" y="629" type="curve" smooth="yes"/>
      <point x="239" y="629"/>
      <point x="271" y="597"/>
      <point x="271" y="556" type="curve" smooth="yes"/>
      <point x="271" y="515"/>
      <point x="239" y="482"/>
      <point x="198" y="482" type="curve" smooth="yes"/>
      <point x="157" y="482"/>
      <point x="124" y="515"/>
      <point x="124" y="556" type="curve" smooth="yes"/>
      <point x="124" y="597"/>
      <point x="157" y="629"/>
    </contour>
  </outline>
</glyph>
<glyph name="plusminus" format="1">
  <advance width="549"/>
  <unicode hex="00B1"/>
  <outline>
    <contour>
      <point x="325" y="595" type="line"/>
      <point x="222" y="595" type="line"/>
      <point x="222" y="421" type="line"/>
      <point x="68" y="421" type="line"/>
      <point x="68" y="317" type="line"/>
      <point x="222" y="317" type="line"/>
      <point x="222" y="144" type="line"/>
      <point x="325" y="144" type="line"/>
      <point x="325" y="317" type="line"/>
      <point x="480" y="317" type="line"/>
      <point x="480" y="421" type="line"/>
      <point x="325" y="421" type="line"/>
    </contour>
    <contour>
      <point x="480" y="103" type="line"/>
      <point x="68" y="103" type="line"/>
      <point x="68" y="0" type="line"/>
      <point x="480" y="0" type="line"/>
    </contour>
  </outline>
</glyph>
<glyph name="twosuperior" format="1">
  <advance width="273"/>
  <unicode hex="00B2"/>
  <outline>
    <contour>
      <point x="139" y="734" type="curve" smooth="yes"/>
      <point x="75" y="734"/>
      <point x="19" y="698"/>
      <point x="19" y="608" type="curve" smooth="yes"/>
      <point x="19" y="594"/>
      <point x="22" y="581"/>
      <point x="22" y="581" type="curve"/>
      <point x="101" y="581" type="line"/>
      <point x="101" y="609" type="line" smooth="yes"/>
      <point x="101" y="639"/>
      <point x="112" y="664"/>
      <point x="136" y="664" type="curve" smooth="yes"/>
      <point x="161" y="664"/>
      <point x="168" y="644"/>
      <point x="168" y="627" type="curve" smooth="yes"/>
      <point x="168" y="576"/>
      <point x="133" y="536"/>
      <point x="91" y="489" type="curve" smooth="yes"/>
      <point x="54" y="446"/>
      <point x="15" y="402"/>
      <point x="15" y="338" type="curve" smooth="yes"/>
      <point x="15" y="320" type="line"/>
      <point x="253" y="320" type="line"/>
      <point x="253" y="394" type="line"/>
      <point x="115" y="394" type="line"/>
      <point x="165" y="470"/>
      <point x="251" y="529"/>
      <point x="251" y="626" type="curve" smooth="yes"/>
      <point x="251" y="703"/>
      <point x="201" y="734"/>
    </contour>
  </outline>
</glyph>
<glyph name="threesuperior" format="1">
  <advance width="273"/>
  <unicode hex="00B3"/>
  <outline>
    <contour>
      <point x="135" y="734" type="curve" smooth="yes"/>
      <point x="68" y="734"/>
      <point x="21" y="689"/>
      <point x="21" y="620" type="curve"/>
      <point x="21" y="599" type="line"/>
      <point x="103" y="599" type="line"/>
      <point x="103" y="615" type="line"/>
      <point x="103" y="649"/>
      <point x="115" y="665"/>
      <point x="136" y="665" type="curve" smooth="yes"/>
      <point x="155" y="665"/>
      <point x="167" y="651"/>
      <point x="167" y="617" type="curve" smooth="yes"/>
      <point x="167" y="579"/>
      <point x="151" y="560"/>
      <point x="133" y="560" type="curve"/>
      <point x="107" y="560" type="line"/>
      <point x="107" y="493" type="line"/>
      <point x="132" y="493" type="line"/>
      <point x="153" y="493"/>
      <point x="174" y="481"/>
      <point x="174" y="435" type="curve" smooth="yes"/>
      <point x="174" y="397"/>
      <point x="158" y="381"/>
      <point x="136" y="381" type="curve" smooth="yes"/>
      <point x="109" y="381"/>
      <point x="96" y="400"/>
      <point x="96" y="435" type="curve"/>
      <point x="96" y="452" type="line"/>
      <point x="14" y="452" type="line"/>
      <point x="14" y="437" type="line"/>
      <point x="14" y="361"/>
      <point x="58" y="312"/>
      <point x="137" y="312" type="curve" smooth="yes"/>
      <point x="207" y="312"/>
      <point x="256" y="357"/>
      <point x="256" y="431" type="curve" smooth="yes"/>
      <point x="256" y="481"/>
      <point x="231" y="514"/>
      <point x="199" y="530" type="curve"/>
      <point x="229" y="550"/>
      <point x="250" y="575"/>
      <point x="250" y="620" type="curve" smooth="yes"/>
      <point x="250" y="694"/>
      <point x="203" y="734"/>
    </contour>
  </outline>
</glyph>
<glyph name="acute" format="1">
  <advance width="273"/>
  <unicode hex="00B4"/>
  <outline>
    <contour>
      <point x="254" y="723" type="line"/>
      <point x="134" y="723" type="line"/>
      <point x="48" y="591" type="line"/>
      <point x="147" y="591" type="line"/>
      <point x="255" y="720" type="line"/>
    </contour>
    <contour>
      <point x="117" y="526" type="move" name="_top"/>
    </contour>
  </outline>
</glyph>
<glyph name="mu" format="1">
  <advance width="501"/>
  <unicode hex="00B5"/>
  <outline>
    <contour>
      <point x="446" y="526" type="line"/>
      <point x="326" y="526" type="line"/>
      <point x="326" y="200" type="line" smooth="yes"/>
      <point x="326" y="141"/>
      <point x="291" y="97"/>
      <point x="244" y="97" type="curve" smooth="yes"/>
      <point x="199" y="97"/>
      <point x="175" y="122"/>
      <point x="175" y="190" type="curve" smooth="yes"/>
      <point x="175" y="526" type="line"/>
      <point x="55" y="526" type="line"/>
      <point x="55" y="-173" type="line"/>
      <point x="175" y="-173" type="line"/>
      <point x="175" y="-4" type="line"/>
      <point x="187" y="-9"/>
      <point x="201" y="-12"/>
      <point x="215" y="-12" type="curve" smooth="yes"/>
      <point x="268" y="-12"/>
      <point x="305" y="24"/>
      <point x="328" y="65" type="curve"/>
      <point x="334" y="65" type="line"/>
      <point x="346" y="0" type="line"/>
      <point x="446" y="0" type="line"/>
    </contour>
  </outline>
</glyph>
<glyph name="paragraph" format="1">
  <advance width="456"/>
  <unicode hex="00B6"/>
  <outline>
    <contour>
      <point x="449" y="686" type="line"/>
      <point x="210" y="686" type="line" smooth="yes"/>
      <point x="103" y="686"/>
      <point x="18" y="588"/>
      <point x="18" y="467" type="curve" smooth="yes"/>
      <point x="18" y="354"/>
      <point x="91" y="263"/>
      <point x="187" y="250" type="curve"/>
      <point x="187" y="-173" type="line"/>
      <point x="267" y="-173" type="line"/>
      <point x="267" y="610" type="line"/>
      <point x="320" y="610" type="line"/>
      <point x="320" y="-173" type="line"/>
      <point x="401" y="-173" type="line"/>
      <point x="401" y="610" type="line"/>
      <point x="449" y="610" type="line"/>
    </contour>
  </outline>
</glyph>
<glyph name="periodcentered" format="1">
  <advance width="228"/>
  <unicode hex="00B7"/>
  <outline>
    <contour>
      <point x="174" y="409" type="line"/>
      <point x="53" y="409" type="line"/>
      <point x="53" y="278" type="line"/>
      <point x="174" y="278" type="line"/>
    </contour>
  </outline>
</glyph>
<glyph name="cedilla" format="1">
  <advance width="273"/>
  <unicode hex="00B8"/>
  <outline>
    <contour>
      <point x="155" y="11" type="line"/>
      <point x="87" y="11" type="line"/>
      <point x="76" y="-77" type="line"/>
      <point x="109" y="-77" type="line" smooth="yes"/>
      <point x="135" y="-77"/>
      <point x="143" y="-85"/>
      <point x="143" y="-101" type="curve" smooth="yes"/>
      <point x="143" y="-120"/>
      <point x="129" y="-125"/>
      <point x="107" y="-125" type="curve"/>
      <point x="36" y="-125" type="line"/>
      <point x="36" y="-174" type="line"/>
      <point x="60" y="-179"/>
      <point x="92" y="-182"/>
      <point x="120" y="-182" type="curve" smooth="yes"/>
      <point x="163" y="-182"/>
      <point x="229" y="-168"/>
      <point x="229" y="-101" type="curve" smooth="yes"/>
      <point x="229" y="-55"/>
      <point x="193" y="-36"/>
      <point x="150" y="-33" type="curve"/>
    </contour>
    <contour>
      <point x="133" y="0" type="move" name="_bottom"/>
    </contour>
  </outline>
</glyph>
<glyph name="onesuperior" format="1">
  <advance width="273"/>
  <unicode hex="00B9"/>
  <outline>
    <contour>
      <point x="187" y="723" type="line"/>
      <point x="147" y="723" type="line"/>
      <point x="114" y="701"/>
      <point x="62" y="682"/>
      <point x="32" y="678" type="curve"/>
      <point x="32" y="622" type="line"/>
      <point x="107" y="622" type="line"/>
      <point x="107" y="389" type="line"/>
      <point x="33" y="389" type="line"/>
      <point x="33" y="320" type="line"/>
      <point x="253" y="320" type="line"/>
      <point x="253" y="389" type="line"/>
      <point x="187" y="389" type="line"/>
    </contour>
  </outline>
</glyph>
<glyph name="ordmasculine" format="1">
  <advance width="299"/>
  <unicode hex="00BA"/>
  <outline>
    <contour>
      <point x="152" y="734" type="curve" smooth="yes"/>
      <point x="57" y="734"/>
      <point x="10" y="676"/>
      <point x="10" y="548" type="curve" smooth="yes"/>
      <point x="10" y="420"/>
      <point x="57" y="362"/>
      <point x="152" y="362" type="curve" smooth="yes"/>
      <point x="247" y="362"/>
      <point x="294" y="420"/>
      <point x="294" y="548" type="curve" smooth="yes"/>
      <point x="294" y="676"/>
      <point x="247" y="734"/>
    </contour>
    <contour>
      <point x="152" y="661" type="curve" smooth="yes"/>
      <point x="191" y="661"/>
      <point x="205" y="626"/>
      <point x="205" y="561" type="curve" smooth="yes"/>
      <point x="205" y="535" type="line"/>
      <point x="205" y="470"/>
      <point x="191" y="435"/>
      <point x="152" y="435" type="curve" smooth="yes"/>
      <point x="113" y="435"/>
      <point x="99" y="470"/>
      <point x="99" y="535" type="curve" smooth="yes"/>
      <point x="99" y="561" type="line" smooth="yes"/>
      <point x="99" y="626"/>
      <point x="113" y="661"/>
    </contour>
  </outline>
</glyph>
<glyph name="guillemotright" format="1">
  <advance width="456"/>
  <unicode hex="00BB"/>
  <outline>
    <contour>
      <point x="301" y="526" type="line"/>
      <point x="210" y="526" type="line"/>
      <point x="318" y="326" type="line"/>
      <point x="210" y="126" type="line"/>
      <point x="301" y="126" type="line"/>
      <point x="437" y="326" type="line"/>
    </contour>
    <contour>
      <point x="118" y="526" type="line"/>
      <point x="27" y="526" type="line"/>
      <point x="135" y="326" type="line"/>
      <point x="27" y="126" type="line"/>
      <point x="118" y="126" type="line"/>
      <point x="254" y="326" type="line"/>
    </contour>
  </outline>
</glyph>
<glyph name="onequarter" format="1">
  <advance width="684"/>
  <unicode hex="00BC"/>
  <outline>
    <contour>
      <point x="592" y="698" type="line"/>
      <point x="526" y="698" type="line"/>
      <point x="130" y="-12" type="line"/>
      <point x="197" y="-12" type="line"/>
    </contour>
    <contour>
      <point x="187" y="686" type="line"/>
      <point x="147" y="686" type="line"/>
      <point x="114" y="664"/>
      <point x="62" y="645"/>
      <point x="32" y="641" type="curve"/>
      <point x="32" y="585" type="line"/>
      <point x="107" y="585" type="line"/>
      <point x="107" y="352" type="line"/>
      <point x="33" y="352" type="line"/>
      <point x="33" y="283" type="line"/>
      <point x="253" y="283" type="line"/>
      <point x="253" y="352" type="line"/>
      <point x="187" y="352" type="line"/>
    </contour>
    <contour>
      <point x="499" y="414" type="line"/>
      <point x="474" y="323"/>
      <point x="438" y="223"/>
      <point x="397" y="150" type="curve"/>
      <point x="397" y="89" type="line"/>
      <point x="540" y="89" type="line"/>
      <point x="540" y="0" type="line"/>
      <point x="619" y="0" type="line"/>
      <point x="619" y="89" type="line"/>
      <point x="661" y="89" type="line"/>
      <point x="661" y="158" type="line"/>
      <point x="619" y="158" type="line"/>
      <point x="619" y="326" type="line"/>
      <point x="592" y="326" type="line"/>
      <point x="583" y="293"/>
      <point x="556" y="225"/>
      <point x="540" y="195" type="curve"/>
      <point x="540" y="158" type="line"/>
      <point x="472" y="158" type="line"/>
      <point x="498" y="197"/>
      <point x="556" y="312"/>
      <point x="578" y="414" type="curve"/>
    </contour>
  </outline>
</glyph>
<glyph name="onehalf" format="1">
  <advance width="684"/>
  <unicode hex="00BD"/>
  <outline>
    <contour>
      <point x="587" y="698" type="line"/>
      <point x="521" y="698" type="line"/>
      <point x="125" y="-12" type="line"/>
      <point x="192" y="-12" type="line"/>
    </contour>
    <contour>
      <point x="187" y="686" type="line"/>
      <point x="147" y="686" type="line"/>
      <point x="114" y="664"/>
      <point x="62" y="645"/>
      <point x="32" y="641" type="curve"/>
      <point x="32" y="585" type="line"/>
      <point x="107" y="585" type="line"/>
      <point x="107" y="352" type="line"/>
      <point x="33" y="352" type="line"/>
      <point x="33" y="283" type="line"/>
      <point x="253" y="283" type="line"/>
      <point x="253" y="352" type="line"/>
      <point x="187" y="352" type="line"/>
    </contour>
    <contour>
      <point x="549" y="414" type="curve" smooth="yes"/>
      <point x="485" y="414"/>
      <point x="429" y="378"/>
      <point x="429" y="288" type="curve" smooth="yes"/>
      <point x="429" y="274"/>
      <point x="432" y="261"/>
      <point x="432" y="261" type="curve"/>
      <point x="511" y="261" type="line"/>
      <point x="511" y="289" type="line" smooth="yes"/>
      <point x="511" y="319"/>
      <point x="522" y="344"/>
      <point x="546" y="344" type="curve" smooth="yes"/>
      <point x="571" y="344"/>
      <point x="578" y="324"/>
      <point x="578" y="307" type="curve" smooth="yes"/>
      <point x="578" y="256"/>
      <point x="543" y="216"/>
      <point x="501" y="169" type="curve" smooth="yes"/>
      <point x="464" y="126"/>
      <point x="425" y="82"/>
      <point x="425" y="18" type="curve" smooth="yes"/>
      <point x="425" y="0" type="line"/>
      <point x="663" y="0" type="line"/>
      <point x="663" y="74" type="line"/>
      <point x="525" y="74" type="line"/>
      <point x="575" y="150"/>
      <point x="661" y="209"/>
      <point x="661" y="306" type="curve" smooth="yes"/>
      <point x="661" y="383"/>
      <point x="611" y="414"/>
    </contour>
  </outline>
</glyph>
<glyph name="threequarters" format="1">
  <advance width="684"/>
  <unicode hex="00BE"/>
  <outline>
    <contour>
      <point x="588" y="698" type="line"/>
      <point x="522" y="698" type="line"/>
      <point x="126" y="-12" type="line"/>
      <point x="193" y="-12" type="line"/>
    </contour>
    <contour>
      <point x="150" y="698" type="curve" smooth="yes"/>
      <point x="83" y="698"/>
      <point x="36" y="653"/>
      <point x="36" y="584" type="curve"/>
      <point x="36" y="563" type="line"/>
      <point x="118" y="563" type="line"/>
      <point x="118" y="579" type="line"/>
      <point x="118" y="613"/>
      <point x="130" y="629"/>
      <point x="151" y="629" type="curve" smooth="yes"/>
      <point x="170" y="629"/>
      <point x="182" y="615"/>
      <point x="182" y="581" type="curve" smooth="yes"/>
      <point x="182" y="543"/>
      <point x="166" y="524"/>
      <point x="148" y="524" type="curve"/>
      <point x="122" y="524" type="line"/>
      <point x="122" y="457" type="line"/>
      <point x="147" y="457" type="line"/>
      <point x="168" y="457"/>
      <point x="189" y="445"/>
      <point x="189" y="399" type="curve" smooth="yes"/>
      <point x="189" y="361"/>
      <point x="173" y="345"/>
      <point x="151" y="345" type="curve" smooth="yes"/>
      <point x="124" y="345"/>
      <point x="111" y="364"/>
      <point x="111" y="399" type="curve"/>
      <point x="111" y="416" type="line"/>
      <point x="29" y="416" type="line"/>
      <point x="29" y="401" type="line"/>
      <point x="29" y="325"/>
      <point x="73" y="276"/>
      <point x="152" y="276" type="curve" smooth="yes"/>
      <point x="222" y="276"/>
      <point x="271" y="321"/>
      <point x="271" y="395" type="curve" smooth="yes"/>
      <point x="271" y="445"/>
      <point x="246" y="478"/>
      <point x="214" y="494" type="curve"/>
      <point x="244" y="514"/>
      <point x="265" y="539"/>
      <point x="265" y="584" type="curve" smooth="yes"/>
      <point x="265" y="658"/>
      <point x="218" y="698"/>
    </contour>
    <contour>
      <point x="496" y="414" type="line"/>
      <point x="471" y="323"/>
      <point x="435" y="223"/>
      <point x="394" y="150" type="curve"/>
      <point x="394" y="89" type="line"/>
      <point x="537" y="89" type="line"/>
      <point x="537" y="0" type="line"/>
      <point x="616" y="0" type="line"/>
      <point x="616" y="89" type="line"/>
      <point x="658" y="89" type="line"/>
      <point x="658" y="158" type="line"/>
      <point x="616" y="158" type="line"/>
      <point x="616" y="326" type="line"/>
      <point x="589" y="326" type="line"/>
      <point x="580" y="293"/>
      <point x="553" y="225"/>
      <point x="537" y="195" type="curve"/>
      <point x="537" y="158" type="line"/>
      <point x="469" y="158" type="line"/>
      <point x="495" y="197"/>
      <point x="553" y="312"/>
      <point x="575" y="414" type="curve"/>
    </contour>
  </outline>
</glyph>
<glyph name="questiondown" format="1">
  <advance width="501"/>
  <unicode hex="00BF"/>
  <outline>
    <contour>
      <point x="299" y="329" type="line"/>
      <point x="173" y="329" type="line"/>
      <point x="173" y="301" type="line" smooth="yes"/>
      <point x="173" y="184"/>
      <point x="48" y="183"/>
      <point x="48" y="6" type="curve" smooth="yes"/>
      <point x="48" y="-99"/>
      <point x="122" y="-172"/>
      <point x="241" y="-172" type="curve" smooth="yes"/>
      <point x="384" y="-172"/>
      <point x="454" y="-80"/>
      <point x="454" y="32" type="curve" smooth="yes"/>
      <point x="454" y="44"/>
      <point x="451" y="67"/>
      <point x="451" y="67" type="curve"/>
      <point x="325" y="67" type="line"/>
      <point x="325" y="67"/>
      <point x="326" y="56"/>
      <point x="326" y="40" type="curve" smooth="yes"/>
      <point x="326" y="3"/>
      <point x="316" y="-65"/>
      <point x="249" y="-65" type="curve" smooth="yes"/>
      <point x="187" y="-65"/>
      <point x="179" y="-3"/>
      <point x="179" y="17" type="curve" smooth="yes"/>
      <point x="179" y="146"/>
      <point x="299" y="166"/>
      <point x="299" y="286" type="curve" smooth="yes"/>
    </contour>
    <contour>
      <point x="304" y="526" type="line"/>
      <point x="166" y="526" type="line"/>
      <point x="166" y="389" type="line"/>
      <point x="304" y="389" type="line"/>
    </contour>
  </outline>
</glyph>
<glyph name="Agrave" format="1">
  <advance width="592"/>
  <unicode hex="00C0"/>
  <outline>
    <contour>
      <point x="370" y="686" type="line"/>
      <point x="221" y="686" type="line"/>
      <point x="0" y="0" type="line"/>
      <point x="124" y="0" type="line"/>
      <point x="165" y="135" type="line"/>
      <point x="418" y="135" type="line"/>
      <point x="460" y="0" type="line"/>
      <point x="591" y="0" type="line"/>
    </contour>
    <contour>
      <point x="294" y="571" type="line"/>
      <point x="294" y="571"/>
      <point x="303" y="514"/>
      <point x="314" y="478" type="curve" smooth="yes"/>
      <point x="383" y="249" type="line"/>
      <point x="200" y="249" type="line"/>
      <point x="270" y="478" type="line" smooth="yes"/>
      <point x="280" y="510"/>
      <point x="290" y="571"/>
      <point x="290" y="571" type="curve"/>
    </contour>
    <contour>
      <point x="279" y="883" type="line"/>
      <point x="159" y="883" type="line"/>
      <point x="158" y="880" type="line"/>
      <point x="266" y="751" type="line"/>
      <point x="365" y="751" type="line"/>
    </contour>
  </outline>
</glyph>
<glyph name="Acircumflex" format="1">
  <advance width="592"/>
  <unicode hex="00C2"/>
  <outline>
    <contour>
      <point x="370" y="686" type="line"/>
      <point x="221" y="686" type="line"/>
      <point x="0" y="0" type="line"/>
      <point x="124" y="0" type="line"/>
      <point x="165" y="135" type="line"/>
      <point x="418" y="135" type="line"/>
      <point x="460" y="0" type="line"/>
      <point x="591" y="0" type="line"/>
    </contour>
    <contour>
      <point x="294" y="571" type="line"/>
      <point x="294" y="571"/>
      <point x="303" y="514"/>
      <point x="314" y="478" type="curve" smooth="yes"/>
      <point x="383" y="249" type="line"/>
      <point x="200" y="249" type="line"/>
      <point x="270" y="478" type="line" smooth="yes"/>
      <point x="280" y="510"/>
      <point x="290" y="571"/>
      <point x="290" y="571" type="curve"/>
    </contour>
    <contour>
      <point x="346" y="883" type="line"/>
      <point x="248" y="883" type="line"/>
      <point x="162" y="748" type="line"/>
      <point x="251" y="748" type="line"/>
      <point x="296" y="817" type="line"/>
      <point x="341" y="748" type="line"/>
      <point x="431" y="748" type="line"/>
    </contour>
  </outline>
</glyph>
<glyph name="Atilde" format="1">
  <advance width="592"/>
  <unicode hex="00C3"/>
  <outline>
    <contour>
      <point x="370" y="686" type="line"/>
      <point x="221" y="686" type="line"/>
      <point x="0" y="0" type="line"/>
      <point x="124" y="0" type="line"/>
      <point x="165" y="135" type="line"/>
      <point x="418" y="135" type="line"/>
      <point x="460" y="0" type="line"/>
      <point x="591" y="0" type="line"/>
    </contour>
    <contour>
      <point x="294" y="571" type="line"/>
      <point x="294" y="571"/>
      <point x="303" y="514"/>
      <point x="314" y="478" type="curve" smooth="yes"/>
      <point x="383" y="249" type="line"/>
      <point x="200" y="249" type="line"/>
      <point x="270" y="478" type="line" smooth="yes"/>
      <point x="280" y="510"/>
      <point x="290" y="571"/>
      <point x="290" y="571" type="curve"/>
    </contour>
    <contour>
      <point x="398" y="883" type="line"/>
      <point x="394" y="855"/>
      <point x="380" y="846"/>
      <point x="359" y="846" type="curve" smooth="yes"/>
      <point x="314" y="846"/>
      <point x="275" y="883"/>
      <point x="226" y="883" type="curve" smooth="yes"/>
      <point x="156" y="883"/>
      <point x="128" y="816"/>
      <point x="128" y="761" type="curve"/>
      <point x="194" y="761" type="line"/>
      <point x="198" y="788"/>
      <point x="212" y="798"/>
      <point x="233" y="798" type="curve" smooth="yes"/>
      <point x="278" y="798"/>
      <point x="317" y="761"/>
      <point x="365" y="761" type="curve" smooth="yes"/>
      <point x="436" y="761"/>
      <point x="464" y="828"/>
      <point x="464" y="883" type="curve"/>
    </contour>
  </outline>
</glyph>
<glyph name="Adieresis" format="1">
  <advance width="592"/>
  <unicode hex="00C4"/>
  <outline>
    <contour>
      <point x="370" y="686" type="line"/>
      <point x="221" y="686" type="line"/>
      <point x="0" y="0" type="line"/>
      <point x="124" y="0" type="line"/>
      <point x="165" y="135" type="line"/>
      <point x="418" y="135" type="line"/>
      <point x="460" y="0" type="line"/>
      <point x="591" y="0" type="line"/>
    </contour>
    <contour>
      <point x="294" y="571" type="line"/>
      <point x="294" y="571"/>
      <point x="303" y="514"/>
      <point x="314" y="478" type="curve" smooth="yes"/>
      <point x="383" y="249" type="line"/>
      <point x="200" y="249" type="line"/>
      <point x="270" y="478" type="line" smooth="yes"/>
      <point x="280" y="510"/>
      <point x="290" y="571"/>
      <point x="290" y="571" type="curve"/>
    </contour>
    <contour>
      <point x="259" y="883" type="line"/>
      <point x="159" y="883" type="line"/>
      <point x="159" y="774" type="line"/>
      <point x="259" y="774" type="line"/>
    </contour>
    <contour>
      <point x="434" y="883" type="line"/>
      <point x="333" y="883" type="line"/>
      <point x="333" y="774" type="line"/>
      <point x="434" y="774" type="line"/>
    </contour>
  </outline>
</glyph>
<glyph name="Aring" format="1">
  <advance width="592"/>
  <unicode hex="00C5"/>
  <outline>
    <contour>
      <point x="370" y="686" type="line"/>
      <point x="221" y="686" type="line"/>
      <point x="0" y="0" type="line"/>
      <point x="124" y="0" type="line"/>
      <point x="165" y="135" type="line"/>
      <point x="418" y="135" type="line"/>
      <point x="460" y="0" type="line"/>
      <point x="591" y="0" type="line"/>
    </contour>
    <contour>
      <point x="294" y="571" type="line"/>
      <point x="294" y="571"/>
      <point x="303" y="514"/>
      <point x="314" y="478" type="curve" smooth="yes"/>
      <point x="383" y="249" type="line"/>
      <point x="200" y="249" type="line"/>
      <point x="270" y="478" type="line" smooth="yes"/>
      <point x="280" y="510"/>
      <point x="290" y="571"/>
      <point x="290" y="571" type="curve"/>
    </contour>
    <contour>
      <point x="296" y="913" type="curve" smooth="yes"/>
      <point x="243" y="913"/>
      <point x="200" y="870"/>
      <point x="200" y="817" type="curve" smooth="yes"/>
      <point x="200" y="763"/>
      <point x="244" y="721"/>
      <point x="296" y="721" type="curve" smooth="yes"/>
      <point x="349" y="721"/>
      <point x="392" y="764"/>
      <point x="392" y="817" type="curve" smooth="yes"/>
      <point x="392" y="869"/>
      <point x="350" y="913"/>
    </contour>
    <contour>
      <point x="296" y="863" type="curve" smooth="yes"/>
      <point x="321" y="863"/>
      <point x="342" y="843"/>
      <point x="342" y="817" type="curve" smooth="yes"/>
      <point x="342" y="791"/>
      <point x="321" y="771"/>
      <point x="296" y="771" type="curve" smooth="yes"/>
      <point x="270" y="771"/>
      <point x="250" y="791"/>
      <point x="250" y="817" type="curve" smooth="yes"/>
      <point x="250" y="843"/>
      <point x="270" y="863"/>
    </contour>
  </outline>
</glyph>
<glyph name="AE" format="1">
  <advance width="820"/>
  <unicode hex="00C6"/>
  <outline>
    <contour>
      <point x="777" y="0" type="line"/>
      <point x="777" y="114" type="line"/>
      <point x="550" y="114" type="line"/>
      <point x="506" y="294" type="line"/>
      <point x="727" y="294" type="line"/>
      <point x="727" y="408" type="line"/>
      <point x="478" y="408" type="line"/>
      <point x="438" y="572" type="line"/>
      <point x="771" y="572" type="line"/>
      <point x="771" y="686" type="line"/>
      <point x="255" y="686" type="line"/>
      <point x="-8" y="0" type="line"/>
      <point x="111" y="0" type="line"/>
      <point x="161" y="135" type="line"/>
      <point x="414" y="135" type="line"/>
      <point x="447" y="0" type="line"/>
    </contour>
    <contour>
      <point x="313" y="546" type="line"/>
      <point x="317" y="546" type="line"/>
      <point x="387" y="249" type="line"/>
      <point x="203" y="249" type="line"/>
    </contour>
    <contour>
      <point x="410" y="686" type="move" name="top"/>
    </contour>
  </outline>
</glyph>
<glyph name="Ccedilla" format="1">
  <advance width="592"/>
  <unicode hex="00C7"/>
  <outline>
    <contour>
      <point x="307" y="698" type="curve" smooth="yes"/>
      <point x="135" y="698"/>
      <point x="34" y="585"/>
      <point x="34" y="343" type="curve" smooth="yes"/>
      <point x="34" y="122"/>
      <point x="117" y="9"/>
      <point x="262" y="-9" type="curve"/>
      <point x="254" y="-77" type="line"/>
      <point x="287" y="-77" type="line" smooth="yes"/>
      <point x="313" y="-77"/>
      <point x="321" y="-85"/>
      <point x="321" y="-101" type="curve" smooth="yes"/>
      <point x="321" y="-120"/>
      <point x="307" y="-125"/>
      <point x="285" y="-125" type="curve" smooth="yes"/>
      <point x="214" y="-125" type="line"/>
      <point x="214" y="-174" type="line"/>
      <point x="238" y="-179"/>
      <point x="270" y="-182"/>
      <point x="298" y="-182" type="curve" smooth="yes"/>
      <point x="341" y="-182"/>
      <point x="407" y="-168"/>
      <point x="407" y="-101" type="curve" smooth="yes"/>
      <point x="407" y="-55"/>
      <point x="371" y="-36"/>
      <point x="328" y="-33" type="curve"/>
      <point x="330" y="-11" type="line"/>
      <point x="463" y="-2"/>
      <point x="559" y="84"/>
      <point x="559" y="254" type="curve"/>
      <point x="434" y="254" type="line"/>
      <point x="434" y="148"/>
      <point x="385" y="98"/>
      <point x="311" y="98" type="curve" smooth="yes"/>
      <point x="213" y="98"/>
      <point x="166" y="181"/>
      <point x="166" y="318" type="curve" smooth="yes"/>
      <point x="166" y="368" type="line" smooth="yes"/>
      <point x="166" y="505"/>
      <point x="212" y="588"/>
      <point x="307" y="588" type="curve" smooth="yes"/>
      <point x="379" y="588"/>
      <point x="428" y="537"/>
      <point x="428" y="431" type="curve"/>
      <point x="559" y="431" type="line"/>
      <point x="559" y="617"/>
      <point x="450" y="698"/>
    </contour>
  </outline>
</glyph>
<glyph name="Egrave" format="1">
  <advance width="547"/>
  <unicode hex="00C8"/>
  <outline>
    <contour>
      <point x="256" y="883" type="line"/>
      <point x="136" y="883" type="line"/>
      <point x="135" y="880" type="line"/>
      <point x="243" y="751" type="line"/>
      <point x="342" y="751" type="line"/>
    </contour>
    <contour>
      <point x="503" y="0" type="line"/>
      <point x="503" y="114" type="line"/>
      <point x="188" y="114" type="line"/>
      <point x="188" y="294" type="line"/>
      <point x="453" y="294" type="line"/>
      <point x="453" y="408" type="line"/>
      <point x="188" y="408" type="line"/>
      <point x="188" y="572" type="line"/>
      <point x="497" y="572" type="line"/>
      <point x="497" y="686" type="line"/>
      <point x="60" y="686" type="line"/>
      <point x="60" y="0" type="line"/>
    </contour>
  </outline>
</glyph>
<glyph name="Ecircumflex" format="1">
  <advance width="547"/>
  <unicode hex="00CA"/>
  <outline>
    <contour>
      <point x="323" y="883" type="line"/>
      <point x="225" y="883" type="line"/>
      <point x="139" y="748" type="line"/>
      <point x="229" y="748" type="line"/>
      <point x="274" y="817" type="line"/>
      <point x="318" y="748" type="line"/>
      <point x="408" y="748" type="line"/>
    </contour>
    <contour>
      <point x="503" y="0" type="line"/>
      <point x="503" y="114" type="line"/>
      <point x="188" y="114" type="line"/>
      <point x="188" y="294" type="line"/>
      <point x="453" y="294" type="line"/>
      <point x="453" y="408" type="line"/>
      <point x="188" y="408" type="line"/>
      <point x="188" y="572" type="line"/>
      <point x="497" y="572" type="line"/>
      <point x="497" y="686" type="line"/>
      <point x="60" y="686" type="line"/>
      <point x="60" y="0" type="line"/>
    </contour>
  </outline>
</glyph>
<glyph name="Igrave" format="1">
  <advance width="228"/>
  <unicode hex="00CC"/>
  <outline>
    <contour>
      <point x="178" y="686" type="line"/>
      <point x="50" y="686" type="line"/>
      <point x="50" y="0" type="line"/>
      <point x="178" y="0" type="line"/>
    </contour>
    <contour>
      <point x="97" y="883" type="line"/>
      <point x="-23" y="883" type="line"/>
      <point x="-24" y="880" type="line"/>
      <point x="84" y="751" type="line"/>
      <point x="183" y="751" type="line"/>
    </contour>
  </outline>
</glyph>
<glyph name="Iacute" format="1">
  <advance width="228"/>
  <unicode hex="00CD"/>
  <outline>
    <contour>
      <point x="178" y="686" type="line"/>
      <point x="50" y="686" type="line"/>
      <point x="50" y="0" type="line"/>
      <point x="178" y="0" type="line"/>
    </contour>
    <contour>
      <point x="251" y="883" type="line"/>
      <point x="131" y="883" type="line"/>
      <point x="45" y="751" type="line"/>
      <point x="145" y="751" type="line"/>
      <point x="252" y="880" type="line"/>
    </contour>
  </outline>
</glyph>
<glyph name="Icircumflex" format="1">
  <advance width="228"/>
  <unicode hex="00CE"/>
  <outline>
    <contour>
      <point x="178" y="686" type="line"/>
      <point x="50" y="686" type="line"/>
      <point x="50" y="0" type="line"/>
      <point x="178" y="0" type="line"/>
    </contour>
    <contour>
      <point x="164" y="883" type="line"/>
      <point x="66" y="883" type="line"/>
      <point x="-21" y="748" type="line"/>
      <point x="70" y="748" type="line"/>
      <point x="115" y="817" type="line"/>
      <point x="159" y="748" type="line"/>
      <point x="249" y="748" type="line"/>
    </contour>
  </outline>
</glyph>
<glyph name="Idieresis" format="1">
  <advance width="228"/>
  <unicode hex="00CF"/>
  <outline>
    <contour>
      <point x="178" y="686" type="line"/>
      <point x="50" y="686" type="line"/>
      <point x="50" y="0" type="line"/>
      <point x="178" y="0" type="line"/>
    </contour>
    <contour>
      <point x="77" y="883" type="line"/>
      <point x="-23" y="883" type="line"/>
      <point x="-23" y="774" type="line"/>
      <point x="77" y="774" type="line"/>
    </contour>
    <contour>
      <point x="252" y="883" type="line"/>
      <point x="152" y="883" type="line"/>
      <point x="152" y="774" type="line"/>
      <point x="252" y="774" type="line"/>
    </contour>
  </outline>
</glyph>
<glyph name="Ntilde" format="1">
  <advance width="592"/>
  <unicode hex="00D1"/>
  <outline>
    <contour>
      <point x="398" y="883" type="line"/>
      <point x="394" y="855"/>
      <point x="380" y="846"/>
      <point x="359" y="846" type="curve" smooth="yes"/>
      <point x="314" y="846"/>
      <point x="275" y="883"/>
      <point x="226" y="883" type="curve" smooth="yes"/>
      <point x="156" y="883"/>
      <point x="128" y="816"/>
      <point x="128" y="761" type="curve"/>
      <point x="194" y="761" type="line"/>
      <point x="198" y="788"/>
      <point x="212" y="798"/>
      <point x="233" y="798" type="curve" smooth="yes"/>
      <point x="278" y="798"/>
      <point x="317" y="761"/>
      <point x="365" y="761" type="curve" smooth="yes"/>
      <point x="436" y="761"/>
      <point x="464" y="828"/>
      <point x="464" y="883" type="curve"/>
    </contour>
    <contour>
      <point x="532" y="0" type="line"/>
      <point x="532" y="686" type="line"/>
      <point x="418" y="686" type="line"/>
      <point x="418" y="304" type="line" smooth="yes"/>
      <point x="418" y="293"/>
      <point x="419" y="247"/>
      <point x="419" y="247" type="curve"/>
      <point x="416" y="244" type="line"/>
      <point x="416" y="244"/>
      <point x="396" y="291"/>
      <point x="385" y="308" type="curve"/>
      <point x="173" y="686" type="line"/>
      <point x="60" y="686" type="line"/>
      <point x="60" y="0" type="line"/>
      <point x="173" y="0" type="line"/>
      <point x="173" y="382" type="line" smooth="yes"/>
      <point x="173" y="400"/>
      <point x="171" y="439"/>
      <point x="171" y="439" type="curve"/>
      <point x="175" y="442" type="line"/>
      <point x="175" y="442"/>
      <point x="198" y="392"/>
      <point x="206" y="378" type="curve" smooth="yes"/>
      <point x="418" y="0" type="line"/>
    </contour>
  </outline>
</glyph>
<glyph name="Ograve" format="1">
  <advance width="638"/>
  <unicode hex="00D2"/>
  <outline>
    <contour>
      <point x="319" y="698" type="curve" smooth="yes"/>
      <point x="142" y="698"/>
      <point x="34" y="585"/>
      <point x="34" y="343" type="curve" smooth="yes"/>
      <point x="34" y="101"/>
      <point x="142" y="-12"/>
      <point x="319" y="-12" type="curve" smooth="yes"/>
      <point x="496" y="-12"/>
      <point x="604" y="101"/>
      <point x="604" y="343" type="curve" smooth="yes"/>
      <point x="604" y="585"/>
      <point x="496" y="698"/>
    </contour>
    <contour>
      <point x="319" y="588" type="curve" smooth="yes"/>
      <point x="421" y="588"/>
      <point x="472" y="505"/>
      <point x="472" y="368" type="curve" smooth="yes"/>
      <point x="472" y="318" type="line" smooth="yes"/>
      <point x="472" y="181"/>
      <point x="421" y="98"/>
      <point x="319" y="98" type="curve" smooth="yes"/>
      <point x="217" y="98"/>
      <point x="166" y="181"/>
      <point x="166" y="318" type="curve" smooth="yes"/>
      <point x="166" y="368" type="line"/>
      <point x="166" y="505"/>
      <point x="217" y="588"/>
    </contour>
    <contour>
      <point x="302" y="883" type="line"/>
      <point x="182" y="883" type="line"/>
      <point x="181" y="880" type="line"/>
      <point x="289" y="751" type="line"/>
      <point x="388" y="751" type="line"/>
    </contour>
  </outline>
</glyph>
<glyph name="Oacute" format="1">
  <advance width="638"/>
  <unicode hex="00D3"/>
  <outline>
    <contour>
      <point x="319" y="698" type="curve" smooth="yes"/>
      <point x="142" y="698"/>
      <point x="34" y="585"/>
      <point x="34" y="343" type="curve" smooth="yes"/>
      <point x="34" y="101"/>
      <point x="142" y="-12"/>
      <point x="319" y="-12" type="curve" smooth="yes"/>
      <point x="496" y="-12"/>
      <point x="604" y="101"/>
      <point x="604" y="343" type="curve" smooth="yes"/>
      <point x="604" y="585"/>
      <point x="496" y="698"/>
    </contour>
    <contour>
      <point x="319" y="588" type="curve" smooth="yes"/>
      <point x="421" y="588"/>
      <point x="472" y="505"/>
      <point x="472" y="368" type="curve" smooth="yes"/>
      <point x="472" y="318" type="line" smooth="yes"/>
      <point x="472" y="181"/>
      <point x="421" y="98"/>
      <point x="319" y="98" type="curve" smooth="yes"/>
      <point x="217" y="98"/>
      <point x="166" y="181"/>
      <point x="166" y="318" type="curve" smooth="yes"/>
      <point x="166" y="368" type="line"/>
      <point x="166" y="505"/>
      <point x="217" y="588"/>
    </contour>
    <contour>
      <point x="457" y="883" type="line"/>
      <point x="336" y="883" type="line"/>
      <point x="250" y="751" type="line"/>
      <point x="350" y="751" type="line"/>
      <point x="458" y="880" type="line"/>
    </contour>
  </outline>
</glyph>
<glyph name="Otilde" format="1">
  <advance width="638"/>
  <unicode hex="00D5"/>
  <outline>
    <contour>
      <point x="319" y="698" type="curve" smooth="yes"/>
      <point x="142" y="698"/>
      <point x="34" y="585"/>
      <point x="34" y="343" type="curve" smooth="yes"/>
      <point x="34" y="101"/>
      <point x="142" y="-12"/>
      <point x="319" y="-12" type="curve" smooth="yes"/>
      <point x="496" y="-12"/>
      <point x="604" y="101"/>
      <point x="604" y="343" type="curve" smooth="yes"/>
      <point x="604" y="585"/>
      <point x="496" y="698"/>
    </contour>
    <contour>
      <point x="319" y="588" type="curve" smooth="yes"/>
      <point x="421" y="588"/>
      <point x="472" y="505"/>
      <point x="472" y="368" type="curve" smooth="yes"/>
      <point x="472" y="318" type="line" smooth="yes"/>
      <point x="472" y="181"/>
      <point x="421" y="98"/>
      <point x="319" y="98" type="curve" smooth="yes"/>
      <point x="217" y="98"/>
      <point x="166" y="181"/>
      <point x="166" y="318" type="curve" smooth="yes"/>
      <point x="166" y="368" type="line"/>
      <point x="166" y="505"/>
      <point x="217" y="588"/>
    </contour>
    <contour>
      <point x="421" y="883" type="line"/>
      <point x="417" y="855"/>
      <point x="404" y="846"/>
      <point x="383" y="846" type="curve" smooth="yes"/>
      <point x="337" y="846"/>
      <point x="299" y="883"/>
      <point x="250" y="883" type="curve" smooth="yes"/>
      <point x="180" y="883"/>
      <point x="151" y="816"/>
      <point x="151" y="761" type="curve"/>
      <point x="218" y="761" type="line"/>
      <point x="222" y="788"/>
      <point x="235" y="798"/>
      <point x="257" y="798" type="curve" smooth="yes"/>
      <point x="302" y="798"/>
      <point x="341" y="761"/>
      <point x="389" y="761" type="curve" smooth="yes"/>
      <point x="459" y="761"/>
      <point x="488" y="828"/>
      <point x="488" y="883" type="curve"/>
    </contour>
  </outline>
</glyph>
<glyph name="Odieresis" format="1">
  <advance width="638"/>
  <unicode hex="00D6"/>
  <outline>
    <contour>
      <point x="319" y="698" type="curve" smooth="yes"/>
      <point x="142" y="698"/>
      <point x="34" y="585"/>
      <point x="34" y="343" type="curve" smooth="yes"/>
      <point x="34" y="101"/>
      <point x="142" y="-12"/>
      <point x="319" y="-12" type="curve" smooth="yes"/>
      <point x="496" y="-12"/>
      <point x="604" y="101"/>
      <point x="604" y="343" type="curve" smooth="yes"/>
      <point x="604" y="585"/>
      <point x="496" y="698"/>
    </contour>
    <contour>
      <point x="319" y="588" type="curve" smooth="yes"/>
      <point x="421" y="588"/>
      <point x="472" y="505"/>
      <point x="472" y="368" type="curve" smooth="yes"/>
      <point x="472" y="318" type="line" smooth="yes"/>
      <point x="472" y="181"/>
      <point x="421" y="98"/>
      <point x="319" y="98" type="curve" smooth="yes"/>
      <point x="217" y="98"/>
      <point x="166" y="181"/>
      <point x="166" y="318" type="curve" smooth="yes"/>
      <point x="166" y="368" type="line"/>
      <point x="166" y="505"/>
      <point x="217" y="588"/>
    </contour>
    <contour>
      <point x="282" y="883" type="line"/>
      <point x="182" y="883" type="line"/>
      <point x="182" y="774" type="line"/>
      <point x="282" y="774" type="line"/>
    </contour>
    <contour>
      <point x="457" y="883" type="line"/>
      <point x="357" y="883" type="line"/>
      <point x="357" y="774" type="line"/>
      <point x="457" y="774" type="line"/>
    </contour>
  </outline>
</glyph>
<glyph name="multiply" format="1">
  <advance width="479"/>
  <unicode hex="00D7"/>
  <outline>
    <contour>
      <point x="392" y="474" type="line"/>
      <point x="246" y="328" type="line"/>
      <point x="101" y="474" type="line"/>
      <point x="29" y="402" type="line"/>
      <point x="175" y="256" type="line"/>
      <point x="29" y="111" type="line"/>
      <point x="101" y="39" type="line"/>
      <point x="246" y="185" type="line"/>
      <point x="392" y="39" type="line"/>
      <point x="464" y="111" type="line"/>
      <point x="318" y="256" type="line"/>
      <point x="464" y="402" type="line"/>
    </contour>
  </outline>
</glyph>
<glyph name="Ugrave" format="1">
  <advance width="592"/>
  <unicode hex="00D9"/>
  <outline>
    <contour>
      <point x="279" y="883" type="line"/>
      <point x="159" y="883" type="line"/>
      <point x="158" y="880" type="line"/>
      <point x="266" y="751" type="line"/>
      <point x="365" y="751" type="line"/>
    </contour>
    <contour>
      <point x="61" y="215" type="line" smooth="yes"/>
      <point x="61" y="66"/>
      <point x="149" y="-12"/>
      <point x="296" y="-12" type="curve" smooth="yes"/>
      <point x="443" y="-12"/>
      <point x="532" y="66"/>
      <point x="532" y="215" type="curve" smooth="yes"/>
      <point x="532" y="686" type="line"/>
      <point x="404" y="686" type="line"/>
      <point x="404" y="219" type="line" smooth="yes"/>
      <point x="404" y="140"/>
      <point x="364" y="98"/>
      <point x="296" y="98" type="curve" smooth="yes"/>
      <point x="228" y="98"/>
      <point x="189" y="140"/>
      <point x="189" y="219" type="curve" smooth="yes"/>
      <point x="189" y="686" type="line"/>
      <point x="61" y="686" type="line"/>
    </contour>
  </outline>
</glyph>
<glyph name="Ucircumflex" format="1">
  <advance width="592"/>
  <unicode hex="00DB"/>
  <outline>
    <contour>
      <point x="346" y="883" type="line"/>
      <point x="248" y="883" type="line"/>
      <point x="162" y="748" type="line"/>
      <point x="251" y="748" type="line"/>
      <point x="296" y="817" type="line"/>
      <point x="341" y="748" type="line"/>
      <point x="431" y="748" type="line"/>
    </contour>
    <contour>
      <point x="61" y="215" type="line" smooth="yes"/>
      <point x="61" y="66"/>
      <point x="149" y="-12"/>
      <point x="296" y="-12" type="curve" smooth="yes"/>
      <point x="443" y="-12"/>
      <point x="532" y="66"/>
      <point x="532" y="215" type="curve" smooth="yes"/>
      <point x="532" y="686" type="line"/>
      <point x="404" y="686" type="line"/>
      <point x="404" y="219" type="line" smooth="yes"/>
      <point x="404" y="140"/>
      <point x="364" y="98"/>
      <point x="296" y="98" type="curve" smooth="yes"/>
      <point x="228" y="98"/>
      <point x="189" y="140"/>
      <point x="189" y="219" type="curve" smooth="yes"/>
      <point x="189" y="686" type="line"/>
      <point x="61" y="686" type="line"/>
    </contour>
  </outline>
</glyph>
<glyph name="Udieresis" format="1">
  <advance width="592"/>
  <unicode hex="00DC"/>
  <outline>
    <contour>
      <point x="259" y="883" type="line"/>
      <point x="159" y="883" type="line"/>
      <point x="159" y="774" type="line"/>
      <point x="259" y="774" type="line"/>
    </contour>
    <contour>
      <point x="434" y="883" type="line"/>
      <point x="333" y="883" type="line"/>
      <point x="333" y="774" type="line"/>
      <point x="434" y="774" type="line"/>
    </contour>
    <contour>
      <point x="61" y="215" type="line" smooth="yes"/>
      <point x="61" y="66"/>
      <point x="149" y="-12"/>
      <point x="296" y="-12" type="curve" smooth="yes"/>
      <point x="443" y="-12"/>
      <point x="532" y="66"/>
      <point x="532" y="215" type="curve" smooth="yes"/>
      <point x="532" y="686" type="line"/>
      <point x="404" y="686" type="line"/>
      <point x="404" y="219" type="line" smooth="yes"/>
      <point x="404" y="140"/>
      <point x="364" y="98"/>
      <point x="296" y="98" type="curve" smooth="yes"/>
      <point x="228" y="98"/>
      <point x="189" y="140"/>
      <point x="189" y="219" type="curve" smooth="yes"/>
      <point x="189" y="686" type="line"/>
      <point x="61" y="686" type="line"/>
    </contour>
  </outline>
</glyph>
<glyph name="Yacute" format="1">
  <advance width="547"/>
  <unicode hex="00DD"/>
  <outline>
    <contour>
      <point x="547" y="686" type="line"/>
      <point x="418" y="686" type="line"/>
      <point x="279" y="385" type="line"/>
      <point x="275" y="385" type="line"/>
      <point x="135" y="686" type="line"/>
      <point x="0" y="686" type="line"/>
      <point x="210" y="259" type="line"/>
      <point x="210" y="0" type="line"/>
      <point x="338" y="0" type="line"/>
      <point x="338" y="259" type="line"/>
    </contour>
    <contour>
      <point x="411" y="883" type="line"/>
      <point x="291" y="883" type="line"/>
      <point x="205" y="751" type="line"/>
      <point x="304" y="751" type="line"/>
      <point x="412" y="880" type="line"/>
    </contour>
  </outline>
</glyph>
<glyph name="Thorn" format="1">
  <advance width="547"/>
  <unicode hex="00DE"/>
  <outline>
    <contour>
      <point x="305" y="144" type="line"/>
      <point x="434" y="144"/>
      <point x="520" y="229"/>
      <point x="520" y="358" type="curve" smooth="yes"/>
      <point x="520" y="477"/>
      <point x="447" y="564"/>
      <point x="305" y="564" type="curve" smooth="yes"/>
      <point x="188" y="564" type="line"/>
      <point x="188" y="686" type="line"/>
      <point x="60" y="686" type="line"/>
      <point x="60" y="0" type="line"/>
      <point x="188" y="0" type="line"/>
      <point x="188" y="144" type="line"/>
    </contour>
    <contour>
      <point x="292" y="450" type="line"/>
      <point x="353" y="450"/>
      <point x="388" y="414"/>
      <point x="388" y="358" type="curve" smooth="yes"/>
      <point x="388" y="295"/>
      <point x="354" y="257"/>
      <point x="292" y="257" type="curve" smooth="yes"/>
      <point x="188" y="257" type="line"/>
      <point x="188" y="450" type="line"/>
    </contour>
  </outline>
</glyph>
<glyph name="germandbls" format="1">
  <advance width="501"/>
  <unicode hex="00DF"/>
  <outline>
    <contour>
      <point x="254" y="735" type="curve" smooth="yes"/>
      <point x="134" y="735"/>
      <point x="40" y="673"/>
      <point x="40" y="520" type="curve" smooth="yes"/>
      <point x="40" y="0" type="line"/>
      <point x="160" y="0" type="line"/>
      <point x="160" y="528" type="line" smooth="yes"/>
      <point x="160" y="596"/>
      <point x="196" y="634"/>
      <point x="249" y="634" type="curve" smooth="yes"/>
      <point x="303" y="634"/>
      <point x="331" y="597"/>
      <point x="331" y="545" type="curve" smooth="yes"/>
      <point x="331" y="486"/>
      <point x="298" y="437"/>
      <point x="257" y="437" type="curve" smooth="yes"/>
      <point x="208" y="437" type="line"/>
      <point x="208" y="324" type="line"/>
      <point x="260" y="324" type="line" smooth="yes"/>
      <point x="311" y="324"/>
      <point x="352" y="275"/>
      <point x="352" y="215" type="curve" smooth="yes"/>
      <point x="352" y="154"/>
      <point x="311" y="102"/>
      <point x="260" y="102" type="curve" smooth="yes"/>
      <point x="208" y="102" type="line"/>
      <point x="208" y="0" type="line"/>
      <point x="273" y="0" type="line" smooth="yes"/>
      <point x="385" y="0"/>
      <point x="473" y="85"/>
      <point x="473" y="214" type="curve" smooth="yes"/>
      <point x="473" y="291"/>
      <point x="425" y="366"/>
      <point x="357" y="391" type="curve"/>
      <point x="357" y="395" type="line"/>
      <point x="413" y="417"/>
      <point x="452" y="482"/>
      <point x="452" y="548" type="curve" smooth="yes"/>
      <point x="452" y="665"/>
      <point x="368" y="735"/>
    </contour>
  </outline>
</glyph>
<glyph name="aacute" format="1">
  <advance width="456"/>
  <unicode hex="00E1"/>
  <outline>
    <contour>
      <point x="217" y="538" type="curve" smooth="yes"/>
      <point x="109" y="538"/>
      <point x="39" y="480"/>
      <point x="39" y="392" type="curve" smooth="yes"/>
      <point x="39" y="383"/>
      <point x="39" y="376"/>
      <point x="40" y="370" type="curve"/>
      <point x="157" y="370" type="line"/>
      <point x="157" y="385" type="line" smooth="yes"/>
      <point x="157" y="410"/>
      <point x="171" y="440"/>
      <point x="220" y="440" type="curve" smooth="yes"/>
      <point x="266" y="440"/>
      <point x="275" y="411"/>
      <point x="275" y="375" type="curve" smooth="yes"/>
      <point x="275" y="320" type="line"/>
      <point x="122" y="320"/>
      <point x="14" y="278"/>
      <point x="14" y="136" type="curve" smooth="yes"/>
      <point x="14" y="14"/>
      <point x="97" y="-12"/>
      <point x="146" y="-12" type="curve" smooth="yes"/>
      <point x="216" y="-12"/>
      <point x="249" y="15"/>
      <point x="279" y="57" type="curve"/>
      <point x="284" y="57" type="line"/>
      <point x="296" y="16"/>
      <point x="329" y="-12"/>
      <point x="377" y="-12" type="curve" smooth="yes"/>
      <point x="413" y="-12"/>
      <point x="435" y="-3"/>
      <point x="448" y="4" type="curve"/>
      <point x="448" y="89" type="line"/>
      <point x="424" y="89" type="line" smooth="yes"/>
      <point x="410" y="89"/>
      <point x="396" y="99"/>
      <point x="396" y="124" type="curve" smooth="yes"/>
      <point x="396" y="383" type="line" smooth="yes"/>
      <point x="396" y="481"/>
      <point x="339" y="538"/>
    </contour>
    <contour>
      <point x="275" y="203" type="line"/>
      <point x="275" y="141"/>
      <point x="253" y="88"/>
      <point x="196" y="88" type="curve" smooth="yes"/>
      <point x="155" y="88"/>
      <point x="137" y="111"/>
      <point x="137" y="147" type="curve" smooth="yes"/>
      <point x="137" y="215"/>
      <point x="205" y="233"/>
      <point x="275" y="233" type="curve"/>
    </contour>
    <contour>
      <point x="354" y="723" type="line"/>
      <point x="234" y="723" type="line"/>
      <point x="148" y="591" type="line"/>
      <point x="247" y="591" type="line"/>
      <point x="355" y="720" type="line"/>
    </contour>
  </outline>
</glyph>
<glyph name="ccedilla" format="1">
  <advance width="456"/>
  <unicode hex="00E7"/>
  <outline>
    <contour>
      <point x="236" y="538" type="curve" smooth="yes"/>
      <point x="106" y="538"/>
      <point x="41" y="452"/>
      <point x="41" y="263" type="curve" smooth="yes"/>
      <point x="41" y="96"/>
      <point x="89" y="9"/>
      <point x="195" y="-8" type="curve"/>
      <point x="187" y="-77" type="line"/>
      <point x="219" y="-77" type="line" smooth="yes"/>
      <point x="245" y="-77"/>
      <point x="253" y="-85"/>
      <point x="253" y="-101" type="curve" smooth="yes"/>
      <point x="253" y="-120"/>
      <point x="239" y="-125"/>
      <point x="217" y="-125" type="curve" smooth="yes"/>
      <point x="146" y="-125" type="line"/>
      <point x="146" y="-174" type="line"/>
      <point x="170" y="-179"/>
      <point x="202" y="-182"/>
      <point x="230" y="-182" type="curve" smooth="yes"/>
      <point x="273" y="-182"/>
      <point x="339" y="-168"/>
      <point x="339" y="-101" type="curve" smooth="yes"/>
      <point x="339" y="-55"/>
      <point x="303" y="-36"/>
      <point x="260" y="-33" type="curve"/>
      <point x="262" y="-11" type="line"/>
      <point x="359" y="-2"/>
      <point x="420" y="61"/>
      <point x="420" y="198" type="curve"/>
      <point x="301" y="198" type="line"/>
      <point x="301" y="126"/>
      <point x="283" y="89"/>
      <point x="240" y="89" type="curve" smooth="yes"/>
      <point x="186" y="89"/>
      <point x="166" y="143"/>
      <point x="166" y="244" type="curve" smooth="yes"/>
      <point x="166" y="282" type="line" smooth="yes"/>
      <point x="166" y="383"/>
      <point x="185" y="437"/>
      <point x="236" y="437" type="curve" smooth="yes"/>
      <point x="277" y="437"/>
      <point x="297" y="402"/>
      <point x="297" y="328" type="curve"/>
      <point x="420" y="328" type="line"/>
      <point x="420" y="475"/>
      <point x="348" y="538"/>
    </contour>
  </outline>
</glyph>
<glyph name="ecircumflex" format="1">
  <advance width="456"/>
  <unicode hex="00EA"/>
  <outline>
    <contour>
      <point x="233" y="538" type="curve" smooth="yes"/>
      <point x="103" y="538"/>
      <point x="31" y="452"/>
      <point x="31" y="263" type="curve" smooth="yes"/>
      <point x="31" y="74"/>
      <point x="102" y="-12"/>
      <point x="237" y="-12" type="curve" smooth="yes"/>
      <point x="344" y="-12"/>
      <point x="423" y="51"/>
      <point x="423" y="186" type="curve"/>
      <point x="304" y="186" type="line"/>
      <point x="304" y="123"/>
      <point x="278" y="86"/>
      <point x="237" y="86" type="curve" smooth="yes"/>
      <point x="178" y="86"/>
      <point x="157" y="139"/>
      <point x="156" y="233" type="curve"/>
      <point x="423" y="233" type="line"/>
      <point x="423" y="263" type="line" smooth="yes"/>
      <point x="423" y="452"/>
      <point x="360" y="538"/>
    </contour>
    <contour>
      <point x="233" y="440" type="curve" smooth="yes"/>
      <point x="277" y="440"/>
      <point x="297" y="396"/>
      <point x="297" y="320" type="curve"/>
      <point x="157" y="320" type="line"/>
      <point x="161" y="396"/>
      <point x="182" y="440"/>
    </contour>
    <contour>
      <point x="278" y="723" type="line"/>
      <point x="180" y="723" type="line"/>
      <point x="94" y="588" type="line"/>
      <point x="184" y="588" type="line"/>
      <point x="229" y="657" type="line"/>
      <point x="273" y="588" type="line"/>
      <point x="363" y="588" type="line"/>
    </contour>
  </outline>
</glyph>
<glyph name="edieresis" format="1">
  <advance width="456"/>
  <unicode hex="00EB"/>
  <outline>
    <contour>
      <point x="233" y="538" type="curve" smooth="yes"/>
      <point x="103" y="538"/>
      <point x="31" y="452"/>
      <point x="31" y="263" type="curve" smooth="yes"/>
      <point x="31" y="74"/>
      <point x="102" y="-12"/>
      <point x="237" y="-12" type="curve" smooth="yes"/>
      <point x="344" y="-12"/>
      <point x="423" y="51"/>
      <point x="423" y="186" type="curve"/>
      <point x="304" y="186" type="line"/>
      <point x="304" y="123"/>
      <point x="278" y="86"/>
      <point x="237" y="86" type="curve" smooth="yes"/>
      <point x="178" y="86"/>
      <point x="157" y="139"/>
      <point x="156" y="233" type="curve"/>
      <point x="423" y="233" type="line"/>
      <point x="423" y="263" type="line" smooth="yes"/>
      <point x="423" y="452"/>
      <point x="360" y="538"/>
    </contour>
    <contour>
      <point x="233" y="440" type="curve" smooth="yes"/>
      <point x="277" y="440"/>
      <point x="297" y="396"/>
      <point x="297" y="320" type="curve"/>
      <point x="157" y="320" type="line"/>
      <point x="161" y="396"/>
      <point x="182" y="440"/>
    </contour>
    <contour>
      <point x="191" y="723" type="line"/>
      <point x="91" y="723" type="line"/>
      <point x="91" y="614" type="line"/>
      <point x="191" y="614" type="line"/>
    </contour>
    <contour>
      <point x="366" y="723" type="line"/>
      <point x="266" y="723" type="line"/>
      <point x="266" y="614" type="line"/>
      <point x="366" y="614" type="line"/>
    </contour>
  </outline>
</glyph>
<glyph name="igrave" format="1">
  <advance width="228"/>
  <unicode hex="00EC"/>
  <outline>
    <contour>
      <point x="174" y="526" type="line"/>
      <point x="54" y="526" type="line"/>
      <point x="54" y="0" type="line"/>
      <point x="174" y="0" type="line"/>
    </contour>
    <contour>
      <point x="97" y="723" type="line"/>
      <point x="-23" y="723" type="line"/>
      <point x="-24" y="720" type="line"/>
      <point x="84" y="591" type="line"/>
      <point x="183" y="591" type="line"/>
    </contour>
  </outline>
</glyph>
<glyph name="iacute" format="1">
  <advance width="228"/>
  <unicode hex="00ED"/>
  <outline>
    <contour>
      <point x="174" y="526" type="line"/>
      <point x="54" y="526" type="line"/>
      <point x="54" y="0" type="line"/>
      <point x="174" y="0" type="line"/>
    </contour>
    <contour>
      <point x="251" y="723" type="line"/>
      <point x="131" y="723" type="line"/>
      <point x="45" y="591" type="line"/>
      <point x="145" y="591" type="line"/>
      <point x="252" y="720" type="line"/>
    </contour>
  </outline>
</glyph>
<glyph name="icircumflex" format="1">
  <advance width="228"/>
  <unicode hex="00EE"/>
  <outline>
    <contour>
      <point x="174" y="526" type="line"/>
      <point x="54" y="526" type="line"/>
      <point x="54" y="0" type="line"/>
      <point x="174" y="0" type="line"/>
    </contour>
    <contour>
      <point x="164" y="723" type="line"/>
      <point x="66" y="723" type="line"/>
      <point x="-21" y="588" type="line"/>
      <point x="70" y="588" type="line"/>
      <point x="115" y="657" type="line"/>
      <point x="159" y="588" type="line"/>
      <point x="249" y="588" type="line"/>
    </contour>
  </outline>
</glyph>
<glyph name="eth" format="1">
  <advance width="501"/>
  <unicode hex="00F0"/>
  <outline>
    <contour>
      <point x="132" y="723" type="line"/>
      <point x="130" y="719" type="line"/>
      <point x="143" y="706"/>
      <point x="163" y="687"/>
      <point x="183" y="664" type="curve"/>
      <point x="108" y="657" type="line"/>
      <point x="108" y="584" type="line"/>
      <point x="237" y="595" type="line"/>
      <point x="251" y="575"/>
      <point x="265" y="553"/>
      <point x="275" y="534" type="curve"/>
      <point x="272" y="530" type="line"/>
      <point x="257" y="535"/>
      <point x="238" y="538"/>
      <point x="223" y="538" type="curve" smooth="yes"/>
      <point x="111" y="538"/>
      <point x="41" y="444"/>
      <point x="41" y="263" type="curve" smooth="yes"/>
      <point x="41" y="74"/>
      <point x="111" y="-12"/>
      <point x="251" y="-12" type="curve" smooth="yes"/>
      <point x="391" y="-12"/>
      <point x="461" y="74"/>
      <point x="461" y="263" type="curve" smooth="yes"/>
      <point x="461" y="421"/>
      <point x="415" y="531"/>
      <point x="363" y="607" type="curve"/>
      <point x="438" y="614" type="line"/>
      <point x="438" y="687" type="line"/>
      <point x="308" y="675" type="line"/>
      <point x="289" y="695"/>
      <point x="272" y="711"/>
      <point x="258" y="723" type="curve"/>
    </contour>
    <contour>
      <point x="251" y="437" type="curve" smooth="yes"/>
      <point x="313" y="437"/>
      <point x="336" y="383"/>
      <point x="336" y="282" type="curve" smooth="yes"/>
      <point x="336" y="244" type="line" smooth="yes"/>
      <point x="336" y="143"/>
      <point x="313" y="89"/>
      <point x="251" y="89" type="curve" smooth="yes"/>
      <point x="189" y="89"/>
      <point x="166" y="143"/>
      <point x="166" y="244" type="curve" smooth="yes"/>
      <point x="166" y="282" type="line" smooth="yes"/>
      <point x="166" y="383"/>
      <point x="189" y="437"/>
    </contour>
  </outline>
</glyph>
<glyph name="ntilde" format="1">
  <advance width="501"/>
  <unicode hex="00F1"/>
  <outline>
    <contour>
      <point x="306" y="538" type="curve" smooth="yes"/>
      <point x="243" y="538"/>
      <point x="200" y="502"/>
      <point x="173" y="461" type="curve"/>
      <point x="167" y="461" type="line"/>
      <point x="155" y="526" type="line"/>
      <point x="55" y="526" type="line"/>
      <point x="55" y="0" type="line"/>
      <point x="175" y="0" type="line"/>
      <point x="175" y="324" type="line" smooth="yes"/>
      <point x="175" y="383"/>
      <point x="210" y="429"/>
      <point x="257" y="429" type="curve" smooth="yes"/>
      <point x="300" y="429"/>
      <point x="326" y="404"/>
      <point x="326" y="336" type="curve" smooth="yes"/>
      <point x="326" y="0" type="line"/>
      <point x="446" y="0" type="line"/>
      <point x="446" y="369" type="line" smooth="yes"/>
      <point x="446" y="493"/>
      <point x="387" y="538"/>
    </contour>
    <contour>
      <point x="353" y="723" type="line"/>
      <point x="349" y="695"/>
      <point x="335" y="686"/>
      <point x="314" y="686" type="curve" smooth="yes"/>
      <point x="269" y="686"/>
      <point x="230" y="723"/>
      <point x="181" y="723" type="curve" smooth="yes"/>
      <point x="111" y="723"/>
      <point x="83" y="656"/>
      <point x="83" y="601" type="curve"/>
      <point x="149" y="601" type="line"/>
      <point x="153" y="628"/>
      <point x="167" y="638"/>
      <point x="188" y="638" type="curve" smooth="yes"/>
      <point x="233" y="638"/>
      <point x="272" y="601"/>
      <point x="320" y="601" type="curve" smooth="yes"/>
      <point x="391" y="601"/>
      <point x="419" y="668"/>
      <point x="419" y="723" type="curve"/>
    </contour>
  </outline>
</glyph>
<glyph name="otilde" format="1">
  <advance width="501"/>
  <unicode hex="00F5"/>
  <outline>
    <contour>
      <point x="251" y="538" type="curve" smooth="yes"/>
      <point x="111" y="538"/>
      <point x="41" y="452"/>
      <point x="41" y="263" type="curve" smooth="yes"/>
      <point x="41" y="74"/>
      <point x="111" y="-12"/>
      <point x="251" y="-12" type="curve" smooth="yes"/>
      <point x="391" y="-12"/>
      <point x="461" y="74"/>
      <point x="461" y="263" type="curve" smooth="yes"/>
      <point x="461" y="452"/>
      <point x="391" y="538"/>
    </contour>
    <contour>
      <point x="251" y="437" type="curve" smooth="yes"/>
      <point x="313" y="437"/>
      <point x="336" y="383"/>
      <point x="336" y="282" type="curve" smooth="yes"/>
      <point x="336" y="244" type="line"/>
      <point x="336" y="143"/>
      <point x="313" y="89"/>
      <point x="251" y="89" type="curve" smooth="yes"/>
      <point x="189" y="89"/>
      <point x="166" y="143"/>
      <point x="166" y="244" type="curve" smooth="yes"/>
      <point x="166" y="282" type="line" smooth="yes"/>
      <point x="166" y="383"/>
      <point x="189" y="437"/>
    </contour>
    <contour>
      <point x="353" y="723" type="line"/>
      <point x="349" y="695"/>
      <point x="335" y="686"/>
      <point x="314" y="686" type="curve" smooth="yes"/>
      <point x="269" y="686"/>
      <point x="230" y="723"/>
      <point x="181" y="723" type="curve" smooth="yes"/>
      <point x="111" y="723"/>
      <point x="83" y="656"/>
      <point x="83" y="601" type="curve"/>
      <point x="149" y="601" type="line"/>
      <point x="153" y="628"/>
      <point x="167" y="638"/>
      <point x="188" y="638" type="curve" smooth="yes"/>
      <point x="233" y="638"/>
      <point x="272" y="601"/>
      <point x="320" y="601" type="curve" smooth="yes"/>
      <point x="391" y="601"/>
      <point x="419" y="668"/>
      <point x="419" y="723" type="curve"/>
    </contour>
  </outline>
</glyph>
<glyph name="divide" format="1">
  <advance width="549"/>
  <unicode hex="00F7"/>
  <outline>
    <contour>
      <point x="515" y="307" type="line"/>
      <point x="33" y="307" type="line"/>
      <point x="33" y="203" type="line"/>
      <point x="515" y="203" type="line"/>
    </contour>
    <contour>
      <point x="326" y="151" type="line"/>
      <point x="222" y="151" type="line"/>
      <point x="222" y="41" type="line"/>
      <point x="326" y="41" type="line"/>
    </contour>
    <contour>
      <point x="326" y="470" type="line"/>
      <point x="222" y="470" type="line"/>
      <point x="222" y="359" type="line"/>
      <point x="326" y="359" type="line"/>
    </contour>
  </outline>
</glyph>
<glyph name="oslash" format="1">
  <advance width="501"/>
  <unicode hex="00F8"/>
  <outline>
    <contour>
      <point x="448" y="558" type="line"/>
      <point x="373" y="558" type="line"/>
      <point x="351" y="517" type="line"/>
      <point x="323" y="531"/>
      <point x="290" y="538"/>
      <point x="251" y="538" type="curve" smooth="yes"/>
      <point x="111" y="538"/>
      <point x="41" y="452"/>
      <point x="41" y="263" type="curve" smooth="yes"/>
      <point x="41" y="165"/>
      <point x="60" y="95"/>
      <point x="97" y="50" type="curve"/>
      <point x="52" y="-32" type="line"/>
      <point x="127" y="-32" type="line"/>
      <point x="149" y="9" type="line"/>
      <point x="178" y="-5"/>
      <point x="211" y="-12"/>
      <point x="251" y="-12" type="curve" smooth="yes"/>
      <point x="391" y="-12"/>
      <point x="461" y="74"/>
      <point x="461" y="263" type="curve" smooth="yes"/>
      <point x="461" y="361"/>
      <point x="442" y="432"/>
      <point x="404" y="477" type="curve"/>
    </contour>
    <contour>
      <point x="332" y="345" type="line"/>
      <point x="334" y="326"/>
      <point x="336" y="305"/>
      <point x="336" y="282" type="curve" smooth="yes"/>
      <point x="336" y="244" type="line" smooth="yes"/>
      <point x="336" y="143"/>
      <point x="313" y="89"/>
      <point x="251" y="89" type="curve" smooth="yes"/>
      <point x="231" y="89"/>
      <point x="215" y="95"/>
      <point x="202" y="106" type="curve"/>
    </contour>
    <contour>
      <point x="251" y="437" type="curve" smooth="yes"/>
      <point x="270" y="437"/>
      <point x="286" y="431"/>
      <point x="298" y="421" type="curve"/>
      <point x="169" y="183" type="line"/>
      <point x="167" y="201"/>
      <point x="166" y="221"/>
      <point x="166" y="244" type="curve"/>
      <point x="166" y="282" type="line" smooth="yes"/>
      <point x="166" y="383"/>
      <point x="189" y="437"/>
    </contour>
    <contour>
      <point x="250" y="526" type="move" name="top"/>
    </contour>
  </outline>
</glyph>
<glyph name="ucircumflex" format="1">
  <advance width="501"/>
  <unicode hex="00FB"/>
  <outline>
    <contour>
      <point x="446" y="526" type="line"/>
      <point x="326" y="526" type="line"/>
      <point x="326" y="200" type="line" smooth="yes"/>
      <point x="326" y="141"/>
      <point x="291" y="97"/>
      <point x="244" y="97" type="curve" smooth="yes"/>
      <point x="199" y="97"/>
      <point x="175" y="122"/>
      <point x="175" y="190" type="curve" smooth="yes"/>
      <point x="175" y="526" type="line"/>
      <point x="55" y="526" type="line"/>
      <point x="55" y="157" type="line" smooth="yes"/>
      <point x="55" y="33"/>
      <point x="114" y="-12"/>
      <point x="195" y="-12" type="curve" smooth="yes"/>
      <point x="258" y="-12"/>
      <point x="301" y="24"/>
      <point x="328" y="65" type="curve"/>
      <point x="334" y="65" type="line"/>
      <point x="346" y="0" type="line"/>
      <point x="446" y="0" type="line"/>
    </contour>
    <contour>
      <point x="300" y="723" type="line"/>
      <point x="202" y="723" type="line"/>
      <point x="116" y="588" type="line"/>
      <point x="206" y="588" type="line"/>
      <point x="251" y="657" type="line"/>
      <point x="295" y="588" type="line"/>
      <point x="385" y="588" type="line"/>
    </contour>
  </outline>
</glyph>
<glyph name="thorn" format="1">
  <advance width="501"/>
  <unicode hex="00FE"/>
  <outline>
    <contour>
      <point x="55" y="-173" type="line"/>
      <point x="175" y="-173" type="line"/>
      <point x="175" y="54" type="line"/>
      <point x="180" y="54" type="line"/>
      <point x="199" y="12"/>
      <point x="244" y="-12"/>
      <point x="297" y="-12" type="curve" smooth="yes"/>
      <point x="390" y="-12"/>
      <point x="460" y="71"/>
      <point x="460" y="262" type="curve" smooth="yes"/>
      <point x="460" y="453"/>
      <point x="395" y="538"/>
      <point x="291" y="538" type="curve" smooth="yes"/>
      <point x="243" y="538"/>
      <point x="201" y="514"/>
      <point x="175" y="466" type="curve"/>
      <point x="175" y="723" type="line"/>
      <point x="55" y="723" type="line"/>
    </contour>
    <contour>
      <point x="175" y="282" type="line"/>
      <point x="175" y="377"/>
      <point x="197" y="429"/>
      <point x="255" y="429" type="curve" smooth="yes"/>
      <point x="313" y="429"/>
      <point x="335" y="377"/>
      <point x="335" y="282" type="curve" smooth="yes"/>
      <point x="335" y="244" type="line" smooth="yes"/>
      <point x="335" y="149"/>
      <point x="313" y="97"/>
      <point x="255" y="97" type="curve" smooth="yes"/>
      <point x="197" y="97"/>
      <point x="175" y="151"/>
      <point x="175" y="246" type="curve" smooth="yes"/>
    </contour>
  </outline>
</glyph>
<glyph name="ydieresis" format="1">
  <advance width="456"/>
  <unicode hex="00FF"/>
  <outline>
    <contour>
      <point x="452" y="526" type="line"/>
      <point x="332" y="526" type="line"/>
      <point x="267" y="278" type="line" smooth="yes"/>
      <point x="255" y="233"/>
      <point x="242" y="142"/>
      <point x="242" y="142" type="curve"/>
      <point x="238" y="142" type="line"/>
      <point x="238" y="142"/>
      <point x="223" y="239"/>
      <point x="210" y="279" type="curve" smooth="yes"/>
      <point x="131" y="526" type="line"/>
      <point x="4" y="526" type="line"/>
      <point x="179" y="0" type="line"/>
      <point x="165" y="-58"/>
      <point x="132" y="-81"/>
      <point x="98" y="-81" type="curve" smooth="yes"/>
      <point x="44" y="-81" type="line"/>
      <point x="44" y="-173" type="line"/>
      <point x="44" y="-174"/>
      <point x="74" y="-182"/>
      <point x="122" y="-182" type="curve" smooth="yes"/>
      <point x="223" y="-182"/>
      <point x="275" y="-87"/>
      <point x="308" y="27" type="curve" smooth="yes"/>
    </contour>
    <contour>
      <point x="191" y="723" type="line"/>
      <point x="91" y="723" type="line"/>
      <point x="91" y="614" type="line"/>
      <point x="191" y="614" type="line"/>
    </contour>
    <contour>
      <point x="366" y="723" type="line"/>
      <point x="266" y="723" type="line"/>
      <point x="266" y="614" type="line"/>
      <point x="366" y="614" type="line"/>
    </contour>
  </outline>
</glyph>
<glyph name="Amacron" format="1">
  <advance width="592"/>
  <unicode hex="0100"/>
  <outline>
    <contour>
      <point x="370" y="686" type="line"/>
      <point x="221" y="686" type="line"/>
      <point x="0" y="0" type="line"/>
      <point x="124" y="0" type="line"/>
      <point x="165" y="135" type="line"/>
      <point x="418" y="135" type="line"/>
      <point x="460" y="0" type="line"/>
      <point x="591" y="0" type="line"/>
    </contour>
    <contour>
      <point x="294" y="571" type="line"/>
      <point x="294" y="571"/>
      <point x="303" y="514"/>
      <point x="314" y="478" type="curve" smooth="yes"/>
      <point x="383" y="249" type="line"/>
      <point x="200" y="249" type="line"/>
      <point x="270" y="478" type="line" smooth="yes"/>
      <point x="280" y="510"/>
      <point x="290" y="571"/>
      <point x="290" y="571" type="curve"/>
    </contour>
    <contour>
      <point x="424" y="846" type="line"/>
      <point x="168" y="846" type="line"/>
      <point x="168" y="759" type="line"/>
      <point x="424" y="759" type="line"/>
    </contour>
  </outline>
</glyph>
<glyph name="Abreve" format="1">
  <advance width="592"/>
  <unicode hex="0102"/>
  <outline>
    <contour>
      <point x="370" y="686" type="line"/>
      <point x="221" y="686" type="line"/>
      <point x="0" y="0" type="line"/>
      <point x="124" y="0" type="line"/>
      <point x="165" y="135" type="line"/>
      <point x="418" y="135" type="line"/>
      <point x="460" y="0" type="line"/>
      <point x="591" y="0" type="line"/>
    </contour>
    <contour>
      <point x="294" y="571" type="line"/>
      <point x="294" y="571"/>
      <point x="303" y="514"/>
      <point x="314" y="478" type="curve" smooth="yes"/>
      <point x="383" y="249" type="line"/>
      <point x="200" y="249" type="line"/>
      <point x="270" y="478" type="line" smooth="yes"/>
      <point x="280" y="510"/>
      <point x="290" y="571"/>
      <point x="290" y="571" type="curve"/>
    </contour>
    <contour>
      <point x="355" y="883" type="line"/>
      <point x="354" y="869"/>
      <point x="330" y="850"/>
      <point x="295" y="850" type="curve" smooth="yes"/>
      <point x="263" y="850"/>
      <point x="240" y="869"/>
      <point x="237" y="883" type="curve"/>
      <point x="163" y="883" type="line"/>
      <point x="163" y="833"/>
      <point x="213" y="776"/>
      <point x="295" y="776" type="curve" smooth="yes"/>
      <point x="378" y="776"/>
      <point x="430" y="833"/>
      <point x="430" y="883" type="curve"/>
    </contour>
  </outline>
</glyph>
<glyph name="Aogonek" format="1">
  <advance width="592"/>
  <unicode hex="0104"/>
  <outline>
    <contour>
      <point x="370" y="686" type="line"/>
      <point x="221" y="686" type="line"/>
      <point x="0" y="0" type="line"/>
      <point x="124" y="0" type="line"/>
      <point x="165" y="135" type="line"/>
      <point x="418" y="135" type="line"/>
      <point x="460" y="0" type="line"/>
      <point x="507" y="0" type="line"/>
      <point x="483" y="-25"/>
      <point x="463" y="-53"/>
      <point x="463" y="-100" type="curve" smooth="yes"/>
      <point x="463" y="-169"/>
      <point x="516" y="-190"/>
      <point x="562" y="-190" type="curve" smooth="yes"/>
      <point x="584" y="-190"/>
      <point x="605" y="-185"/>
      <point x="628" y="-176" type="curve"/>
      <point x="628" y="-121" type="line"/>
      <point x="606" y="-121" type="line" smooth="yes"/>
      <point x="573" y="-121"/>
      <point x="561" y="-96"/>
      <point x="561" y="-70" type="curve" smooth="yes"/>
      <point x="561" y="-42"/>
      <point x="579" y="-14"/>
      <point x="591" y="0" type="curve"/>
    </contour>
    <contour>
      <point x="294" y="571" type="line"/>
      <point x="294" y="571"/>
      <point x="303" y="514"/>
      <point x="314" y="478" type="curve" smooth="yes"/>
      <point x="383" y="249" type="line"/>
      <point x="200" y="249" type="line"/>
      <point x="270" y="478" type="line" smooth="yes"/>
      <point x="280" y="510"/>
      <point x="290" y="571"/>
      <point x="290" y="571" type="curve"/>
    </contour>
  </outline>
</glyph>
<glyph name="Ccircumflex" format="1">
  <advance width="592"/>
  <unicode hex="0108"/>
  <outline>
    <contour>
      <point x="307" y="698" type="curve" smooth="yes"/>
      <point x="135" y="698"/>
      <point x="34" y="585"/>
      <point x="34" y="343" type="curve" smooth="yes"/>
      <point x="34" y="101"/>
      <point x="135" y="-12"/>
      <point x="307" y="-12" type="curve" smooth="yes"/>
      <point x="452" y="-12"/>
      <point x="559" y="74"/>
      <point x="559" y="254" type="curve"/>
      <point x="434" y="254" type="line"/>
      <point x="434" y="148"/>
      <point x="385" y="98"/>
      <point x="311" y="98" type="curve" smooth="yes"/>
      <point x="213" y="98"/>
      <point x="166" y="181"/>
      <point x="166" y="318" type="curve" smooth="yes"/>
      <point x="166" y="368" type="line" smooth="yes"/>
      <point x="166" y="505"/>
      <point x="212" y="588"/>
      <point x="307" y="588" type="curve" smooth="yes"/>
      <point x="379" y="588"/>
      <point x="428" y="537"/>
      <point x="428" y="431" type="curve"/>
      <point x="559" y="431" type="line"/>
      <point x="559" y="617"/>
      <point x="450" y="698"/>
    </contour>
    <contour>
      <point x="356" y="883" type="line"/>
      <point x="258" y="883" type="line"/>
      <point x="172" y="748" type="line"/>
      <point x="262" y="748" type="line"/>
      <point x="307" y="817" type="line"/>
      <point x="352" y="748" type="line"/>
      <point x="441" y="748" type="line"/>
    </contour>
  </outline>
</glyph>
<glyph name="ccaron" format="1">
  <advance width="456"/>
  <unicode hex="010D"/>
  <outline>
    <contour>
      <point x="236" y="538" type="curve" smooth="yes"/>
      <point x="106" y="538"/>
      <point x="41" y="452"/>
      <point x="41" y="263" type="curve" smooth="yes"/>
      <point x="41" y="74"/>
      <point x="103" y="-12"/>
      <point x="240" y="-12" type="curve" smooth="yes"/>
      <point x="350" y="-12"/>
      <point x="420" y="51"/>
      <point x="420" y="198" type="curve"/>
      <point x="301" y="198" type="line"/>
      <point x="301" y="126"/>
      <point x="283" y="89"/>
      <point x="240" y="89" type="curve" smooth="yes"/>
      <point x="186" y="89"/>
      <point x="166" y="143"/>
      <point x="166" y="244" type="curve" smooth="yes"/>
      <point x="166" y="282" type="line" smooth="yes"/>
      <point x="166" y="383"/>
      <point x="185" y="437"/>
      <point x="236" y="437" type="curve" smooth="yes"/>
      <point x="277" y="437"/>
      <point x="297" y="402"/>
      <point x="297" y="328" type="curve"/>
      <point x="420" y="328" type="line"/>
      <point x="420" y="475"/>
      <point x="348" y="538"/>
    </contour>
    <contour>
      <point x="372" y="723" type="line"/>
      <point x="282" y="723" type="line"/>
      <point x="238" y="654" type="line"/>
      <point x="193" y="723" type="line"/>
      <point x="103" y="723" type="line"/>
      <point x="189" y="588" type="line"/>
      <point x="287" y="588" type="line"/>
    </contour>
  </outline>
</glyph>
<glyph name="Dcroat" format="1">
  <advance width="592"/>
  <unicode hex="0110"/>
  <outline>
    <contour>
      <point x="10" y="312" type="line"/>
      <point x="60" y="312" type="line"/>
      <point x="60" y="0" type="line"/>
      <point x="283" y="0" type="line" smooth="yes"/>
      <point x="454" y="0"/>
      <point x="558" y="118"/>
      <point x="558" y="353" type="curve" smooth="yes"/>
      <point x="558" y="574"/>
      <point x="454" y="686"/>
      <point x="283" y="686" type="curve" smooth="yes"/>
      <point x="60" y="686" type="line"/>
      <point x="60" y="397" type="line"/>
      <point x="10" y="397" type="line"/>
    </contour>
    <contour>
      <point x="271" y="572" type="line" smooth="yes"/>
      <point x="366" y="572"/>
      <point x="426" y="507"/>
      <point x="426" y="378" type="curve" smooth="yes"/>
      <point x="426" y="328" type="line" smooth="yes"/>
      <point x="426" y="185"/>
      <point x="366" y="114"/>
      <point x="271" y="114" type="curve" smooth="yes"/>
      <point x="188" y="114" type="line"/>
      <point x="188" y="312" type="line"/>
      <point x="313" y="312" type="line"/>
      <point x="313" y="397" type="line"/>
      <point x="188" y="397" type="line"/>
      <point x="188" y="572" type="line"/>
    </contour>
  </outline>
</glyph>
<glyph name="Ebreve" format="1">
  <advance width="547"/>
  <unicode hex="0114"/>
  <outline>
    <contour>
      <point x="333" y="883" type="line"/>
      <point x="331" y="869"/>
      <point x="307" y="850"/>
      <point x="273" y="850" type="curve" smooth="yes"/>
      <point x="240" y="850"/>
      <point x="217" y="869"/>
      <point x="214" y="883" type="curve"/>
      <point x="140" y="883" type="line"/>
      <point x="140" y="833"/>
      <point x="191" y="776"/>
      <point x="273" y="776" type="curve" smooth="yes"/>
      <point x="356" y="776"/>
      <point x="407" y="833"/>
      <point x="407" y="883" type="curve"/>
    </contour>
    <contour>
      <point x="503" y="0" type="line"/>
      <point x="503" y="114" type="line"/>
      <point x="188" y="114" type="line"/>
      <point x="188" y="294" type="line"/>
      <point x="453" y="294" type="line"/>
      <point x="453" y="408" type="line"/>
      <point x="188" y="408" type="line"/>
      <point x="188" y="572" type="line"/>
      <point x="497" y="572" type="line"/>
      <point x="497" y="686" type="line"/>
      <point x="60" y="686" type="line"/>
      <point x="60" y="0" type="line"/>
    </contour>
  </outline>
</glyph>
<glyph name="ebreve" format="1">
  <advance width="456"/>
  <unicode hex="0115"/>
  <outline>
    <contour>
      <point x="233" y="538" type="curve" smooth="yes"/>
      <point x="103" y="538"/>
      <point x="31" y="452"/>
      <point x="31" y="263" type="curve" smooth="yes"/>
      <point x="31" y="74"/>
      <point x="102" y="-12"/>
      <point x="237" y="-12" type="curve" smooth="yes"/>
      <point x="344" y="-12"/>
      <point x="423" y="51"/>
      <point x="423" y="186" type="curve"/>
      <point x="304" y="186" type="line"/>
      <point x="304" y="123"/>
      <point x="278" y="86"/>
      <point x="237" y="86" type="curve" smooth="yes"/>
      <point x="178" y="86"/>
      <point x="157" y="139"/>
      <point x="156" y="233" type="curve"/>
      <point x="423" y="233" type="line"/>
      <point x="423" y="263" type="line" smooth="yes"/>
      <point x="423" y="452"/>
      <point x="360" y="538"/>
    </contour>
    <contour>
      <point x="233" y="440" type="curve" smooth="yes"/>
      <point x="277" y="440"/>
      <point x="297" y="396"/>
      <point x="297" y="320" type="curve"/>
      <point x="157" y="320" type="line"/>
      <point x="161" y="396"/>
      <point x="182" y="440"/>
    </contour>
    <contour>
      <point x="288" y="723" type="line"/>
      <point x="286" y="709"/>
      <point x="262" y="690"/>
      <point x="228" y="690" type="curve" smooth="yes"/>
      <point x="195" y="690"/>
      <point x="172" y="709"/>
      <point x="169" y="723" type="curve"/>
      <point x="95" y="723" type="line"/>
      <point x="95" y="673"/>
      <point x="146" y="616"/>
      <point x="228" y="616" type="curve" smooth="yes"/>
      <point x="311" y="616"/>
      <point x="362" y="673"/>
      <point x="362" y="723" type="curve"/>
    </contour>
  </outline>
</glyph>
<glyph name="edotaccent" format="1">
  <advance width="456"/>
  <unicode hex="0117"/>
  <outline>
    <contour>
      <point x="233" y="538" type="curve" smooth="yes"/>
      <point x="103" y="538"/>
      <point x="31" y="452"/>
      <point x="31" y="263" type="curve" smooth="yes"/>
      <point x="31" y="74"/>
      <point x="102" y="-12"/>
      <point x="237" y="-12" type="curve" smooth="yes"/>
      <point x="344" y="-12"/>
      <point x="423" y="51"/>
      <point x="423" y="186" type="curve"/>
      <point x="304" y="186" type="line"/>
      <point x="304" y="123"/>
      <point x="278" y="86"/>
      <point x="237" y="86" type="curve" smooth="yes"/>
      <point x="178" y="86"/>
      <point x="157" y="139"/>
      <point x="156" y="233" type="curve"/>
      <point x="423" y="233" type="line"/>
      <point x="423" y="263" type="line" smooth="yes"/>
      <point x="423" y="452"/>
      <point x="360" y="538"/>
    </contour>
    <contour>
      <point x="233" y="440" type="curve" smooth="yes"/>
      <point x="277" y="440"/>
      <point x="297" y="396"/>
      <point x="297" y="320" type="curve"/>
      <point x="157" y="320" type="line"/>
      <point x="161" y="396"/>
      <point x="182" y="440"/>
    </contour>
    <contour>
      <point x="282" y="723" type="line"/>
      <point x="175" y="723" type="line"/>
      <point x="175" y="608" type="line"/>
      <point x="282" y="608" type="line"/>
    </contour>
  </outline>
</glyph>
<glyph name="Eogonek" format="1">
  <advance width="547"/>
  <unicode hex="0118"/>
  <outline>
    <contour>
      <point x="497" y="686" type="line"/>
      <point x="60" y="686" type="line"/>
      <point x="60" y="0" type="line"/>
      <point x="419" y="0" type="line"/>
      <point x="395" y="-25"/>
      <point x="375" y="-53"/>
      <point x="375" y="-100" type="curve" smooth="yes"/>
      <point x="375" y="-169"/>
      <point x="428" y="-190"/>
      <point x="474" y="-190" type="curve" smooth="yes"/>
      <point x="496" y="-190"/>
      <point x="517" y="-185"/>
      <point x="540" y="-176" type="curve"/>
      <point x="540" y="-121" type="line"/>
      <point x="518" y="-121" type="line" smooth="yes"/>
      <point x="485" y="-121"/>
      <point x="473" y="-96"/>
      <point x="473" y="-70" type="curve" smooth="yes"/>
      <point x="473" y="-42"/>
      <point x="491" y="-14"/>
      <point x="503" y="0" type="curve"/>
      <point x="503" y="114" type="line"/>
      <point x="188" y="114" type="line"/>
      <point x="188" y="294" type="line"/>
      <point x="453" y="294" type="line"/>
      <point x="453" y="408" type="line"/>
      <point x="188" y="408" type="line"/>
      <point x="188" y="572" type="line"/>
      <point x="497" y="572" type="line"/>
    </contour>
  </outline>
</glyph>
<glyph name="eogonek" format="1">
  <advance width="456"/>
  <unicode hex="0119"/>
  <outline>
    <contour>
      <point x="233" y="538" type="curve" smooth="yes"/>
      <point x="103" y="538"/>
      <point x="31" y="452"/>
      <point x="31" y="263" type="curve" smooth="yes"/>
      <point x="31" y="79"/>
      <point x="98" y="-7"/>
      <point x="225" y="-12" type="curve"/>
      <point x="208" y="-33"/>
      <point x="196" y="-58"/>
      <point x="196" y="-95" type="curve" smooth="yes"/>
      <point x="196" y="-164"/>
      <point x="250" y="-185"/>
      <point x="295" y="-185" type="curve" smooth="yes"/>
      <point x="317" y="-185"/>
      <point x="338" y="-180"/>
      <point x="361" y="-171" type="curve"/>
      <point x="361" y="-116" type="line"/>
      <point x="339" y="-116" type="line" smooth="yes"/>
      <point x="306" y="-116"/>
      <point x="294" y="-91"/>
      <point x="294" y="-65" type="curve" smooth="yes"/>
      <point x="294" y="-37"/>
      <point x="312" y="-9"/>
      <point x="324" y="5" type="curve"/>
      <point x="384" y="32"/>
      <point x="423" y="91"/>
      <point x="423" y="186" type="curve"/>
      <point x="304" y="186" type="line"/>
      <point x="304" y="123"/>
      <point x="278" y="86"/>
      <point x="237" y="86" type="curve" smooth="yes"/>
      <point x="178" y="86"/>
      <point x="157" y="139"/>
      <point x="156" y="233" type="curve"/>
      <point x="423" y="233" type="line"/>
      <point x="423" y="263" type="line" smooth="yes"/>
      <point x="423" y="452"/>
      <point x="360" y="538"/>
    </contour>
    <contour>
      <point x="233" y="440" type="curve" smooth="yes"/>
      <point x="277" y="440"/>
      <point x="297" y="396"/>
      <point x="297" y="320" type="curve"/>
      <point x="157" y="320" type="line"/>
      <point x="161" y="396"/>
      <point x="182" y="440"/>
    </contour>
  </outline>
</glyph>
<glyph name="Gbreve" format="1">
  <advance width="638"/>
  <unicode hex="011E"/>
  <outline>
    <contour>
      <point x="325" y="698" type="curve" smooth="yes"/>
      <point x="140" y="698"/>
      <point x="34" y="585"/>
      <point x="34" y="343" type="curve" smooth="yes"/>
      <point x="34" y="99"/>
      <point x="131" y="-12"/>
      <point x="299" y="-12" type="curve" smooth="yes"/>
      <point x="371" y="-12"/>
      <point x="438" y="18"/>
      <point x="482" y="76" type="curve"/>
      <point x="504" y="0" type="line"/>
      <point x="587" y="0" type="line"/>
      <point x="587" y="373" type="line"/>
      <point x="302" y="373" type="line"/>
      <point x="302" y="263" type="line"/>
      <point x="456" y="263" type="line"/>
      <point x="456" y="163"/>
      <point x="400" y="98"/>
      <point x="322" y="98" type="curve" smooth="yes"/>
      <point x="215" y="98"/>
      <point x="166" y="178"/>
      <point x="166" y="318" type="curve" smooth="yes"/>
      <point x="166" y="368" type="line" smooth="yes"/>
      <point x="166" y="505"/>
      <point x="214" y="588"/>
      <point x="321" y="588" type="curve" smooth="yes"/>
      <point x="395" y="588"/>
      <point x="456" y="539"/>
      <point x="456" y="446" type="curve"/>
      <point x="587" y="446" type="line"/>
      <point x="587" y="610"/>
      <point x="463" y="698"/>
    </contour>
    <contour>
      <point x="379" y="883" type="line"/>
      <point x="377" y="869"/>
      <point x="353" y="850"/>
      <point x="319" y="850" type="curve" smooth="yes"/>
      <point x="286" y="850"/>
      <point x="263" y="869"/>
      <point x="260" y="883" type="curve"/>
      <point x="186" y="883" type="line"/>
      <point x="186" y="833"/>
      <point x="237" y="776"/>
      <point x="319" y="776" type="curve" smooth="yes"/>
      <point x="402" y="776"/>
      <point x="453" y="833"/>
      <point x="453" y="883" type="curve"/>
    </contour>
  </outline>
</glyph>
<glyph name="Gcommaaccent" format="1">
  <advance width="638"/>
  <unicode hex="0122"/>
  <outline>
    <contour>
      <point x="325" y="698" type="curve" smooth="yes"/>
      <point x="140" y="698"/>
      <point x="34" y="585"/>
      <point x="34" y="343" type="curve" smooth="yes"/>
      <point x="34" y="99"/>
      <point x="131" y="-12"/>
      <point x="299" y="-12" type="curve" smooth="yes"/>
      <point x="371" y="-12"/>
      <point x="438" y="18"/>
      <point x="482" y="76" type="curve"/>
      <point x="504" y="0" type="line"/>
      <point x="587" y="0" type="line"/>
      <point x="587" y="373" type="line"/>
      <point x="302" y="373" type="line"/>
      <point x="302" y="263" type="line"/>
      <point x="456" y="263" type="line"/>
      <point x="456" y="163"/>
      <point x="400" y="98"/>
      <point x="322" y="98" type="curve" smooth="yes"/>
      <point x="215" y="98"/>
      <point x="166" y="178"/>
      <point x="166" y="318" type="curve" smooth="yes"/>
      <point x="166" y="368" type="line" smooth="yes"/>
      <point x="166" y="505"/>
      <point x="214" y="588"/>
      <point x="321" y="588" type="curve" smooth="yes"/>
      <point x="395" y="588"/>
      <point x="456" y="539"/>
      <point x="456" y="446" type="curve"/>
      <point x="587" y="446" type="line"/>
      <point x="587" y="610"/>
      <point x="463" y="698"/>
    </contour>
    <contour>
      <point x="365" y="-55" type="line"/>
      <point x="242" y="-55" type="line"/>
      <point x="242" y="-178" type="line"/>
      <point x="291" y="-178" type="line"/>
      <point x="255" y="-263" type="line"/>
      <point x="320" y="-263" type="line"/>
      <point x="365" y="-167" type="line"/>
    </contour>
  </outline>
</glyph>
<glyph name="gcommaaccent" format="1">
  <advance width="501"/>
  <unicode hex="0123"/>
  <outline>
    <contour>
      <point x="387" y="614" type="line"/>
      <point x="387" y="595"/>
      <point x="376" y="552"/>
      <point x="336" y="523" type="curve"/>
      <point x="311" y="533"/>
      <point x="281" y="538"/>
      <point x="248" y="538" type="curve" smooth="yes"/>
      <point x="122" y="538"/>
      <point x="54" y="467"/>
      <point x="54" y="359" type="curve" smooth="yes"/>
      <point x="54" y="297"/>
      <point x="76" y="248"/>
      <point x="118" y="217" type="curve"/>
      <point x="76" y="202"/>
      <point x="41" y="171"/>
      <point x="41" y="125" type="curve" smooth="yes"/>
      <point x="41" y="89"/>
      <point x="57" y="62"/>
      <point x="83" y="46" type="curve"/>
      <point x="45" y="25"/>
      <point x="16" y="-9"/>
      <point x="16" y="-61" type="curve" smooth="yes"/>
      <point x="16" y="-133"/>
      <point x="68" y="-182"/>
      <point x="132" y="-182" type="curve" smooth="yes"/>
      <point x="325" y="-182" type="line" smooth="yes"/>
      <point x="419" y="-182"/>
      <point x="495" y="-118"/>
      <point x="495" y="-20" type="curve" smooth="yes"/>
      <point x="495" y="64"/>
      <point x="441" y="117"/>
      <point x="375" y="117" type="curve" smooth="yes"/>
      <point x="193" y="117" type="line" smooth="yes"/>
      <point x="175" y="117"/>
      <point x="162" y="130"/>
      <point x="162" y="148" type="curve" smooth="yes"/>
      <point x="162" y="166"/>
      <point x="177" y="180"/>
      <point x="198" y="180" type="curve" smooth="yes"/>
      <point x="248" y="180" type="line" smooth="yes"/>
      <point x="375" y="180"/>
      <point x="443" y="251"/>
      <point x="443" y="359" type="curve" smooth="yes"/>
      <point x="443" y="408"/>
      <point x="428" y="450"/>
      <point x="401" y="480" type="curve"/>
      <point x="454" y="496"/>
      <point x="486" y="539"/>
      <point x="486" y="614" type="curve"/>
    </contour>
    <contour>
      <point x="325" y="6" type="line"/>
      <point x="352" y="6"/>
      <point x="374" y="-12"/>
      <point x="374" y="-42" type="curve" smooth="yes"/>
      <point x="374" y="-72"/>
      <point x="350" y="-91"/>
      <point x="320" y="-91" type="curve" smooth="yes"/>
      <point x="185" y="-91" type="line" smooth="yes"/>
      <point x="158" y="-91"/>
      <point x="137" y="-72"/>
      <point x="137" y="-42" type="curve" smooth="yes"/>
      <point x="137" y="-16"/>
      <point x="158" y="6"/>
      <point x="185" y="6" type="curve" smooth="yes"/>
    </contour>
    <contour>
      <point x="248" y="449" type="curve" smooth="yes"/>
      <point x="298" y="449"/>
      <point x="323" y="415"/>
      <point x="323" y="359" type="curve" smooth="yes"/>
      <point x="323" y="303"/>
      <point x="298" y="269"/>
      <point x="248" y="269" type="curve" smooth="yes"/>
      <point x="199" y="269"/>
      <point x="174" y="303"/>
      <point x="174" y="359" type="curve" smooth="yes"/>
      <point x="174" y="415"/>
      <point x="199" y="449"/>
    </contour>
    <contour>
      <point x="288" y="798" type="line"/>
      <point x="223" y="798" type="line"/>
      <point x="177" y="702" type="line"/>
      <point x="177" y="590" type="line"/>
      <point x="301" y="590" type="line"/>
      <point x="301" y="713" type="line"/>
      <point x="252" y="713" type="line"/>
    </contour>
  </outline>
</glyph>
<glyph name="Hcircumflex" format="1">
  <advance width="592"/>
  <unicode hex="0124"/>
  <outline>
    <contour>
      <point x="346" y="883" type="line"/>
      <point x="248" y="883" type="line"/>
      <point x="162" y="748" type="line"/>
      <point x="251" y="748" type="line"/>
      <point x="296" y="817" type="line"/>
      <point x="341" y="748" type="line"/>
      <point x="431" y="748" type="line"/>
    </contour>
    <contour>
      <point x="404" y="0" type="line"/>
      <point x="532" y="0" type="line"/>
      <point x="532" y="686" type="line"/>
      <point x="404" y="686" type="line"/>
      <point x="404" y="408" type="line"/>
      <point x="188" y="408" type="line"/>
      <point x="188" y="686" type="line"/>
      <point x="60" y="686" type="line"/>
      <point x="60" y="0" type="line"/>
      <point x="188" y="0" type="line"/>
      <point x="188" y="294" type="line"/>
      <point x="404" y="294" type="line"/>
    </contour>
  </outline>
</glyph>
<glyph name="hcircumflex" format="1">
  <advance width="501"/>
  <unicode hex="0125"/>
  <outline>
    <contour>
      <point x="175" y="723" type="line"/>
      <point x="55" y="723" type="line"/>
      <point x="55" y="0" type="line"/>
      <point x="175" y="0" type="line"/>
      <point x="175" y="324" type="line" smooth="yes"/>
      <point x="175" y="383"/>
      <point x="210" y="429"/>
      <point x="257" y="429" type="curve" smooth="yes"/>
      <point x="300" y="429"/>
      <point x="326" y="404"/>
      <point x="326" y="336" type="curve" smooth="yes"/>
      <point x="326" y="0" type="line"/>
      <point x="446" y="0" type="line"/>
      <point x="446" y="369" type="line" smooth="yes"/>
      <point x="446" y="493"/>
      <point x="387" y="538"/>
      <point x="306" y="538" type="curve" smooth="yes"/>
      <point x="244" y="538"/>
      <point x="202" y="503"/>
      <point x="179" y="470" type="curve"/>
      <point x="175" y="470" type="line"/>
    </contour>
    <contour>
      <point x="162" y="883" type="line"/>
      <point x="64" y="883" type="line"/>
      <point x="-22" y="748" type="line"/>
      <point x="68" y="748" type="line"/>
      <point x="113" y="817" type="line"/>
      <point x="157" y="748" type="line"/>
      <point x="247" y="748" type="line"/>
    </contour>
  </outline>
</glyph>
<glyph name="Hbar" format="1">
  <advance width="592"/>
  <unicode hex="0126"/>
  <outline>
    <contour>
      <point x="582" y="577" type="line"/>
      <point x="532" y="577" type="line"/>
      <point x="532" y="686" type="line"/>
      <point x="404" y="686" type="line"/>
      <point x="404" y="577" type="line"/>
      <point x="188" y="577" type="line"/>
      <point x="188" y="686" type="line"/>
      <point x="60" y="686" type="line"/>
      <point x="60" y="577" type="line"/>
      <point x="10" y="577" type="line"/>
      <point x="10" y="490" type="line"/>
      <point x="60" y="490" type="line"/>
      <point x="60" y="0" type="line"/>
      <point x="188" y="0" type="line"/>
      <point x="188" y="287" type="line"/>
      <point x="404" y="287" type="line"/>
      <point x="404" y="0" type="line"/>
      <point x="532" y="0" type="line"/>
      <point x="532" y="490" type="line"/>
      <point x="582" y="490" type="line"/>
    </contour>
    <contour>
      <point x="188" y="401" type="line"/>
      <point x="188" y="490" type="line"/>
      <point x="404" y="490" type="line"/>
      <point x="404" y="401" type="line"/>
    </contour>
  </outline>
</glyph>
<glyph name="hbar" format="1">
  <advance width="501"/>
  <unicode hex="0127"/>
  <outline>
    <contour>
      <point x="306" y="670" type="line"/>
      <point x="175" y="670" type="line"/>
      <point x="175" y="723" type="line"/>
      <point x="55" y="723" type="line"/>
      <point x="55" y="670" type="line"/>
      <point x="0" y="670" type="line"/>
      <point x="0" y="583" type="line"/>
      <point x="55" y="583" type="line"/>
      <point x="55" y="0" type="line"/>
      <point x="175" y="0" type="line"/>
      <point x="175" y="324" type="line" smooth="yes"/>
      <point x="175" y="383"/>
      <point x="210" y="429"/>
      <point x="257" y="429" type="curve" smooth="yes"/>
      <point x="300" y="429"/>
      <point x="326" y="404"/>
      <point x="326" y="336" type="curve" smooth="yes"/>
      <point x="326" y="0" type="line"/>
      <point x="446" y="0" type="line"/>
      <point x="446" y="369" type="line" smooth="yes"/>
      <point x="446" y="493"/>
      <point x="387" y="538"/>
      <point x="306" y="538" type="curve" smooth="yes"/>
      <point x="244" y="538"/>
      <point x="202" y="503"/>
      <point x="179" y="470" type="curve"/>
      <point x="175" y="470" type="line"/>
      <point x="175" y="583" type="line"/>
      <point x="306" y="583" type="line"/>
    </contour>
  </outline>
</glyph>
<glyph name="Itilde" format="1">
  <advance width="228"/>
  <unicode hex="0128"/>
  <outline>
    <contour>
      <point x="178" y="686" type="line"/>
      <point x="50" y="686" type="line"/>
      <point x="50" y="0" type="line"/>
      <point x="178" y="0" type="line"/>
    </contour>
    <contour>
      <point x="216" y="883" type="line"/>
      <point x="212" y="855"/>
      <point x="199" y="846"/>
      <point x="178" y="846" type="curve" smooth="yes"/>
      <point x="132" y="846"/>
      <point x="94" y="883"/>
      <point x="44" y="883" type="curve" smooth="yes"/>
      <point x="-26" y="883"/>
      <point x="-54" y="816"/>
      <point x="-54" y="761" type="curve"/>
      <point x="13" y="761" type="line"/>
      <point x="17" y="788"/>
      <point x="30" y="798"/>
      <point x="52" y="798" type="curve" smooth="yes"/>
      <point x="97" y="798"/>
      <point x="136" y="761"/>
      <point x="184" y="761" type="curve" smooth="yes"/>
      <point x="254" y="761"/>
      <point x="283" y="828"/>
      <point x="283" y="883" type="curve"/>
    </contour>
  </outline>
</glyph>
<glyph name="itilde" format="1">
  <advance width="228"/>
  <unicode hex="0129"/>
  <outline>
    <contour>
      <point x="174" y="526" type="line"/>
      <point x="54" y="526" type="line"/>
      <point x="54" y="0" type="line"/>
      <point x="174" y="0" type="line"/>
    </contour>
    <contour>
      <point x="216" y="723" type="line"/>
      <point x="212" y="695"/>
      <point x="199" y="686"/>
      <point x="178" y="686" type="curve" smooth="yes"/>
      <point x="132" y="686"/>
      <point x="94" y="723"/>
      <point x="44" y="723" type="curve" smooth="yes"/>
      <point x="-26" y="723"/>
      <point x="-54" y="656"/>
      <point x="-54" y="601" type="curve"/>
      <point x="13" y="601" type="line"/>
      <point x="17" y="628"/>
      <point x="30" y="638"/>
      <point x="52" y="638" type="curve" smooth="yes"/>
      <point x="97" y="638"/>
      <point x="136" y="601"/>
      <point x="184" y="601" type="curve" smooth="yes"/>
      <point x="254" y="601"/>
      <point x="283" y="668"/>
      <point x="283" y="723" type="curve"/>
    </contour>
  </outline>
</glyph>
<glyph name="Imacron" format="1">
  <advance width="228"/>
  <unicode hex="012A"/>
  <outline>
    <contour>
      <point x="178" y="686" type="line"/>
      <point x="50" y="686" type="line"/>
      <point x="50" y="0" type="line"/>
      <point x="178" y="0" type="line"/>
    </contour>
    <contour>
      <point x="242" y="846" type="line"/>
      <point x="-14" y="846" type="line"/>
      <point x="-14" y="759" type="line"/>
      <point x="242" y="759" type="line"/>
    </contour>
  </outline>
</glyph>
<glyph name="imacron" format="1">
  <advance width="228"/>
  <unicode hex="012B"/>
  <outline>
    <contour>
      <point x="174" y="526" type="line"/>
      <point x="54" y="526" type="line"/>
      <point x="54" y="0" type="line"/>
      <point x="174" y="0" type="line"/>
    </contour>
    <contour>
      <point x="242" y="686" type="line"/>
      <point x="-14" y="686" type="line"/>
      <point x="-14" y="599" type="line"/>
      <point x="242" y="599" type="line"/>
    </contour>
  </outline>
</glyph>
<glyph name="Ibreve" format="1">
  <advance width="228"/>
  <unicode hex="012C"/>
  <outline>
    <contour>
      <point x="178" y="686" type="line"/>
      <point x="50" y="686" type="line"/>
      <point x="50" y="0" type="line"/>
      <point x="178" y="0" type="line"/>
    </contour>
    <contour>
      <point x="174" y="883" type="line"/>
      <point x="172" y="869"/>
      <point x="148" y="850"/>
      <point x="114" y="850" type="curve" smooth="yes"/>
      <point x="81" y="850"/>
      <point x="58" y="869"/>
      <point x="55" y="883" type="curve"/>
      <point x="-20" y="883" type="line"/>
      <point x="-20" y="833"/>
      <point x="32" y="776"/>
      <point x="114" y="776" type="curve" smooth="yes"/>
      <point x="197" y="776"/>
      <point x="248" y="833"/>
      <point x="248" y="883" type="curve"/>
    </contour>
  </outline>
</glyph>
<glyph name="ibreve" format="1">
  <advance width="228"/>
  <unicode hex="012D"/>
  <outline>
    <contour>
      <point x="174" y="526" type="line"/>
      <point x="54" y="526" type="line"/>
      <point x="54" y="0" type="line"/>
      <point x="174" y="0" type="line"/>
    </contour>
    <contour>
      <point x="174" y="723" type="line"/>
      <point x="172" y="709"/>
      <point x="148" y="690"/>
      <point x="114" y="690" type="curve" smooth="yes"/>
      <point x="81" y="690"/>
      <point x="58" y="709"/>
      <point x="55" y="723" type="curve"/>
      <point x="-20" y="723" type="line"/>
      <point x="-20" y="673"/>
      <point x="32" y="616"/>
      <point x="114" y="616" type="curve" smooth="yes"/>
      <point x="197" y="616"/>
      <point x="248" y="673"/>
      <point x="248" y="723" type="curve"/>
    </contour>
  </outline>
</glyph>
<glyph name="Iogonek" format="1">
  <advance width="228"/>
  <unicode hex="012E"/>
  <outline>
    <contour>
      <point x="178" y="686" type="line"/>
      <point x="50" y="686" type="line"/>
      <point x="50" y="0" type="line"/>
      <point x="94" y="0" type="line"/>
      <point x="70" y="-25"/>
      <point x="50" y="-53"/>
      <point x="50" y="-100" type="curve" smooth="yes"/>
      <point x="50" y="-169"/>
      <point x="104" y="-190"/>
      <point x="149" y="-190" type="curve" smooth="yes"/>
      <point x="171" y="-190"/>
      <point x="192" y="-185"/>
      <point x="215" y="-176" type="curve"/>
      <point x="215" y="-121" type="line"/>
      <point x="193" y="-121" type="line" smooth="yes"/>
      <point x="160" y="-121"/>
      <point x="148" y="-96"/>
      <point x="148" y="-70" type="curve" smooth="yes"/>
      <point x="148" y="-42"/>
      <point x="167" y="-14"/>
      <point x="178" y="0" type="curve"/>
    </contour>
  </outline>
</glyph>
<glyph name="iogonek" format="1">
  <advance width="228"/>
  <unicode hex="012F"/>
  <outline>
    <contour>
      <point x="174" y="526" type="line"/>
      <point x="54" y="526" type="line"/>
      <point x="54" y="0" type="line"/>
      <point x="90" y="0" type="line"/>
      <point x="66" y="-25"/>
      <point x="46" y="-53"/>
      <point x="46" y="-100" type="curve" smooth="yes"/>
      <point x="46" y="-169"/>
      <point x="99" y="-190"/>
      <point x="145" y="-190" type="curve" smooth="yes"/>
      <point x="167" y="-190"/>
      <point x="188" y="-185"/>
      <point x="211" y="-176" type="curve"/>
      <point x="211" y="-121" type="line"/>
      <point x="189" y="-121" type="line" smooth="yes"/>
      <point x="156" y="-121"/>
      <point x="144" y="-96"/>
      <point x="144" y="-70" type="curve" smooth="yes"/>
      <point x="144" y="-42"/>
      <point x="162" y="-14"/>
      <point x="174" y="0" type="curve"/>
    </contour>
    <contour>
      <point x="168" y="723" type="line"/>
      <point x="61" y="723" type="line"/>
      <point x="61" y="608" type="line"/>
      <point x="168" y="608" type="line"/>
    </contour>
  </outline>
</glyph>
<glyph name="Idotaccent" format="1">
  <advance width="228"/>
  <unicode hex="0130"/>
  <outline>
    <contour>
      <point x="178" y="686" type="line"/>
      <point x="50" y="686" type="line"/>
      <point x="50" y="0" type="line"/>
      <point x="178" y="0" type="line"/>
    </contour>
    <contour>
      <point x="168" y="883" type="line"/>
      <point x="61" y="883" type="line"/>
      <point x="61" y="768" type="line"/>
      <point x="168" y="768" type="line"/>
    </contour>
  </outline>
</glyph>
